<svg width="160" height="50" viewBox="0 0 160 50" fill="none" xmlns="http://www.w3.org/2000/svg">
<g clip-path="url(#clip0_2_11)">
<g clip-path="url(#clip1_2_11)">
<g clip-path="url(#clip2_2_11)">
<path d="M49.0259 15.5324C49.0259 14.1338 48.6901 13 48.2759 13C47.8617 13 47.5259 14.1338 47.5259 15.5324V42.4676C47.5259 43.8662 47.8617 45 48.2759 45C48.6901 45 49.0259 43.8662 49.0259 42.4676V15.5324Z" fill="#D5B263"/>
<path d="M52.0259 15.5324C52.0259 14.1338 51.6901 13 51.2759 13C50.8617 13 50.5259 14.1338 50.5259 15.5324V42.4676C50.5259 43.8662 50.8617 45 51.2759 45C51.6901 45 52.0259 43.8662 52.0259 42.4676V15.5324Z" fill="#D5B263"/>
<g clip-path="url(#clip3_2_11)">
<g clip-path="url(#clip4_2_11)">
<g clip-path="url(#clip5_2_11)">
<g clip-path="url(#clip6_2_11)">
<path d="M60.5438 16C60.6655 16.2231 60.7264 16.5643 60.7264 17.0238C60.7264 17.4833 60.7144 17.8569 60.6904 18.1446C60.6681 18.4301 60.6338 18.7056 60.5875 18.971C60.4881 19.571 60.3484 20.0238 60.1684 20.3294C60.0125 19.2788 59.8111 18.5272 59.5642 18.0744C59.3054 17.6171 58.9678 17.3885 58.5512 17.3885C58.1347 17.3885 57.8091 17.4922 57.5742 17.6996C57.3411 17.9049 57.1612 18.177 57.0343 18.516C56.8252 19.0759 56.7206 19.9023 56.7206 20.9952C56.7206 22.0859 56.8158 23.0852 57.006 23.993C57.1963 24.8986 57.4671 25.6782 57.8185 26.3317C58.5607 27.7213 59.5257 28.4161 60.7135 28.4161C60.6964 28.6615 60.5978 28.8734 60.4178 29.0518C60.363 29.1076 60.3047 29.1399 60.243 29.1488C58.7244 29.1488 57.486 28.4228 56.5278 26.9707C55.5097 25.4228 55.0006 23.3149 55.0006 20.6473C55.0006 19.2532 55.3143 18.2049 55.9416 17.5022C56.4987 16.8822 57.2606 16.5721 58.2273 16.5721L59.2763 16.5889C59.7699 16.5889 60.117 16.4963 60.3176 16.3112C60.4016 16.2286 60.477 16.1249 60.5438 16ZM67.3288 29.0685H65.4777C65.6697 28.2075 65.7656 26.7287 65.7656 24.632C65.7656 23.7555 65.7305 23.1722 65.6602 22.8822C65.5882 22.59 65.4991 22.377 65.3928 22.2432C65.2866 22.1093 65.1443 22.0424 64.966 22.0424C64.7878 22.0424 64.6267 22.0859 64.4827 22.1729C64.3387 22.2621 64.2101 22.377 64.097 22.5175C63.8828 22.7785 63.7088 23.1265 63.5751 23.5614V25.1239C63.5751 26.654 63.5982 27.6008 63.6445 27.9644C63.6994 28.444 63.7559 28.812 63.8142 29.0685H61.963C62.0625 28.6113 62.1293 28.0046 62.1636 27.2484C62.239 25.3525 62.2767 23.9562 62.2767 23.0595C62.2767 22.1651 62.2741 21.5528 62.269 21.2227C62.2656 20.8926 62.2596 20.5647 62.251 20.2391C62.2304 19.0524 62.1893 18.3075 62.1276 18.0041C62.0676 17.703 62.011 17.4822 61.9579 17.3416C61.9065 17.2034 61.8491 17.0773 61.7856 16.9636L61.5722 16.5788H63.8631C63.7465 17.1297 63.6788 17.6417 63.6599 18.1145C63.6411 18.5874 63.6274 18.9733 63.6188 19.2721C63.6102 19.5688 63.6017 19.88 63.5931 20.2056C63.5811 20.9684 63.5751 21.6409 63.5751 22.2231C63.9059 21.4982 64.343 21.0186 64.8863 20.7844C65.08 20.6974 65.296 20.6539 65.5342 20.6539C65.7725 20.6539 65.9885 20.7209 66.1822 20.8547C66.3776 20.9885 66.5404 21.1781 66.6707 21.4235C66.938 21.9186 67.0717 22.5967 67.0717 23.4577V24.3309C67.0717 25.9971 67.0897 27.041 67.1257 27.4626C67.16 27.8841 67.184 28.1641 67.1977 28.3023C67.2269 28.541 67.2706 28.7964 67.3288 29.0685ZM73.3168 26.2915C73.4677 26.4231 73.5431 26.6507 73.5431 26.9741C73.5431 27.2975 73.5097 27.5819 73.4428 27.8272C73.376 28.0726 73.2586 28.3012 73.0906 28.5131C72.7135 28.9927 72.1402 29.2325 71.3706 29.2325C70.4758 29.2325 69.7936 28.802 69.324 27.941C68.9092 27.1737 68.7018 26.1365 68.7018 24.8294C68.7018 23.5112 68.9829 22.4763 69.5451 21.7246C70.0764 21.0108 70.7955 20.6539 71.7022 20.6539C72.3347 20.6539 72.8292 20.8937 73.1857 21.3733C73.4651 21.7547 73.6048 22.1941 73.6048 22.6915C73.6048 23.1911 73.5302 23.6406 73.3811 24.0399C73.2337 24.4413 73.0152 24.786 72.7255 25.0737C72.1324 25.6737 71.302 25.9893 70.2341 26.0205C70.3216 27.1157 70.5855 27.8484 71.026 28.2187C71.1837 28.3503 71.3945 28.4161 71.6585 28.4161C71.9225 28.4161 72.2027 28.2365 72.4992 27.8774C72.7975 27.5161 73.07 26.9875 73.3168 26.2915ZM70.1956 24.9934V25.2443C71.5188 25.1306 72.1804 24.2975 72.1804 22.745C72.1804 22.1629 72.0467 21.7714 71.7793 21.5707C71.6868 21.5038 71.5651 21.4703 71.4143 21.4703C71.2634 21.4703 71.1117 21.5305 70.9592 21.651C70.8066 21.7714 70.6738 21.9677 70.5607 22.2398C70.3173 22.8331 70.1956 23.751 70.1956 24.9934ZM77.3765 29.0685H75.0857C75.2828 28.1919 75.3814 26.422 75.3814 23.7588C75.3814 23.2904 75.3771 22.9871 75.3685 22.8488C75.36 22.7105 75.3223 22.6324 75.2554 22.6146C74.9795 22.5343 74.8141 22.3279 74.7592 21.9956C74.7472 21.9086 74.7309 21.816 74.7104 21.7179H75.1114C75.228 21.7179 75.3 21.6833 75.3274 21.6142C75.3548 21.5473 75.3685 21.3554 75.3685 21.0387C75.3685 20.4231 75.3506 19.8186 75.3146 19.2253C75.2786 18.632 75.2966 18.1825 75.3685 17.877C75.4388 17.5736 75.5494 17.3127 75.7002 17.0941C76.019 16.6368 76.469 16.4082 77.05 16.4082C77.2677 16.4082 77.4665 16.4349 77.6465 16.4885C77.8265 16.5442 78.0005 16.5721 78.1684 16.5721C78.3347 16.5721 78.4812 16.542 78.6081 16.4818C78.7332 16.4216 78.8438 16.2877 78.9398 16.0803C78.9946 16.1628 79.0452 16.3089 79.0914 16.5186C79.1377 16.7283 79.1609 16.9569 79.1609 17.2045C79.1609 17.4521 79.1472 17.713 79.1197 17.9874C79.0923 18.264 79.0529 18.5327 79.0015 18.7937C78.8969 19.3379 78.7512 19.7707 78.5644 20.0919C78.4632 18.9811 78.3698 18.2896 78.2841 18.0175C78.1984 17.7454 78.1042 17.5591 78.0013 17.4587C77.8985 17.3561 77.7468 17.3048 77.5462 17.3048C77.3457 17.3048 77.1666 17.4431 77.0089 17.7197C76.8529 17.9941 76.7749 18.371 76.7749 18.8506V19.1116C76.7749 20.2 76.7981 20.858 76.8443 21.0855C76.8889 21.3108 76.9515 21.4592 77.032 21.5305C77.1109 21.5997 77.224 21.6343 77.3714 21.6343H78.5258C78.4213 22.125 78.2918 22.4417 78.1376 22.5844C78.0622 22.6603 77.9773 22.6982 77.883 22.6982C77.7888 22.6982 77.7142 22.6893 77.6594 22.6714C77.6045 22.6558 77.5522 22.6369 77.5025 22.6146C77.3774 22.561 77.2634 22.5343 77.1606 22.5343C77.0577 22.5343 76.9789 22.5521 76.924 22.5878C76.8709 22.6235 76.8272 22.6737 76.7929 22.7384C76.7432 22.8476 76.7184 23.0216 76.7184 23.2603V24.6588C76.7184 26.3518 76.7646 27.4101 76.8572 27.8339C76.924 28.1507 77.0097 28.4016 77.1143 28.5867L77.3765 29.0685ZM88.6044 24.7057L88.5864 26.2748C88.5864 27.2495 88.6558 27.9142 88.7946 28.2689C88.8769 28.4808 88.9746 28.6436 89.0877 28.7574L89.3834 29.0685H87.5631L87.3677 28.1217C86.8946 28.8622 86.221 29.2325 85.3468 29.2325C84.8498 29.2325 84.4478 29.015 84.141 28.58C83.8736 28.1875 83.7399 27.7235 83.7399 27.1882C83.7399 26.6551 83.8376 26.1901 84.033 25.793C84.2267 25.396 84.483 25.067 84.8018 24.806C85.4291 24.2997 86.2176 24.0354 87.1671 24.0131V23.9227C87.1671 22.6001 87.0103 21.8238 86.6966 21.5941C86.5835 21.5116 86.4378 21.4703 86.2596 21.4703C86.083 21.4703 85.9065 21.5473 85.7299 21.7012C85.5551 21.8528 85.3965 22.0491 85.2543 22.29C84.9697 22.774 84.7666 23.345 84.6449 24.003C84.273 23.7153 84.087 23.1633 84.087 22.3469C84.087 22.0146 84.1204 21.6409 84.1873 21.2261C84.345 21.2261 84.495 21.196 84.6372 21.1357L85.1206 20.9417C85.5937 20.7499 86.0564 20.6539 86.509 20.6539C86.9615 20.6539 87.3223 20.7409 87.5914 20.9149C87.8622 21.0911 88.0722 21.3499 88.2213 21.6911C88.4767 22.2755 88.6044 23.2804 88.6044 24.7057ZM85.0974 27.3521C85.0974 27.6912 85.1566 27.9533 85.2748 28.1384C85.3948 28.3235 85.5448 28.4161 85.7248 28.4161C85.9048 28.4161 86.0779 28.3548 86.2441 28.2321C86.4121 28.1094 86.5629 27.9421 86.6966 27.7302C87.0103 27.244 87.1671 26.6741 87.1671 26.0205V24.8127C86.5809 24.8841 86.0976 25.1373 85.7171 25.5722C85.304 26.0406 85.0974 26.6339 85.0974 27.3521ZM84.7324 16.5721H86.3393C86.3393 16.6257 86.3873 16.8264 86.4832 17.1744C86.7009 17.9149 86.856 18.4301 86.9486 18.7201C86.9486 18.7201 87.03 18.9621 87.1929 19.4461C87.2648 19.6469 87.3257 19.8052 87.3754 19.9212H86.6581C86.4421 19.7182 86.1936 19.3915 85.9125 18.9409C85.3811 18.0844 84.9877 17.2948 84.7324 16.5721ZM93.7311 20.8179H96.0476C95.9722 21.0588 95.9345 21.322 95.9345 21.6075C95.9345 21.893 95.9516 22.1462 95.9859 22.367C96.0184 22.5878 96.0647 22.8454 96.1247 23.1398L96.8009 26.2748L97.04 27.2785C97.2868 26.315 97.4497 25.6648 97.5285 25.328L97.7548 24.3309C98.0016 23.2358 98.125 22.5577 98.125 22.2967C98.125 22.0357 98.1156 21.8439 98.0967 21.7212C98.0779 21.5986 98.0522 21.4882 98.0196 21.39C97.9785 21.2428 97.897 21.0521 97.7753 20.8179H100.058C99.7499 21.3733 99.5434 21.7904 99.4388 22.0692L99.2048 22.6882C99.1671 22.7863 99.1149 22.9279 99.048 23.1131C98.2287 25.5488 97.819 27.1804 97.819 28.0079C97.819 28.3826 97.873 28.7362 97.981 29.0685H95.7211C95.8222 28.8611 95.8822 28.6659 95.901 28.483C95.9199 28.3023 95.9293 28.115 95.9293 27.9209C95.9293 27.7269 95.8916 27.4481 95.8162 27.0845C95.7408 26.7187 95.6422 26.3049 95.5205 25.8432C95.3988 25.3793 95.26 24.8897 95.104 24.3744C94.9463 23.8614 94.7861 23.3707 94.6232 22.9023C94.2547 21.8517 93.9573 21.1569 93.7311 20.8179ZM103.786 21.4703C103.411 21.4703 103.14 21.7157 102.974 22.2064C102.809 22.6971 102.727 23.5224 102.727 24.6822C102.727 27.1715 103.08 28.4161 103.786 28.4161C104.164 28.4161 104.434 28.0838 104.599 27.4191C104.765 26.7544 104.848 25.8421 104.848 24.6822C104.848 23.5224 104.765 22.6971 104.599 22.2064C104.434 21.7157 104.164 21.4703 103.786 21.4703ZM101.143 24.3711C101.143 21.893 102.024 20.6539 103.786 20.6539C105.549 20.6539 106.43 21.893 106.43 24.3711C106.43 25.8744 106.187 27.0644 105.702 27.941C105.229 28.802 104.59 29.2325 103.786 29.2325C102.984 29.2325 102.347 28.802 101.874 27.941C101.387 27.0644 101.143 25.8744 101.143 24.3711ZM109.787 17.5524C109.7 17.9718 109.656 18.4736 109.656 19.058C109.656 19.6446 109.666 20.0194 109.684 20.1822C109.703 20.345 109.733 20.4755 109.774 20.5736C109.855 20.7365 110.01 20.8179 110.24 20.8179H111.921C111.921 21.1235 111.865 21.3577 111.752 21.5205C111.548 21.8149 111.297 21.9621 110.998 21.9621C110.853 21.9621 110.723 21.9354 110.61 21.8818C110.404 21.7725 110.245 21.7179 110.132 21.7179C110.019 21.7179 109.927 21.7458 109.857 21.8015C109.785 21.8595 109.728 21.9432 109.687 22.0525C109.612 22.2488 109.574 22.6759 109.574 23.3339C109.574 23.9941 109.589 24.67 109.62 25.3614C109.653 26.0529 109.732 26.6306 109.857 27.0945C109.982 27.5607 110.172 27.9109 110.428 28.1451C110.683 28.3793 111.034 28.4964 111.482 28.4964C111.482 28.6659 111.394 28.8678 111.219 29.102C111.173 29.1667 111.133 29.2102 111.099 29.2325C110.358 29.2325 109.804 29.1176 109.435 28.8878C109.013 28.6157 108.713 28.1317 108.533 27.4358C108.353 26.7265 108.263 25.6782 108.263 24.2908C108.263 23.0752 108.238 22.3569 108.188 22.1361C108.137 21.9175 108.09 21.7725 108.049 21.7012C107.998 21.6186 107.876 21.5183 107.684 21.4C107.945 21.1435 108.202 20.6662 108.456 19.9681L108.772 19.1116C108.993 18.458 109.182 18.0342 109.34 17.8402C109.496 17.6483 109.645 17.5524 109.787 17.5524ZM114.582 29.0685H112.731C112.923 28.2075 113.019 26.7287 113.019 24.632C113.019 23.1398 112.927 22.1216 112.744 21.5774C112.669 21.3543 112.534 21.1012 112.34 20.8179H114.57C114.494 21.1614 114.433 21.6331 114.387 22.2331C114.781 21.5885 115.33 21.1335 116.032 20.8681C116.334 20.7543 116.554 20.5748 116.691 20.3294C116.829 20.7599 116.899 21.1302 116.899 21.4402C116.899 21.7502 116.886 22.0369 116.86 22.3001C116.836 22.5655 116.799 22.8231 116.747 23.0729C116.639 23.6127 116.495 24.032 116.315 24.3309C116.161 23.2692 115.92 22.648 115.593 22.4673C115.216 22.2554 114.847 22.5443 114.487 23.3339C114.412 23.4967 114.349 23.6707 114.3 23.8558C114.296 23.983 114.294 24.1112 114.294 24.2406C114.294 24.3722 114.294 24.5027 114.294 24.632C114.294 26.7287 114.39 28.2075 114.582 29.0685ZM122.134 26.2915C122.284 26.4231 122.36 26.6507 122.36 26.9741C122.36 27.2975 122.326 27.5819 122.26 27.8272C122.193 28.0726 122.075 28.3012 121.907 28.5131C121.53 28.9927 120.957 29.2325 120.187 29.2325C119.293 29.2325 118.61 28.802 118.141 27.941C117.726 27.1737 117.519 26.1365 117.519 24.8294C117.519 23.5112 117.8 22.4763 118.362 21.7246C118.893 21.0108 119.612 20.6539 120.519 20.6539C121.151 20.6539 121.646 20.8937 122.002 21.3733C122.282 21.7547 122.422 22.1941 122.422 22.6915C122.422 23.1911 122.347 23.6406 122.198 24.0399C122.05 24.4413 121.832 24.786 121.542 25.0737C120.949 25.6737 120.119 25.9893 119.051 26.0205C119.138 27.1157 119.402 27.8484 119.843 28.2187C120 28.3503 120.211 28.4161 120.475 28.4161C120.739 28.4161 121.019 28.2365 121.316 27.8774C121.614 27.5161 121.887 26.9875 122.134 26.2915ZM119.012 24.9934V25.2443C120.336 25.1306 120.997 24.2975 120.997 22.745C120.997 22.1629 120.863 21.7714 120.596 21.5707C120.504 21.5038 120.382 21.4703 120.231 21.4703C120.08 21.4703 119.928 21.5305 119.776 21.651C119.623 21.7714 119.491 21.9677 119.377 22.2398C119.134 22.8331 119.012 23.751 119.012 24.9934ZM129.351 21.3398C129.818 20.8826 130.405 20.6539 131.109 20.6539C132.105 20.6539 132.755 21.1904 133.061 22.2633C133.16 22.6179 133.21 23.0629 133.21 23.5982C133.21 24.1358 133.163 24.6588 133.068 25.1674C132.976 25.6759 132.845 26.1354 132.677 26.5458C132.509 26.954 132.312 27.3131 132.084 27.6232C131.856 27.9332 131.608 28.1919 131.341 28.3994C130.804 28.8187 130.235 29.0395 129.633 29.0618C129.642 29.354 129.654 29.6418 129.669 29.925L129.734 30.7916C129.771 31.3804 129.901 31.879 130.122 32.2871L130.335 32.6619H128.044C128.161 32.1399 128.229 31.6169 128.248 31.0927C128.266 30.5708 128.282 30.1235 128.294 29.7511C128.304 29.3786 128.311 28.9927 128.314 28.5934C128.332 27.6678 128.34 26.857 128.34 26.1611C128.34 23.9172 128.285 22.5443 128.176 22.0424C128.109 21.7324 128.023 21.4848 127.918 21.2997L127.656 20.8179H129.343C129.319 20.9272 129.321 21.1012 129.351 21.3398ZM131.641 23.8157C131.641 22.2521 131.338 21.4703 130.731 21.4703C130.43 21.4703 130.178 21.6454 129.978 21.9956C129.76 22.3703 129.651 22.8844 129.651 23.538L129.608 27.409V27.8607C129.608 28.0079 129.609 28.1574 129.613 28.309C130.22 28.1886 130.711 27.7146 131.089 26.8871C131.457 26.0707 131.641 25.0469 131.641 23.8157ZM137.365 21.4703C136.989 21.4703 136.718 21.7157 136.552 22.2064C136.388 22.6971 136.305 23.5224 136.305 24.6822C136.305 27.1715 136.658 28.4161 137.365 28.4161C137.742 28.4161 138.013 28.0838 138.18 27.4191C138.344 26.7544 138.426 25.8421 138.426 24.6822C138.426 23.5224 138.344 22.6971 138.18 22.2064C138.013 21.7157 137.742 21.4703 137.365 21.4703ZM134.724 24.3711C134.724 21.893 135.604 20.6539 137.365 20.6539C139.127 20.6539 140.008 21.893 140.008 24.3711C140.008 25.8744 139.765 27.0644 139.28 27.941C138.807 28.802 138.168 29.2325 137.365 29.2325C136.562 29.2325 135.925 28.802 135.452 27.941C134.967 27.0644 134.724 25.8744 134.724 24.3711ZM143.522 29.0685H141.671C141.863 28.2075 141.959 26.7287 141.959 24.632C141.959 23.1398 141.867 22.1216 141.684 21.5774C141.608 21.3543 141.475 21.1012 141.283 20.8179H143.509C143.434 21.1614 143.373 21.6331 143.327 22.2331C143.721 21.5885 144.27 21.1335 144.972 20.8681C145.274 20.7543 145.493 20.5748 145.63 20.3294C145.769 20.7599 145.839 21.1302 145.839 21.4402C145.839 21.7502 145.826 22.0369 145.8 22.3001C145.776 22.5655 145.738 22.8231 145.687 23.0729C145.579 23.6127 145.435 24.032 145.255 24.3309C145.101 23.2692 144.86 22.648 144.533 22.4673C144.156 22.2554 143.788 22.5443 143.43 23.3339C143.354 23.4967 143.291 23.6707 143.239 23.8558C143.236 23.983 143.234 24.1112 143.234 24.2406C143.234 24.3722 143.234 24.5027 143.234 24.632C143.234 26.7287 143.33 28.2075 143.522 29.0685ZM148.525 17.5524C148.436 17.9718 148.392 18.4736 148.392 19.058C148.392 19.6446 148.401 20.0194 148.42 20.1822C148.439 20.345 148.47 20.4755 148.513 20.5736C148.591 20.7365 148.746 20.8179 148.975 20.8179H150.659C150.659 21.1235 150.603 21.3577 150.49 21.5205C150.284 21.8149 150.033 21.9621 149.736 21.9621C149.589 21.9621 149.459 21.9354 149.346 21.8818C149.142 21.7725 148.983 21.7179 148.87 21.7179C148.757 21.7179 148.665 21.7458 148.595 21.8015C148.523 21.8595 148.466 21.9432 148.425 22.0525C148.35 22.2488 148.312 22.6759 148.312 23.3339C148.312 23.9941 148.328 24.67 148.358 25.3614C148.389 26.0529 148.468 26.6306 148.595 27.0945C148.72 27.5607 148.91 27.9109 149.166 28.1451C149.421 28.3793 149.772 28.4964 150.22 28.4964C150.22 28.6659 150.132 28.8678 149.955 29.102C149.909 29.1667 149.869 29.2102 149.837 29.2325C149.096 29.2325 148.542 29.1176 148.173 28.8878C147.75 28.6157 147.448 28.1317 147.268 27.4358C147.088 26.7265 146.998 25.6782 146.998 24.2908C146.998 23.0752 146.973 22.3569 146.924 22.1361C146.874 21.9175 146.828 21.7725 146.785 21.7012C146.735 21.6186 146.614 21.5183 146.422 21.4C146.681 21.1435 146.938 20.6662 147.194 19.9681L147.507 19.1116C147.73 18.458 147.92 18.0342 148.076 17.8402C148.233 17.6483 148.383 17.5524 148.525 17.5524ZM155.712 26.2915C155.862 26.4231 155.938 26.6507 155.938 26.9741C155.938 27.2975 155.904 27.5819 155.838 27.8272C155.771 28.0726 155.653 28.3012 155.485 28.5131C155.108 28.9927 154.535 29.2325 153.765 29.2325C152.871 29.2325 152.188 28.802 151.719 27.941C151.304 27.1737 151.097 26.1365 151.097 24.8294C151.097 23.5112 151.378 22.4763 151.94 21.7246C152.471 21.0108 153.19 20.6539 154.097 20.6539C154.729 20.6539 155.224 20.8937 155.58 21.3733C155.86 21.7547 156 22.1941 156 22.6915C156 23.1911 155.925 23.6406 155.776 24.0399C155.628 24.4413 155.41 24.786 155.12 25.0737C154.527 25.6737 153.697 25.9893 152.629 26.0205C152.716 27.1157 152.98 27.8484 153.421 28.2187C153.578 28.3503 153.789 28.4161 154.053 28.4161C154.317 28.4161 154.597 28.2365 154.894 27.8774C155.192 27.5161 155.465 26.9875 155.712 26.2915ZM152.59 24.9934V25.2443C153.914 25.1306 154.575 24.2975 154.575 22.745C154.575 22.1629 154.442 21.7714 154.174 21.5707C154.082 21.5038 153.96 21.4703 153.809 21.4703C153.658 21.4703 153.506 21.5305 153.354 21.651C153.201 21.7714 153.069 21.9677 152.955 22.2398C152.712 22.8331 152.59 23.751 152.59 24.9934Z" fill="white"/>
</g>
</g>
<g clip-path="url(#clip7_2_11)">
<g clip-path="url(#clip8_2_11)">
<path d="M60.7788 34.743L60.3349 35.2866C60.2496 35.1444 60.1519 35.0418 60.0419 34.9788C59.9318 34.9147 59.8178 34.8827 59.6997 34.8827H59.6789V34.1574H59.6844C59.8979 34.1574 60.0973 34.206 60.2824 34.3031C60.4675 34.4012 60.633 34.5478 60.7788 34.743ZM58.0455 36.9217C58.0455 36.5013 58.0809 36.1284 58.1516 35.8031C58.223 35.4778 58.321 35.2015 58.4457 34.9743C58.5703 34.747 58.7197 34.5674 58.8939 34.4352C59.0681 34.3031 59.2569 34.22 59.4602 34.186V34.9202C59.3531 34.9593 59.2543 35.0248 59.164 35.1169C59.0729 35.21 58.9927 35.3386 58.9234 35.5028C58.8542 35.666 58.7999 35.8637 58.7605 36.0959C58.7212 36.3281 58.6997 36.6034 58.696 36.9217C58.6997 37.2391 58.7212 37.5173 58.7605 37.7566C58.7999 37.9958 58.8542 38.2025 58.9234 38.3767C58.9927 38.5499 59.0729 38.688 59.164 38.7911C59.2543 38.8932 59.3531 38.9638 59.4602 39.0029V39.671C59.2569 39.636 59.0681 39.5514 58.8939 39.4173C58.7197 39.2831 58.5703 39.101 58.4457 38.8707C58.321 38.6415 58.223 38.3642 58.1516 38.0389C58.0809 37.7145 58.0455 37.3422 58.0455 36.9217ZM59.6789 36.8632H60.981V38.9518C60.8994 39.0939 60.8079 39.2101 60.7066 39.3002C60.6053 39.3902 60.4985 39.4648 60.3863 39.5239C60.274 39.5829 60.1581 39.6245 60.0386 39.6485C59.9198 39.6725 59.8017 39.6845 59.6844 39.6845H59.6789V39.0404C59.7212 39.0404 59.7737 39.0364 59.8363 39.0284C59.8983 39.0214 59.9624 39.0094 60.0288 38.9923C60.0944 38.9753 60.1567 38.9523 60.2157 38.9233C60.274 38.8932 60.3174 38.8517 60.3458 38.7986V37.4638H59.6789V36.8632ZM62.3957 38.4022C62.3957 38.6225 62.4285 38.7861 62.4941 38.8932C62.5605 39.0004 62.6559 39.0639 62.7806 39.0839V39.6785C62.766 39.6825 62.7427 39.6845 62.7106 39.6845C62.5896 39.6845 62.473 39.6625 62.3607 39.6185C62.2485 39.5754 62.1497 39.5049 62.0645 39.4068C61.9792 39.3087 61.9125 39.179 61.8644 39.0179C61.8163 38.8567 61.7922 38.659 61.7922 38.4248C61.7922 38.1995 61.8269 38.0048 61.8961 37.8407C61.9661 37.6775 62.0554 37.5434 62.164 37.4383C62.2726 37.3332 62.3961 37.2551 62.5346 37.204C62.6731 37.152 62.8137 37.126 62.9566 37.126H63.1916V37.647H63.0736C63.0021 37.647 62.9274 37.657 62.8494 37.677C62.7715 37.696 62.6986 37.7326 62.6308 37.7866C62.563 37.8397 62.5069 37.9168 62.4624 38.0179C62.418 38.118 62.3957 38.2461 62.3957 38.4022ZM64.0564 38.3662V38.4248C64.0564 38.4638 64.0579 38.5209 64.0608 38.5959C64.0645 38.672 64.0717 38.7491 64.0827 38.8272C64.0936 38.9053 64.1104 38.9763 64.133 39.0404C64.1563 39.1035 64.1876 39.145 64.227 39.165L64.0564 39.656C64.0098 39.656 63.9606 39.6415 63.9088 39.6125C63.8571 39.5824 63.8075 39.5409 63.7602 39.4878C63.712 39.4338 63.6709 39.3737 63.6366 39.3077C63.6031 39.2416 63.5772 39.1695 63.559 39.0914C63.524 39.2136 63.454 39.3222 63.3491 39.4173C63.2441 39.5124 63.1275 39.5819 62.9992 39.626V39.0689C63.0845 39.0449 63.1618 38.9973 63.231 38.9263C63.3002 38.8552 63.36 38.7711 63.4103 38.674V37.126C63.4103 36.8867 63.4012 36.696 63.383 36.5539C63.3655 36.4127 63.3352 36.3091 63.2922 36.2431C63.25 36.177 63.1975 36.1355 63.1348 36.1184C63.0728 36.1014 62.9992 36.0929 62.9139 36.0929C62.8352 36.0929 62.7613 36.1064 62.692 36.1334C62.6228 36.1605 62.5586 36.192 62.4996 36.228C62.4413 36.2651 62.3899 36.3056 62.3454 36.3497C62.301 36.3937 62.2678 36.4277 62.2459 36.4518L62.0065 35.9458C62.0415 35.8917 62.0947 35.8366 62.1661 35.7806C62.2376 35.7245 62.3196 35.6745 62.4121 35.6304C62.5047 35.5864 62.6053 35.5509 62.7139 35.5238C62.8217 35.4978 62.9347 35.4848 63.0528 35.4848C63.1592 35.4848 63.2631 35.4993 63.3644 35.5283C63.4657 35.5574 63.5583 35.6064 63.6421 35.6755C63.7259 35.7436 63.7988 35.8351 63.8607 35.9503C63.9234 36.0644 63.9671 36.207 63.9919 36.3782C64.0167 36.5494 64.0335 36.722 64.0422 36.8962C64.0517 37.0694 64.0564 37.2416 64.0564 37.4127V38.3662ZM66.1698 39.6845C65.9701 39.6845 65.7955 39.625 65.6461 39.5059C65.4967 39.3857 65.3724 39.2256 65.2733 39.0254C65.1734 38.8252 65.1002 38.5954 65.0535 38.3362C65.0076 38.0769 64.9846 37.8056 64.9846 37.5224C64.9846 37.141 65.0229 36.8206 65.0994 36.5614C65.176 36.3031 65.2736 36.0919 65.3924 35.9277C65.512 35.7636 65.6457 35.6475 65.7937 35.5794C65.9409 35.5113 66.0859 35.4773 66.2288 35.4773C66.3389 35.4773 66.4438 35.4943 66.5437 35.5283C66.6428 35.5624 66.7335 35.6114 66.8159 35.6755V36.4518C66.759 36.3637 66.6924 36.2926 66.6158 36.2386C66.5393 36.1855 66.4566 36.159 66.3676 36.159C66.2605 36.159 66.1632 36.1965 66.0757 36.2716C65.989 36.3477 65.9154 36.4493 65.8549 36.5764C65.7944 36.7035 65.7481 36.8527 65.716 37.0239C65.684 37.195 65.6679 37.3757 65.6679 37.5659C65.6679 37.7621 65.6847 37.9468 65.7182 38.12C65.7525 38.2931 65.8006 38.4433 65.8625 38.5704C65.9252 38.6975 65.9999 38.7991 66.0867 38.8752C66.1741 38.9513 66.2711 38.9893 66.3775 38.9893C66.4664 38.9893 66.5466 38.9633 66.618 38.9113C66.6894 38.8602 66.7554 38.7931 66.8159 38.7101V39.4728C66.7306 39.5309 66.6326 39.5809 66.5218 39.623C66.4117 39.664 66.2944 39.6845 66.1698 39.6845ZM67.1034 35.5133H67.6807L67.6752 39.6485C67.6606 39.9468 67.6169 40.2011 67.544 40.4113C67.4711 40.6215 67.3778 40.7947 67.2641 40.9308C67.1504 41.0679 67.0189 41.166 66.8695 41.2251C66.7193 41.2832 66.559 41.3122 66.3884 41.3122C66.1894 41.3122 65.993 41.2646 65.7991 41.1695C65.6045 41.0745 65.4435 40.9143 65.3159 40.6891L65.6887 40.183C65.7244 40.2661 65.77 40.3347 65.8254 40.3888C65.8808 40.4428 65.9376 40.4844 65.9959 40.5134C66.055 40.5424 66.1136 40.5634 66.1719 40.5764C66.231 40.5885 66.2835 40.5945 66.3294 40.5945C66.5502 40.5945 66.723 40.5064 66.8476 40.3302C66.9722 40.154 67.0346 39.8537 67.0346 39.4293V35.9307L67.1034 35.5133ZM68.7215 35.5133H69.2977L69.3665 35.9307V39.6485H68.7215V35.5133ZM70.9627 35.9683C71.0232 36.0514 71.0706 36.148 71.1049 36.2581C71.1384 36.3682 71.1632 36.4828 71.1792 36.6019C71.1952 36.722 71.2051 36.8432 71.2087 36.9653C71.2124 37.0874 71.2142 37.207 71.2142 37.3242V39.5014V39.6485H70.5626V37.3977C70.5626 37.2316 70.5575 37.0729 70.5473 36.9217C70.5364 36.7696 70.5112 36.635 70.4719 36.5178C70.4325 36.4007 70.3793 36.3091 70.3122 36.2431C70.2445 36.177 70.1501 36.144 70.0291 36.144C69.9795 36.144 69.9128 36.155 69.829 36.177C69.7452 36.199 69.6643 36.2346 69.5863 36.2836V35.719C69.6818 35.65 69.7856 35.5914 69.8979 35.5434C70.0101 35.4943 70.1198 35.4698 70.227 35.4698C70.3866 35.4698 70.5218 35.5148 70.6326 35.6049C70.7426 35.695 70.8527 35.8161 70.9627 35.9683ZM73.5035 36.1665V35.4773C73.696 35.5013 73.8694 35.5719 74.0239 35.689C74.1792 35.8061 74.3118 35.9578 74.4219 36.144C74.5327 36.3301 74.6172 36.5429 74.6756 36.7821C74.7346 37.0213 74.7641 37.2706 74.7641 37.5299C74.7641 37.647 74.7586 37.7641 74.7477 37.8812H72.9164V37.2371H74.1497C74.1497 37.1099 74.1347 36.9873 74.1049 36.8692C74.0742 36.7521 74.0298 36.6435 73.9715 36.5434C73.9124 36.4433 73.8439 36.3592 73.7659 36.2911C73.6872 36.222 73.5998 36.1805 73.5035 36.1665ZM73.4828 38.9593C73.5221 38.9593 73.571 38.9533 73.6293 38.9413C73.6883 38.9293 73.7506 38.9073 73.8162 38.8752C73.8818 38.8432 73.9478 38.8027 74.0141 38.7536C74.0797 38.7046 74.1373 38.646 74.1869 38.5779L74.4219 39.0689C74.3046 39.2691 74.1675 39.4208 74.0108 39.5239C73.8541 39.627 73.6548 39.6785 73.4128 39.6785C73.2175 39.6785 73.0342 39.6235 72.8629 39.5134C72.6923 39.4033 72.5466 39.2526 72.4256 39.0614C72.3046 38.8712 72.2084 38.649 72.1369 38.3947C72.0662 38.1405 72.0309 37.8667 72.0309 37.5734C72.0309 37.2951 72.0637 37.0314 72.1293 36.7821C72.1949 36.5329 72.2849 36.3141 72.3993 36.1259C72.513 35.9378 72.6453 35.7851 72.7962 35.668C72.9478 35.5499 73.1107 35.4838 73.2849 35.4698V36.174C73.1537 36.208 73.0451 36.2811 72.9591 36.3932C72.8738 36.5053 72.8071 36.6335 72.759 36.7776C72.7109 36.9217 72.677 37.0699 72.6573 37.2221C72.6384 37.3732 72.6289 37.5028 72.6289 37.6109C72.6289 37.8011 72.6457 37.9783 72.6792 38.1425C72.7127 38.3056 72.7652 38.4473 72.8366 38.5674C72.9081 38.6865 72.9963 38.7816 73.1012 38.8527C73.2062 38.9238 73.3334 38.9593 73.4828 38.9593ZM75.6497 36.225V35.5133H77.9401V36.225L76.392 38.8197L76.2849 38.9368H77.9401V39.6485H75.6497V38.9368L77.1978 36.3422L77.3049 36.225H75.6497ZM80.9609 33.9517V38.3872C80.9609 38.5534 80.9769 38.684 81.009 38.7791C81.041 38.8752 81.0855 38.9463 81.1424 38.9923C81.1992 39.0384 81.2641 39.0689 81.337 39.0839C81.4098 39.099 81.4889 39.1065 81.5742 39.1065V39.6485C81.5283 39.6585 81.4805 39.666 81.431 39.671C81.3916 39.676 81.3453 39.6795 81.2921 39.6815C81.2382 39.6835 81.1846 39.6845 81.1314 39.6845C81.0782 39.6845 81.025 39.6825 80.9718 39.6785C80.9179 39.6735 80.8698 39.666 80.8275 39.656C80.7065 39.622 80.6121 39.5484 80.5443 39.4353C80.4765 39.3232 80.4248 39.1976 80.3891 39.0584C80.3541 38.9193 80.3319 38.7836 80.3224 38.6515C80.3136 38.5194 80.3093 38.4168 80.3093 38.3437V38.2551V33.9517H80.9609ZM83.6558 36.1665V35.4773C83.8482 35.5013 84.0221 35.5719 84.1773 35.689C84.3318 35.8061 84.4641 35.9578 84.5742 36.144C84.685 36.3301 84.7695 36.5429 84.8278 36.7821C84.8869 37.0213 84.9164 37.2706 84.9164 37.5299C84.9164 37.647 84.9109 37.7641 84.9 37.8812H83.0687V37.2371H84.302C84.302 37.1099 84.287 36.9873 84.2571 36.8692C84.2265 36.7521 84.1821 36.6435 84.1238 36.5434C84.0647 36.4433 83.9962 36.3592 83.9182 36.2911C83.8395 36.222 83.752 36.1805 83.6558 36.1665ZM83.6351 38.9593C83.6744 38.9593 83.7232 38.9533 83.7816 38.9413C83.8406 38.9293 83.9029 38.9073 83.9685 38.8752C84.0341 38.8432 84.1001 38.8027 84.1664 38.7536C84.232 38.7046 84.2896 38.646 84.3391 38.5779L84.5742 39.0689C84.4568 39.2691 84.3198 39.4208 84.1631 39.5239C84.0071 39.627 83.8078 39.6785 83.5651 39.6785C83.3697 39.6785 83.1868 39.6235 83.0163 39.5134C82.845 39.4033 82.6988 39.2526 82.5778 39.0614C82.4569 38.8712 82.3606 38.649 82.2892 38.3947C82.2185 38.1405 82.1832 37.8667 82.1832 37.5734C82.1832 37.2951 82.216 37.0314 82.2816 36.7821C82.3472 36.5329 82.4372 36.3141 82.5516 36.1259C82.6653 35.9378 82.798 35.7851 82.9496 35.668C83.1004 35.5499 83.263 35.4838 83.4372 35.4698V36.174C83.306 36.208 83.1974 36.2811 83.1114 36.3932C83.0261 36.5053 82.9594 36.6335 82.9113 36.7776C82.8632 36.9217 82.8297 37.0699 82.8107 37.2221C82.791 37.3732 82.7812 37.5028 82.7812 37.6109C82.7812 37.8011 82.798 37.9783 82.8315 38.1425C82.865 38.3056 82.9175 38.4473 82.9889 38.5674C83.0603 38.6865 83.1485 38.7816 83.2535 38.8527C83.3585 38.9238 83.4856 38.9593 83.6351 38.9593ZM88.1241 36.1139V38.3947C88.1241 38.5609 88.1401 38.6905 88.1722 38.7836C88.2043 38.8767 88.2495 38.9473 88.3078 38.9953C88.3668 39.0444 88.4328 39.0749 88.5057 39.0869C88.5785 39.1 88.6558 39.1065 88.7374 39.1065V39.6485C88.6915 39.6585 88.6452 39.666 88.5986 39.671C88.56 39.676 88.5129 39.6795 88.4576 39.6815C88.4022 39.6835 88.3479 39.6845 88.2947 39.6845C88.2414 39.6845 88.1871 39.6825 88.1318 39.6785C88.0771 39.6735 88.0301 39.666 87.9907 39.656C87.8697 39.627 87.7753 39.5549 87.7076 39.4398C87.6398 39.3247 87.5891 39.1976 87.5556 39.0584C87.5213 38.9193 87.4998 38.7836 87.4911 38.6515C87.4823 38.5194 87.478 38.4168 87.478 38.3437V36.1139H87.0833V35.5133H87.478V34.3406H88.1241V35.5133H88.6041V36.1139H88.1241ZM90.8945 36.1665V35.4773C91.0862 35.5013 91.2597 35.5719 91.4149 35.689C91.5694 35.8061 91.7021 35.9578 91.8129 36.144C91.9229 36.3301 92.0075 36.5429 92.0665 36.7821C92.1248 37.0213 92.154 37.2706 92.154 37.5299C92.154 37.647 92.1489 37.7641 92.1387 37.8812H90.3074V37.2371H91.5406C91.5406 37.1099 91.5253 36.9873 91.4947 36.8692C91.4648 36.7521 91.4204 36.6435 91.3613 36.5434C91.303 36.4433 91.2345 36.3592 91.1558 36.2911C91.0778 36.222 90.9907 36.1805 90.8945 36.1665ZM90.8726 38.9593C90.912 38.9593 90.9612 38.9533 91.0202 38.9413C91.0785 38.9293 91.1405 38.9073 91.2061 38.8752C91.2724 38.8432 91.3384 38.8027 91.404 38.7536C91.4696 38.7046 91.5275 38.646 91.5778 38.5779L91.8129 39.0689C91.6955 39.2691 91.5585 39.4208 91.4018 39.5239C91.2451 39.627 91.0457 39.6785 90.8037 39.6785C90.6077 39.6785 90.4244 39.6235 90.2538 39.5134C90.0833 39.4033 89.9371 39.2526 89.8154 39.0614C89.6944 38.8712 89.5986 38.649 89.5279 38.3947C89.4565 38.1405 89.4207 37.8667 89.4207 37.5734C89.4207 37.2951 89.4535 37.0314 89.5191 36.7821C89.5855 36.5329 89.6755 36.3141 89.7892 36.1259C89.9029 35.9378 90.0355 35.7851 90.1871 35.668C90.338 35.5499 90.5009 35.4838 90.6758 35.4698V36.174C90.5439 36.208 90.4353 36.2811 90.35 36.3932C90.2648 36.5053 90.1981 36.6335 90.15 36.7776C90.1019 36.9217 90.068 37.0699 90.0483 37.2221C90.0286 37.3732 90.0188 37.5028 90.0188 37.6109C90.0188 37.8011 90.0355 37.9783 90.0691 38.1425C90.1033 38.3056 90.1558 38.4473 90.2265 38.5674C90.2979 38.6865 90.3861 38.7816 90.4911 38.8527C90.596 38.9238 90.7232 38.9593 90.8726 38.9593ZM93.0395 35.5133H93.6222L93.6911 35.9383V39.6485H93.0395V35.5133ZM96.1412 35.4698C96.2622 35.4698 96.3762 35.5028 96.4834 35.5689C96.5898 35.6349 96.6831 35.729 96.7633 35.8512C96.8434 35.9733 96.9058 36.1184 96.9502 36.2866C96.9947 36.4558 97.0169 36.638 97.0169 36.8332V39.6485H96.3762V37.3977C96.3762 37.2316 96.3755 37.0739 96.3741 36.9247C96.3719 36.7756 96.3602 36.6425 96.3391 36.5253C96.3179 36.4082 96.2833 36.3166 96.2352 36.2506C96.1871 36.1845 96.1131 36.1515 96.0133 36.1515C95.9885 36.1515 95.9353 36.159 95.8537 36.174C95.7713 36.188 95.6769 36.2295 95.5705 36.2986V35.719C95.6667 35.6409 95.7644 35.5799 95.8635 35.5358C95.9633 35.4918 96.0559 35.4698 96.1412 35.4698ZM95.2185 36.0343C95.2607 36.1224 95.2917 36.2165 95.3114 36.3166C95.3311 36.4167 95.3435 36.5203 95.3486 36.6274C95.3544 36.7356 95.3562 36.8467 95.354 36.9608C95.3526 37.0759 95.3518 37.197 95.3518 37.3242V39.6485H94.7057V37.3977C94.7057 37.2316 94.7057 37.0739 94.7057 36.9247C94.7057 36.7756 94.6951 36.6425 94.674 36.5253C94.6521 36.4082 94.6164 36.3166 94.5669 36.2506C94.5173 36.1845 94.4444 36.1515 94.3482 36.1515C94.3052 36.1515 94.2418 36.1625 94.158 36.1845C94.0749 36.2065 93.9921 36.2446 93.9098 36.2986V35.719C93.9958 35.65 94.0876 35.5939 94.1853 35.5509C94.283 35.5068 94.3799 35.4848 94.4761 35.4848C94.6401 35.4848 94.7779 35.5308 94.8894 35.6229C95.0016 35.716 95.1113 35.8532 95.2185 36.0343ZM97.9353 35.5133H98.5169L98.5858 35.9307V41.2762H97.9353V35.5133ZM100.567 36.7671C100.61 36.9923 100.631 37.2441 100.631 37.5224C100.631 37.8006 100.607 38.0709 100.559 38.3332C100.511 38.5944 100.438 38.8252 100.339 39.0254C100.242 39.2256 100.119 39.3857 99.9721 39.5059C99.8241 39.625 99.6503 39.6845 99.4506 39.6845C99.3267 39.6845 99.2086 39.665 99.0963 39.626C98.9841 39.5869 98.8872 39.5359 98.8055 39.4728V38.7101C98.9229 38.9003 99.0668 38.9953 99.2374 38.9953C99.3445 38.9953 99.4415 38.9588 99.5282 38.8857C99.6157 38.8127 99.6904 38.7136 99.7523 38.5884C99.815 38.4643 99.8642 38.3157 99.8999 38.1425C99.9349 37.9683 99.9524 37.7836 99.9524 37.5884C99.9524 37.3972 99.9367 37.2165 99.9054 37.0464C99.8733 36.8752 99.8278 36.7235 99.7687 36.5914C99.7097 36.4593 99.6386 36.3542 99.5555 36.2761C99.4717 36.198 99.3748 36.159 99.2647 36.159C99.1721 36.159 99.0876 36.1845 99.0111 36.2356C98.9345 36.2866 98.866 36.3587 98.8055 36.4518V35.6755C98.8872 35.6114 98.9779 35.5624 99.0778 35.5283C99.1769 35.4943 99.28 35.4773 99.3872 35.4773C99.5045 35.4773 99.6237 35.4993 99.7447 35.5434C99.8657 35.5874 99.9786 35.6605 100.084 35.7626C100.189 35.8657 100.284 36.0003 100.369 36.1665C100.455 36.3327 100.521 36.5329 100.567 36.7671ZM101.282 36.6935C101.282 36.5083 101.307 36.3412 101.356 36.192C101.406 36.0429 101.476 35.9157 101.565 35.8106C101.654 35.7055 101.754 35.6224 101.867 35.5614C101.979 35.5003 102.096 35.4623 102.217 35.4473V36.18C102.124 36.205 102.052 36.2566 102 36.3347C101.948 36.4127 101.922 36.5228 101.922 36.665C101.922 36.7821 101.95 36.8762 102.006 36.9473C102.06 37.0173 102.131 37.0794 102.217 37.1335V37.9188C102.156 37.8937 102.095 37.8657 102.032 37.8347C101.97 37.8026 101.909 37.7671 101.848 37.7281C101.659 37.5909 101.518 37.4468 101.423 37.2956C101.329 37.1435 101.282 36.9428 101.282 36.6935ZM103.273 35.7776L103.065 36.3857C102.969 36.3176 102.866 36.2666 102.758 36.2325C102.649 36.1975 102.542 36.1755 102.435 36.1665V35.4397C102.595 35.4498 102.742 35.4803 102.878 35.5313C103.014 35.5834 103.145 35.6655 103.273 35.7776ZM101.293 39.3182L101.565 38.7251C101.636 38.7931 101.72 38.8567 101.819 38.9158C101.916 38.9738 102.04 39.0029 102.189 39.0029H102.217V39.6845C102.127 39.6845 102.045 39.681 101.971 39.674C101.896 39.667 101.822 39.65 101.749 39.623C101.676 39.596 101.602 39.5579 101.528 39.5089C101.453 39.4598 101.374 39.3963 101.293 39.3182ZM102.435 38.0284V37.2506C102.542 37.2996 102.65 37.3537 102.761 37.4127C102.871 37.4708 102.971 37.5439 103.062 37.632C103.153 37.7201 103.228 37.8292 103.287 37.9593C103.345 38.0884 103.374 38.2506 103.374 38.4458C103.374 38.637 103.35 38.8032 103.3 38.9443C103.25 39.0864 103.183 39.2086 103.1 39.3107C103.016 39.4138 102.917 39.4949 102.804 39.5539C102.689 39.612 102.566 39.651 102.435 39.671V38.9743C102.556 38.9443 102.65 38.8917 102.715 38.8167C102.781 38.7406 102.814 38.639 102.814 38.5119C102.814 38.3847 102.777 38.2856 102.704 38.2146C102.631 38.1445 102.542 38.0824 102.435 38.0284ZM104.48 38.629C104.586 38.629 104.677 38.6805 104.752 38.7836C104.826 38.8857 104.863 39.0079 104.863 39.15C104.863 39.174 104.862 39.2316 104.858 39.3227C104.854 39.4128 104.838 39.5224 104.808 39.6515C104.777 39.7816 104.728 39.9223 104.661 40.0734C104.593 40.2256 104.494 40.3772 104.362 40.5284H104.111C104.182 40.4353 104.241 40.3377 104.287 40.2356C104.333 40.1325 104.37 40.0394 104.399 39.9563C104.431 39.8632 104.458 39.7706 104.48 39.6785C104.373 39.6785 104.283 39.627 104.21 39.5239C104.137 39.4208 104.1 39.2962 104.1 39.15C104.1 39.0029 104.137 38.8792 104.21 38.7791C104.283 38.679 104.373 38.629 104.48 38.629ZM107.047 36.6935C107.047 36.5083 107.072 36.3412 107.121 36.192C107.171 36.0429 107.24 35.9157 107.33 35.8106C107.419 35.7055 107.519 35.6224 107.631 35.5614C107.743 35.5003 107.859 35.4623 107.98 35.4473V36.18C107.888 36.205 107.816 36.2566 107.764 36.3347C107.713 36.4127 107.687 36.5228 107.687 36.665C107.687 36.7821 107.715 36.8762 107.769 36.9473C107.825 37.0173 107.895 37.0794 107.98 37.1335V37.9188C107.92 37.8937 107.859 37.8657 107.797 37.8347C107.734 37.8026 107.672 37.7671 107.612 37.7281C107.424 37.5909 107.283 37.4468 107.188 37.2956C107.094 37.1435 107.047 36.9428 107.047 36.6935ZM109.038 35.7776L108.83 36.3857C108.734 36.3176 108.631 36.2666 108.523 36.2325C108.414 36.1975 108.306 36.1755 108.199 36.1665V35.4397C108.359 35.4498 108.507 35.4803 108.643 35.5313C108.778 35.5834 108.909 35.6655 109.038 35.7776ZM107.057 39.3182L107.33 38.7251C107.401 38.7931 107.485 38.8567 107.582 38.9158C107.681 38.9738 107.805 39.0029 107.954 39.0029H107.98V39.6845C107.891 39.6845 107.81 39.681 107.736 39.674C107.66 39.667 107.586 39.65 107.514 39.623C107.441 39.596 107.367 39.5579 107.292 39.5089C107.217 39.4598 107.139 39.3963 107.057 39.3182ZM108.199 38.0284V37.2506C108.306 37.2996 108.415 37.3537 108.525 37.4127C108.636 37.4708 108.736 37.5439 108.827 37.632C108.918 37.7201 108.992 37.8292 109.051 37.9593C109.11 38.0884 109.139 38.2506 109.139 38.4458C109.139 38.637 109.114 38.8032 109.064 38.9443C109.014 39.0864 108.948 39.2086 108.864 39.3107C108.781 39.4138 108.682 39.4949 108.568 39.5539C108.454 39.612 108.331 39.651 108.199 39.671V38.9743C108.32 38.9443 108.414 38.8917 108.48 38.8167C108.546 38.7406 108.578 38.639 108.578 38.5119C108.578 38.3847 108.542 38.2856 108.469 38.2146C108.396 38.1445 108.306 38.0824 108.199 38.0284ZM110.5 38.4022C110.5 38.6225 110.533 38.7861 110.599 38.8932C110.664 39.0004 110.76 39.0639 110.884 39.0839V39.6785C110.87 39.6825 110.847 39.6845 110.815 39.6845C110.694 39.6845 110.578 39.6625 110.465 39.6185C110.353 39.5754 110.254 39.5049 110.169 39.4068C110.084 39.3087 110.017 39.179 109.969 39.0179C109.921 38.8567 109.897 38.659 109.897 38.4248C109.897 38.1995 109.932 38.0048 110.001 37.8407C110.07 37.6775 110.159 37.5434 110.268 37.4383C110.376 37.3332 110.5 37.2551 110.639 37.204C110.778 37.152 110.918 37.126 111.06 37.126H111.295V37.647H111.178C111.107 37.647 111.032 37.657 110.954 37.677C110.875 37.696 110.802 37.7326 110.734 37.7866C110.667 37.8397 110.612 37.9168 110.567 38.0179C110.523 38.118 110.5 38.2461 110.5 38.4022ZM112.16 38.3662V38.4248C112.16 38.4638 112.162 38.5209 112.166 38.5959C112.169 38.672 112.176 38.7491 112.187 38.8272C112.198 38.9053 112.214 38.9763 112.238 39.0404C112.261 39.1035 112.292 39.145 112.331 39.165L112.16 39.656C112.114 39.656 112.065 39.6415 112.014 39.6125C111.962 39.5824 111.912 39.5409 111.864 39.4878C111.816 39.4338 111.775 39.3737 111.741 39.3077C111.708 39.2416 111.682 39.1695 111.664 39.0914C111.628 39.2136 111.558 39.3222 111.453 39.4173C111.348 39.5124 111.231 39.5819 111.103 39.626V39.0689C111.189 39.0449 111.266 38.9973 111.336 38.9263C111.405 38.8552 111.464 38.7711 111.514 38.674V37.126C111.514 36.8867 111.505 36.696 111.488 36.5539C111.47 36.4127 111.44 36.3091 111.397 36.2431C111.354 36.177 111.301 36.1355 111.24 36.1184C111.177 36.1014 111.103 36.0929 111.018 36.0929C110.94 36.0929 110.866 36.1064 110.797 36.1334C110.727 36.1605 110.663 36.192 110.604 36.228C110.545 36.2651 110.494 36.3056 110.449 36.3497C110.405 36.3937 110.372 36.4277 110.351 36.4518L110.11 35.9458C110.146 35.8917 110.199 35.8366 110.271 35.7806C110.342 35.7245 110.423 35.6745 110.516 35.6304C110.608 35.5864 110.709 35.5509 110.817 35.5238C110.926 35.4978 111.039 35.4848 111.156 35.4848C111.264 35.4848 111.368 35.4993 111.469 35.5283C111.57 35.5574 111.663 35.6064 111.747 35.6755C111.831 35.7436 111.903 35.8351 111.965 35.9503C112.027 36.0644 112.071 36.207 112.097 36.3782C112.121 36.5494 112.138 36.722 112.147 36.8962C112.156 37.0694 112.16 37.2416 112.16 37.4127V38.3662ZM114.093 39.6785L113.036 35.5133H113.767L114.402 38.4533V39.6785H114.093ZM114.621 38.4533L115.262 35.5133H115.988L114.93 39.6785H114.621V38.4533ZM118.123 36.18V35.4908C118.318 35.5058 118.496 35.5709 118.656 35.686C118.817 35.8011 118.951 35.9528 119.06 36.141C119.168 36.3291 119.253 36.5479 119.313 36.7971C119.374 37.0464 119.404 37.3126 119.404 37.5959C119.404 37.8792 119.373 38.1445 119.31 38.3917C119.248 38.638 119.162 38.8527 119.051 39.0359C118.941 39.2191 118.806 39.3672 118.645 39.4803C118.486 39.5925 118.312 39.6585 118.123 39.6785V38.9743C118.301 38.9203 118.446 38.7661 118.558 38.5119C118.67 38.2576 118.726 37.9523 118.726 37.5959C118.726 37.4147 118.713 37.2446 118.686 37.0854C118.659 36.9273 118.619 36.7846 118.566 36.6575C118.512 36.5304 118.448 36.4252 118.373 36.3422C118.299 36.2591 118.215 36.205 118.123 36.18ZM116.633 37.5809C116.633 37.2976 116.663 37.0339 116.725 36.7896C116.785 36.5454 116.871 36.3311 116.983 36.147C117.095 35.9638 117.229 35.8161 117.386 35.704C117.543 35.5919 117.715 35.5233 117.904 35.4983V36.18C117.726 36.2341 117.583 36.3882 117.477 36.6425C117.37 36.8967 117.316 37.202 117.316 37.5584C117.316 37.7396 117.329 37.9107 117.356 38.0719C117.383 38.2331 117.422 38.3772 117.471 38.5043C117.521 38.6315 117.582 38.7366 117.656 38.8197C117.729 38.9028 117.812 38.9543 117.904 38.9743V39.6785C117.708 39.6585 117.532 39.5909 117.375 39.4758C117.218 39.3617 117.085 39.2116 116.975 39.0254C116.865 38.8392 116.78 38.6215 116.721 38.3722C116.662 38.123 116.633 37.8592 116.633 37.5809ZM120.871 35.5133V37.7641C120.871 37.9353 120.877 38.0954 120.888 38.2446C120.898 38.3937 120.921 38.5244 120.957 38.6365C120.992 38.7486 121.046 38.8392 121.117 38.9083C121.188 38.9763 121.282 39.0104 121.401 39.0104C121.446 39.0104 121.512 39.0009 121.597 38.9818C121.683 38.9618 121.765 38.9298 121.843 38.8857V39.4293C121.751 39.4974 121.65 39.5569 121.542 39.608C121.433 39.659 121.325 39.6845 121.219 39.6845C121.133 39.6845 121.057 39.6735 120.989 39.6515C120.922 39.6295 120.858 39.5955 120.799 39.5494C120.741 39.5034 120.685 39.4508 120.631 39.3917C120.578 39.3337 120.524 39.2676 120.471 39.1935C120.411 39.1105 120.363 39.0139 120.327 38.9038C120.291 38.7946 120.265 38.68 120.249 38.5599C120.233 38.4398 120.225 38.3187 120.223 38.1965C120.221 38.0744 120.22 37.9548 120.22 37.8377V35.5133H120.871ZM122.062 35.5133H122.714V39.6485H122.132L122.062 39.2236V35.5133ZM123.621 35.5133H124.197L124.266 35.9383V38.1815V38.1965V39.6485H123.621V35.5133ZM124.486 36.4443V35.6965C124.575 35.6284 124.681 35.5759 124.806 35.5388C124.93 35.5028 125.099 35.4848 125.312 35.4848V36.4082C125.213 36.3692 125.092 36.3472 124.949 36.3422C124.871 36.3422 124.792 36.3507 124.712 36.3677C124.632 36.3847 124.556 36.4102 124.486 36.4443ZM127.399 36.1665V35.4773C127.592 35.5013 127.765 35.5719 127.92 35.689C128.075 35.8061 128.208 35.9578 128.318 36.144C128.429 36.3301 128.513 36.5429 128.571 36.7821C128.63 37.0213 128.66 37.2706 128.66 37.5299C128.66 37.647 128.655 37.7641 128.644 37.8812H126.812V37.2371H128.046C128.046 37.1099 128.031 36.9873 128.001 36.8692C127.97 36.7521 127.926 36.6435 127.867 36.5434C127.808 36.4433 127.74 36.3592 127.662 36.2911C127.583 36.222 127.496 36.1805 127.399 36.1665ZM127.379 38.9593C127.418 38.9593 127.467 38.9533 127.525 38.9413C127.584 38.9293 127.646 38.9073 127.712 38.8752C127.778 38.8432 127.844 38.8027 127.91 38.7536C127.976 38.7046 128.033 38.646 128.083 38.5779L128.318 39.0689C128.2 39.2691 128.063 39.4208 127.907 39.5239C127.75 39.627 127.551 39.6785 127.309 39.6785C127.113 39.6785 126.93 39.6235 126.759 39.5134C126.588 39.4033 126.442 39.2526 126.321 39.0614C126.2 38.8712 126.104 38.649 126.033 38.3947C125.962 38.1405 125.927 37.8667 125.927 37.5734C125.927 37.2951 125.96 37.0314 126.025 36.7821C126.091 36.5329 126.181 36.3141 126.295 36.1259C126.409 35.9378 126.541 35.7851 126.692 35.668C126.844 35.5499 127.007 35.4838 127.181 35.4698V36.174C127.05 36.208 126.941 36.2811 126.855 36.3932C126.77 36.5053 126.703 36.6335 126.655 36.7776C126.607 36.9217 126.573 37.0699 126.553 37.2221C126.534 37.3732 126.525 37.5028 126.525 37.6109C126.525 37.8011 126.542 37.9783 126.575 38.1425C126.609 38.3056 126.661 38.4473 126.733 38.5674C126.804 38.6865 126.892 38.7816 126.997 38.8527C127.102 38.9238 127.229 38.9593 127.379 38.9593ZM129.546 36.225V35.5133H131.836V36.225L130.288 38.8197L130.181 38.9368H131.836V39.6485H129.546V38.9368L131.094 36.3422L131.201 36.225H129.546ZM134.857 33.9517V38.3872C134.857 38.5534 134.873 38.684 134.905 38.7791C134.937 38.8752 134.981 38.9463 135.038 38.9923C135.095 39.0384 135.16 39.0689 135.233 39.0839C135.306 39.099 135.385 39.1065 135.47 39.1065V39.6485C135.424 39.6585 135.376 39.666 135.327 39.671C135.287 39.676 135.241 39.6795 135.188 39.6815C135.134 39.6835 135.08 39.6845 135.027 39.6845C134.974 39.6845 134.921 39.6825 134.868 39.6785C134.814 39.6735 134.766 39.666 134.723 39.656C134.602 39.622 134.508 39.5484 134.44 39.4353C134.372 39.3232 134.321 39.1976 134.285 39.0584C134.25 38.9193 134.228 38.7836 134.218 38.6515C134.21 38.5194 134.205 38.4168 134.205 38.3437V38.2551V33.9517H134.857ZM136.634 34.2445L136.549 35.5133H136.181L136.094 34.2445H136.634ZM138.133 35.5133V39.6485H137.483V35.5133H138.133ZM138.192 34.1935C138.192 34.3406 138.155 34.4643 138.081 34.5644C138.006 34.6645 137.915 34.7145 137.809 34.7145C137.701 34.7145 137.611 34.663 137.539 34.5599C137.466 34.4578 137.429 34.3356 137.429 34.1935C137.429 34.0473 137.466 33.9227 137.541 33.8196C137.616 33.7175 137.705 33.6665 137.809 33.6665C137.915 33.6665 138.006 33.7175 138.081 33.8196C138.155 33.9227 138.192 34.0473 138.192 34.1935ZM139.041 35.5133H139.618L139.687 35.9307V39.6485H139.041V35.5133ZM141.283 35.9683C141.344 36.0514 141.391 36.148 141.424 36.2581C141.458 36.3682 141.484 36.4828 141.5 36.6019C141.516 36.722 141.525 36.8432 141.529 36.9653C141.533 37.0874 141.535 37.207 141.535 37.3242V39.5014V39.6485H140.883V37.3977C140.883 37.2316 140.877 37.0729 140.867 36.9217C140.856 36.7696 140.832 36.635 140.792 36.5178C140.753 36.4007 140.699 36.3091 140.631 36.2431C140.564 36.177 140.47 36.144 140.349 36.144C140.299 36.144 140.232 36.155 140.148 36.177C140.065 36.199 139.984 36.2346 139.906 36.2836V35.719C140.002 35.65 140.106 35.5914 140.218 35.5434C140.33 35.4943 140.44 35.4698 140.546 35.4698C140.707 35.4698 140.842 35.5148 140.952 35.6049C141.063 35.695 141.173 35.8161 141.283 35.9683ZM142.356 36.6935C142.356 36.5083 142.381 36.3412 142.431 36.192C142.481 36.0429 142.55 35.9157 142.639 35.8106C142.728 35.7055 142.828 35.6224 142.941 35.5614C143.053 35.5003 143.169 35.4623 143.29 35.4473V36.18C143.198 36.205 143.126 36.2566 143.074 36.3347C143.022 36.4127 142.996 36.5228 142.996 36.665C142.996 36.7821 143.024 36.8762 143.079 36.9473C143.135 37.0173 143.205 37.0794 143.29 37.1335V37.9188C143.23 37.8937 143.168 37.8657 143.106 37.8347C143.044 37.8026 142.982 37.7671 142.922 37.7281C142.733 37.5909 142.592 37.4468 142.498 37.2956C142.403 37.1435 142.356 36.9428 142.356 36.6935ZM144.348 35.7776L144.139 36.3857C144.043 36.3176 143.94 36.2666 143.832 36.2325C143.723 36.1975 143.615 36.1755 143.509 36.1665V35.4397C143.669 35.4498 143.817 35.4803 143.952 35.5313C144.087 35.5834 144.219 35.6655 144.348 35.7776ZM142.367 39.3182L142.639 38.7251C142.71 38.7931 142.795 38.8567 142.892 38.9158C142.99 38.9738 143.114 39.0029 143.263 39.0029H143.29V39.6845C143.201 39.6845 143.119 39.681 143.044 39.674C142.97 39.667 142.896 39.65 142.824 39.623C142.75 39.596 142.676 39.5579 142.602 39.5089C142.527 39.4598 142.448 39.3963 142.367 39.3182ZM143.509 38.0284V37.2506C143.615 37.2996 143.724 37.3537 143.835 37.4127C143.945 37.4708 144.045 37.5439 144.137 37.632C144.227 37.7201 144.302 37.8292 144.361 37.9593C144.419 38.0884 144.448 38.2506 144.448 38.4458C144.448 38.637 144.423 38.8032 144.374 38.9443C144.324 39.0864 144.258 39.2086 144.174 39.3107C144.09 39.4138 143.991 39.4949 143.877 39.5539C143.764 39.612 143.641 39.651 143.509 39.671V38.9743C143.63 38.9443 143.723 38.8917 143.789 38.8167C143.855 38.7406 143.888 38.639 143.888 38.5119C143.888 38.3847 143.852 38.2856 143.779 38.2146C143.705 38.1445 143.615 38.0824 143.509 38.0284ZM146.146 36.1139V38.3947C146.146 38.5609 146.162 38.6905 146.194 38.7836C146.226 38.8767 146.271 38.9473 146.33 38.9953C146.389 39.0444 146.455 39.0749 146.528 39.0869C146.6 39.1 146.678 39.1065 146.759 39.1065V39.6485C146.713 39.6585 146.667 39.666 146.621 39.671C146.582 39.676 146.535 39.6795 146.479 39.6815C146.424 39.6835 146.37 39.6845 146.317 39.6845C146.263 39.6845 146.209 39.6825 146.154 39.6785C146.098 39.6735 146.051 39.666 146.013 39.656C145.892 39.627 145.797 39.5549 145.729 39.4398C145.662 39.3247 145.611 39.1976 145.578 39.0584C145.543 38.9193 145.522 38.7836 145.513 38.6515C145.504 38.5194 145.5 38.4168 145.5 38.3437V36.1139H145.105V35.5133H145.5V34.3406H146.146V35.5133H146.626V36.1139H146.146ZM148.041 38.4022C148.041 38.6225 148.074 38.7861 148.139 38.8932C148.205 39.0004 148.301 39.0639 148.426 39.0839V39.6785C148.411 39.6825 148.388 39.6845 148.356 39.6845C148.235 39.6845 148.118 39.6625 148.006 39.6185C147.893 39.5754 147.795 39.5049 147.709 39.4068C147.624 39.3087 147.557 39.179 147.509 39.0179C147.461 38.8567 147.437 38.659 147.437 38.4248C147.437 38.1995 147.472 38.0048 147.541 37.8407C147.611 37.6775 147.7 37.5434 147.809 37.4383C147.917 37.3332 148.04 37.2551 148.18 37.204C148.318 37.152 148.459 37.126 148.602 37.126H148.836V37.647H148.719C148.647 37.647 148.572 37.657 148.494 37.677C148.416 37.696 148.344 37.7326 148.276 37.7866C148.208 37.8397 148.152 37.9168 148.107 38.0179C148.063 38.118 148.041 38.2461 148.041 38.4022ZM149.701 38.3662V38.4248C149.701 38.4638 149.703 38.5209 149.706 38.5959C149.709 38.672 149.717 38.7491 149.728 38.8272C149.739 38.9053 149.755 38.9763 149.778 39.0404C149.801 39.1035 149.833 39.145 149.872 39.165L149.701 39.656C149.655 39.656 149.606 39.6415 149.554 39.6125C149.502 39.5824 149.453 39.5409 149.405 39.4878C149.357 39.4338 149.316 39.3737 149.282 39.3077C149.248 39.2416 149.222 39.1695 149.204 39.0914C149.169 39.2136 149.099 39.3222 148.994 39.4173C148.888 39.5124 148.772 39.5819 148.644 39.626V39.0689C148.729 39.0449 148.807 38.9973 148.876 38.9263C148.945 38.8552 149.005 38.7711 149.055 38.674V37.126C149.055 36.8867 149.046 36.696 149.028 36.5539C149.01 36.4127 148.98 36.3091 148.937 36.2431C148.895 36.177 148.842 36.1355 148.78 36.1184C148.718 36.1014 148.644 36.0929 148.559 36.0929C148.48 36.0929 148.406 36.1064 148.337 36.1334C148.268 36.1605 148.204 36.192 148.145 36.228C148.086 36.2651 148.035 36.3056 147.99 36.3497C147.946 36.3937 147.913 36.4277 147.891 36.4518L147.651 35.9458C147.686 35.8917 147.74 35.8366 147.811 35.7806C147.883 35.7245 147.965 35.6745 148.057 35.6304C148.15 35.5864 148.25 35.5509 148.358 35.5238C148.466 35.4978 148.58 35.4848 148.698 35.4848C148.804 35.4848 148.908 35.4993 149.009 35.5283C149.111 35.5574 149.203 35.6064 149.287 35.6755C149.371 35.7436 149.444 35.8351 149.506 35.9503C149.568 36.0644 149.612 36.207 149.637 36.3782C149.662 36.5494 149.678 36.722 149.687 36.8962C149.697 37.0694 149.701 37.2416 149.701 37.4127V38.3662ZM150.72 35.5133H151.297L151.366 35.9307V39.6485H150.72V35.5133ZM152.963 35.9683C153.023 36.0514 153.07 36.148 153.104 36.2581C153.137 36.3682 153.162 36.4828 153.178 36.6019C153.194 36.722 153.204 36.8432 153.208 36.9653C153.211 37.0874 153.213 37.207 153.213 37.3242V39.5014V39.6485H152.561V37.3977C152.561 37.2316 152.556 37.0729 152.546 36.9217C152.535 36.7696 152.51 36.635 152.471 36.5178C152.432 36.4007 152.379 36.3091 152.311 36.2431C152.243 36.177 152.149 36.144 152.028 36.144C151.978 36.144 151.912 36.155 151.828 36.177C151.744 36.199 151.663 36.2346 151.585 36.2836V35.719C151.681 35.65 151.786 35.5914 151.898 35.5434C152.009 35.4943 152.119 35.4698 152.226 35.4698C152.386 35.4698 152.521 35.5148 152.631 35.6049C152.741 35.695 152.852 35.8161 152.963 35.9683ZM154.963 36.1139V38.3947C154.963 38.5609 154.979 38.6905 155.012 38.7836C155.044 38.8767 155.089 38.9473 155.148 38.9953C155.206 39.0444 155.272 39.0749 155.346 39.0869C155.419 39.1 155.496 39.1065 155.578 39.1065V39.6485C155.532 39.6585 155.486 39.666 155.439 39.671C155.4 39.676 155.353 39.6795 155.298 39.6815C155.243 39.6835 155.188 39.6845 155.135 39.6845C155.081 39.6845 155.027 39.6825 154.972 39.6785C154.917 39.6735 154.869 39.666 154.83 39.656C154.709 39.627 154.615 39.5549 154.548 39.4398C154.48 39.3247 154.429 39.1976 154.395 39.0584C154.361 38.9193 154.34 38.7836 154.331 38.6515C154.323 38.5194 154.318 38.4168 154.318 38.3437V36.1139H153.923V35.5133H154.318V34.3406H154.963V35.5133H155.444V36.1139H154.963Z" fill="#D5B263"/>
</g>
</g>
</g>
</g>
<g clip-path="url(#clip9_2_11)">
<g clip-path="url(#clip10_2_11)">
<path d="M16.6937 45.9996C16.6937 45.9996 13.9296 46.1278 13.6802 41.8729L11.6624 28.8307C11.6624 28.8307 3.37006 27.352 2.94711 19.8888C2.94711 19.8888 2.25001 12.8315 9.29782 10.1065C9.29782 10.1065 10.3692 9.24081 14.0302 9.29106C14.0302 9.29106 17.3927 3.61006 24.0409 4.04363C24.0409 4.04363 29.1724 3.17744 33.9034 9.16376C33.9034 9.16376 40.5521 8.67994 43.8898 14.717C43.8898 14.717 47.7501 21.1622 41.2993 26.5623C41.2993 26.5623 39.6805 28.0397 36.6923 28.7532L35.0244 42.7894C35.0244 42.7894 35.1226 45.1583 33.2563 45.6172L33.3555 24.6266C33.3555 24.6266 33.057 22.8942 31.4135 22.919C31.4135 22.919 29.8438 22.8434 29.521 24.6266V37.0586H30.8155V45.9996H26.7068V32.2682C26.7068 32.2682 28.0514 32.0471 28.2255 30.744V23.4038C28.2255 23.4038 28.3368 22.8554 27.8367 22.8855C27.3351 22.9157 27.4034 23.0865 27.4034 23.378C27.4034 23.669 27.4034 28.6718 27.4034 28.6718H26.6179V23.3383C26.6179 23.3383 26.5983 22.8559 26.2455 22.9569C26.2455 22.9569 25.8431 22.8659 25.8235 23.3483C25.8038 23.8298 25.8235 28.6316 25.8235 28.6316H25.038V23.3876C25.038 23.3876 25.0964 22.876 24.6941 22.886C24.2913 22.8961 24.2613 23.2076 24.2613 23.4287C24.2613 23.6493 24.2613 28.6422 24.2613 28.6422H23.5057V23.187C23.5057 23.187 23.5446 22.8257 23.1123 22.876C22.6814 22.9267 22.6902 23.177 22.6902 23.2875C22.6902 23.3986 22.6902 30.6521 22.6902 30.6521C22.6902 30.6521 22.5625 32.0175 24.2618 32.1577V45.9996H19.0358V33.2029C19.0358 33.2029 22.0614 31.514 21.747 28.1397C21.747 28.1397 21.9828 24.0006 18.3677 22.9564C18.3677 22.9564 14.5968 22.7147 14.047 27.5367C14.047 27.5367 13.6536 31.7145 16.6399 33.1225L16.6937 45.9996Z" fill="#D5B263"/>
</g>
</g>
</g>
</g>
</g>
<defs>
<clipPath id="clip0_2_11">
<rect width="160" height="50" fill="white"/>
</clipPath>
<clipPath id="clip1_2_11">
<rect width="153.444" height="42" fill="white" transform="translate(2.9281 4)"/>
</clipPath>
<clipPath id="clip2_2_11">
<rect width="153.444" height="42" fill="white" transform="translate(2.9281 4)"/>
</clipPath>
<clipPath id="clip3_2_11">
<rect width="101" height="25" fill="white" transform="translate(55 16)"/>
</clipPath>
<clipPath id="clip4_2_11">
<rect width="101" height="25" fill="white" transform="translate(55 16)"/>
</clipPath>
<clipPath id="clip5_2_11">
<rect width="101" height="16.6619" fill="white" transform="translate(55 16)"/>
</clipPath>
<clipPath id="clip6_2_11">
<rect width="101" height="16.6619" fill="white" transform="translate(55 16)"/>
</clipPath>
<clipPath id="clip7_2_11">
<rect width="105.599" height="7.84401" fill="white" transform="translate(58.0436 33.5673)"/>
</clipPath>
<clipPath id="clip8_2_11">
<rect width="97.5323" height="7.64615" fill="white" transform="translate(58.0436 33.6663)"/>
</clipPath>
<clipPath id="clip9_2_11">
<rect width="42.1075" height="42" fill="white" transform="translate(2.9281 4)"/>
</clipPath>
<clipPath id="clip10_2_11">
<rect width="42.1075" height="42" fill="white" transform="translate(2.9281 4)"/>
</clipPath>
</defs>
</svg>
