<svg width="206" height="64" viewBox="0 0 206 64" fill="none" xmlns="http://www.w3.org/2000/svg">
<path fill-rule="evenodd" clip-rule="evenodd" d="M34.5132 49.597C31.684 51.1297 28.4436 52 25 52C13.9543 52 5 43.0457 5 32C5 20.9543 13.9543 12 25 12C28.0521 12 30.9446 12.6837 33.5326 13.9062C33.3663 14.1188 33.209 14.3432 33.0619 14.5793C32.37 15.6897 31.8253 17.0318 31.47 18.4633C29.5111 17.5253 27.3169 17 25 17C16.7157 17 10 23.7157 10 32C10 40.2843 16.7157 47 25 47C29.2915 47 33.162 45.1978 35.8961 42.309C35.5961 43.4152 35.1892 44.6031 34.6373 45.9318C34.2262 46.809 34.1122 47.4488 34.1122 48.4602C34.1122 48.8663 34.2596 49.247 34.5132 49.597ZM31.0138 21.6134C30.8567 25.2765 32.0306 28.8663 35.1625 30.2555C36.135 31.128 36.7379 32.2124 36.7379 33.6199C36.7379 33.9224 36.7379 34.2186 36.7371 34.5099C35.5832 39.9324 30.7666 44 25 44C18.3726 44 13 38.6274 13 32C13 25.3726 18.3726 20 25 20C27.1914 20 29.2456 20.5874 31.0138 21.6134Z" fill="#E4C590"/>
<path d="M43.7607 29.8781C48.7982 27.5576 48.5779 20.151 45.8104 15.539C42.9996 10.8544 38.7943 10.7863 35.9427 15.539C33.1901 20.126 32.9363 27.5491 37.9923 29.8781C38.9183 30.7408 39.6263 32.4349 39.6263 33.8266C39.6263 38.0162 39.8838 41.3087 37.7001 46.1394C37.3086 47.0068 37.1257 47.6631 37.1257 48.2062C37.1257 50.2981 38.8081 52 40.8765 52C42.9449 52 44.6273 50.2981 44.6273 48.2062C44.6273 47.6631 44.4445 47.0068 44.053 46.1394C41.8389 41.2417 42.1268 37.7222 42.1268 33.8266C42.1268 32.4349 42.8348 30.7408 43.7607 29.8781Z" fill="#E4C590"/>
<g clip-path="url(#clip0_2_43)">
<g clip-path="url(#clip1_2_43)">
<g clip-path="url(#clip2_2_43)">
<g clip-path="url(#clip3_2_43)">
<path d="M58.0684 13.4629C58.2456 13.7875 58.3341 14.2842 58.3341 14.953C58.3341 15.6217 58.3167 16.1655 58.2817 16.5843C58.2493 16.9998 58.1994 17.4007 58.1321 17.787C57.9874 18.6603 57.784 19.3193 57.5221 19.7641C57.2951 18.235 57.002 17.141 56.6427 16.482C56.266 15.8165 55.7746 15.4837 55.1684 15.4837C54.5622 15.4837 54.0882 15.6347 53.7464 15.9366C53.4071 16.2353 53.1452 16.6313 52.9606 17.1248C52.6562 17.9396 52.504 19.1424 52.504 20.7331C52.504 22.3206 52.6425 23.775 52.9194 25.0963C53.1963 26.4143 53.5905 27.5489 54.1019 28.5001C55.1821 30.5226 56.5866 31.5338 58.3154 31.5338C58.2905 31.8909 58.147 32.1993 57.8851 32.4591C57.8053 32.5402 57.7204 32.5873 57.6306 32.6003C55.4203 32.6003 53.6179 31.5436 52.2234 29.4302C50.7415 27.1772 50.0006 24.1094 50.0006 20.2267C50.0006 18.1977 50.4571 16.6719 51.3702 15.6493C52.181 14.7468 53.2899 14.2956 54.6969 14.2956L56.2236 14.3199C56.9421 14.3199 57.4473 14.1852 57.7391 13.9157C57.8614 13.7956 57.9712 13.6447 58.0684 13.4629ZM67.9437 32.4834H65.2494C65.5288 31.2303 65.6685 29.0779 65.6685 26.0264C65.6685 24.7505 65.6174 23.9016 65.5151 23.4796C65.4103 23.0543 65.2806 22.7443 65.1259 22.5495C64.9713 22.3547 64.7642 22.2573 64.5047 22.2573C64.2453 22.2573 64.0108 22.3206 63.8012 22.4472C63.5917 22.5771 63.4046 22.7443 63.2399 22.9488C62.9281 23.3286 62.6749 23.8351 62.4803 24.4681V26.7422C62.4803 28.9692 62.514 30.3473 62.5813 30.8764C62.6612 31.5744 62.7435 32.1101 62.8283 32.4834H60.134C60.2787 31.8179 60.376 30.9349 60.4259 29.8344C60.5357 27.0749 60.5906 25.0427 60.5906 23.7377C60.5906 22.4359 60.5868 21.5447 60.5794 21.0643C60.5744 20.5838 60.5656 20.1066 60.5532 19.6326C60.5232 17.9055 60.4633 16.8213 60.3735 16.3797C60.2862 15.9415 60.2039 15.6201 60.1266 15.4156C60.0517 15.2143 59.9682 15.0309 59.8758 14.8653L59.5653 14.3053H62.8994C62.7298 15.1072 62.6312 15.8522 62.6038 16.5404C62.5764 17.2287 62.5564 17.7903 62.5439 18.2253C62.5314 18.6571 62.519 19.1099 62.5065 19.5839C62.489 20.6942 62.4803 21.673 62.4803 22.5203C62.9618 21.4652 63.5979 20.7672 64.3887 20.4264C64.6706 20.2997 64.985 20.2364 65.3317 20.2364C65.6785 20.2364 65.9928 20.3338 66.2747 20.5286C66.5591 20.7234 66.7961 20.9993 66.9857 21.3564C67.3749 22.0771 67.5695 23.064 67.5695 24.3171V25.5881C67.5695 28.0131 67.5957 29.5324 67.6481 30.146C67.698 30.7596 67.7329 31.167 67.7528 31.3683C67.7952 31.7156 67.8589 32.0873 67.9437 32.4834ZM76.6589 28.4417C76.8784 28.6332 76.9882 28.9643 76.9882 29.4351C76.9882 29.9058 76.9395 30.3197 76.8423 30.6768C76.745 31.0339 76.5741 31.3666 76.3296 31.6751C75.7808 32.373 74.9463 32.722 73.8262 32.722C72.5239 32.722 71.531 32.0955 70.8475 30.8424C70.2438 29.7256 69.9419 28.216 69.9419 26.3137C69.9419 24.3951 70.3511 22.8887 71.1693 21.7947C71.9427 20.7559 72.9892 20.2364 74.3089 20.2364C75.2294 20.2364 75.9492 20.5854 76.468 21.2834C76.8747 21.8385 77.078 22.4781 77.078 23.202C77.078 23.9292 76.9695 24.5833 76.7524 25.1644C76.5379 25.7488 76.2198 26.2504 75.7982 26.6691C74.9351 27.5424 73.7264 28.0018 72.1722 28.0472C72.2994 29.6412 72.6836 30.7076 73.3247 31.2465C73.5542 31.4381 73.8611 31.5338 74.2453 31.5338C74.6295 31.5338 75.0373 31.2725 75.4689 30.7498C75.903 30.2239 76.2997 29.4545 76.6589 28.4417ZM72.1161 26.5523V26.9175C74.042 26.7519 75.0049 25.5394 75.0049 23.2799C75.0049 22.4326 74.8103 21.8629 74.4212 21.5707C74.2864 21.4733 74.1093 21.4246 73.8898 21.4246C73.6702 21.4246 73.4495 21.5123 73.2274 21.6876C73.0054 21.8629 72.8121 22.1486 72.6474 22.5446C72.2932 23.4082 72.1161 24.744 72.1161 26.5523ZM82.5676 32.4834H79.2334C79.5203 31.2076 79.6637 28.6316 79.6637 24.7554C79.6637 24.0737 79.6575 23.6322 79.645 23.4309C79.6326 23.2296 79.5777 23.116 79.4804 23.09C79.0787 22.9731 78.838 22.6728 78.7582 22.1891C78.7407 22.0625 78.717 21.9278 78.6871 21.785H79.2708C79.4405 21.785 79.5452 21.7346 79.5852 21.634C79.6251 21.5366 79.645 21.2574 79.645 20.7964C79.645 19.9004 79.6188 19.0207 79.5665 18.1571C79.5141 17.2936 79.5403 16.6395 79.645 16.1947C79.7473 15.7532 79.9082 15.3734 80.1278 15.0552C80.5918 14.3897 81.2466 14.057 82.0923 14.057C82.4092 14.057 82.6985 14.0959 82.9605 14.1738C83.2224 14.255 83.4756 14.2956 83.7201 14.2956C83.9621 14.2956 84.1754 14.2517 84.36 14.1641C84.5421 14.0764 84.703 13.8817 84.8427 13.5797C84.9226 13.6999 84.9962 13.9125 85.0635 14.2177C85.1309 14.5228 85.1645 14.8556 85.1645 15.2159C85.1645 15.5763 85.1446 15.9561 85.1047 16.3554C85.0648 16.7579 85.0074 17.1491 84.9325 17.529C84.7804 18.3211 84.5683 18.9509 84.2964 19.4184C84.1492 17.8017 84.0132 16.7953 83.8885 16.3992C83.7638 16.0032 83.6266 15.7321 83.4769 15.586C83.3272 15.4367 83.1064 15.362 82.8145 15.362C82.5227 15.362 82.262 15.5633 82.0325 15.9658C81.8054 16.3651 81.6919 16.9138 81.6919 17.6117V17.9916C81.6919 19.5758 81.7256 20.5335 81.793 20.8646C81.8578 21.1925 81.9489 21.4084 82.0661 21.5123C82.1809 21.6129 82.3455 21.6632 82.5601 21.6632H84.2403C84.0881 22.3774 83.8997 22.8384 83.6752 23.0462C83.5654 23.1566 83.442 23.2117 83.3047 23.2117C83.1675 23.2117 83.059 23.1988 82.9792 23.1728C82.8994 23.1501 82.8233 23.1225 82.7509 23.09C82.5688 23.0121 82.4029 22.9731 82.2532 22.9731C82.1036 22.9731 81.9888 22.9991 81.909 23.051C81.8316 23.103 81.768 23.176 81.7181 23.2702C81.6458 23.4293 81.6096 23.6825 81.6096 24.0298V26.0653C81.6096 28.5293 81.677 30.0697 81.8117 30.6865C81.909 31.1475 82.0337 31.5127 82.1859 31.7822L82.5676 32.4834ZM98.909 26.1335L98.8829 28.4173C98.8829 29.836 98.9839 30.8034 99.186 31.3196C99.3057 31.628 99.4479 31.865 99.6126 32.0305L100.043 32.4834H97.3935L97.1091 31.1053C96.4206 32.1831 95.4402 32.722 94.1679 32.722C93.4444 32.722 92.8594 32.4055 92.4129 31.7724C92.0237 31.2011 91.8291 30.5258 91.8291 29.7467C91.8291 28.9708 91.9713 28.2939 92.2557 27.7161C92.5376 27.1382 92.9106 26.6594 93.3746 26.2796C94.2876 25.5426 95.4352 25.1579 96.8172 25.1255V24.994C96.8172 23.0689 96.589 21.9392 96.1325 21.6048C95.9678 21.4847 95.7558 21.4246 95.4963 21.4246C95.2394 21.4246 94.9824 21.5366 94.7255 21.7606C94.471 21.9814 94.2402 22.2671 94.0332 22.6177C93.6191 23.3221 93.3234 24.1532 93.1463 25.1109C92.605 24.6921 92.3343 23.8886 92.3343 22.7004C92.3343 22.2167 92.3829 21.673 92.4802 21.0691C92.7097 21.0691 92.928 21.0253 93.1351 20.9377L93.8386 20.6552C94.5271 20.376 95.2007 20.2364 95.8593 20.2364C96.5179 20.2364 97.043 20.363 97.4347 20.6163C97.8288 20.8727 98.1344 21.2493 98.3515 21.746C98.7232 22.5966 98.909 24.059 98.909 26.1335ZM93.8049 29.9853C93.8049 30.4788 93.891 30.8602 94.0631 31.1297C94.2377 31.3991 94.456 31.5338 94.718 31.5338C94.9799 31.5338 95.2319 31.4446 95.4739 31.266C95.7183 31.0875 95.9379 30.844 96.1325 30.5356C96.589 29.8279 96.8172 28.9984 96.8172 28.0472V26.2893C95.9641 26.3932 95.2606 26.7617 94.7067 27.3947C94.1055 28.0764 93.8049 28.94 93.8049 29.9853ZM93.2735 14.2956H95.6123C95.6123 14.3735 95.6822 14.6657 95.8219 15.1721C96.1387 16.2499 96.3645 16.9998 96.4992 17.4218C96.4992 17.4218 96.6177 17.7741 96.8547 18.4785C96.9594 18.7707 97.048 19.0012 97.1204 19.17H96.0763C95.762 18.8746 95.4003 18.399 94.9911 17.7432C94.2178 16.4966 93.6452 15.3474 93.2735 14.2956ZM106.371 20.4751H109.742C109.632 20.8257 109.578 21.2087 109.578 21.6243C109.578 22.0398 109.603 22.4083 109.652 22.7297C109.7 23.051 109.767 23.426 109.855 23.8545L110.839 28.4173L111.187 29.8782C111.546 28.4757 111.783 27.5294 111.898 27.0392L112.227 25.5881C112.586 23.9941 112.766 23.0072 112.766 22.6274C112.766 22.2476 112.752 21.9684 112.725 21.7898C112.697 21.6113 112.66 21.4506 112.612 21.3077C112.553 21.0935 112.434 20.8159 112.257 20.4751H115.58C115.131 21.2834 114.83 21.8905 114.678 22.2963L114.337 23.1971C114.283 23.34 114.207 23.5461 114.109 23.8156C112.917 27.3606 112.321 29.7353 112.321 30.9397C112.321 31.4851 112.399 31.9997 112.556 32.4834H109.267C109.414 32.1815 109.502 31.8974 109.529 31.6312C109.556 31.3683 109.57 31.0956 109.57 30.8131C109.57 30.5307 109.515 30.1249 109.405 29.5957C109.296 29.0633 109.152 28.4611 108.975 27.7891C108.798 27.1139 108.596 26.4013 108.369 25.6514C108.139 24.9047 107.906 24.1905 107.669 23.5088C107.133 21.9797 106.7 20.9685 106.371 20.4751ZM121.006 21.4246C120.459 21.4246 120.065 21.7817 119.823 22.4959C119.584 23.2101 119.464 24.4113 119.464 26.0994C119.464 29.7224 119.978 31.5338 121.006 31.5338C121.555 31.5338 121.949 31.0501 122.188 30.0827C122.43 29.1153 122.551 27.7875 122.551 26.0994C122.551 24.4113 122.43 23.2101 122.188 22.4959C121.949 21.7817 121.555 21.4246 121.006 21.4246ZM117.159 25.6465C117.159 22.0398 118.441 20.2364 121.006 20.2364C123.57 20.2364 124.853 22.0398 124.853 25.6465C124.853 27.8346 124.5 29.5665 123.794 30.8424C123.105 32.0955 122.176 32.722 121.006 32.722C119.838 32.722 118.91 32.0955 118.222 30.8424C117.513 29.5665 117.159 27.8346 117.159 25.6465ZM129.74 15.7224C129.612 16.3327 129.549 17.0631 129.549 17.9137C129.549 18.7675 129.563 19.3128 129.59 19.5498C129.617 19.7868 129.661 19.9767 129.721 20.1196C129.838 20.3566 130.064 20.4751 130.398 20.4751H132.846C132.846 20.9198 132.763 21.2607 132.599 21.4977C132.302 21.9262 131.936 22.1404 131.502 22.1404C131.29 22.1404 131.102 22.1015 130.937 22.0236C130.638 21.8645 130.406 21.785 130.241 21.785C130.076 21.785 129.943 21.8255 129.841 21.9067C129.736 21.9911 129.654 22.1128 129.594 22.2719C129.484 22.5576 129.429 23.1793 129.429 24.137C129.429 25.0979 129.452 26.0815 129.496 27.0879C129.544 28.0943 129.659 28.9351 129.841 29.6104C130.023 30.2888 130.3 30.7985 130.671 31.1394C131.043 31.4803 131.555 31.6507 132.206 31.6507C132.206 31.8974 132.078 32.1912 131.824 32.5321C131.757 32.6262 131.698 32.6895 131.648 32.722C130.57 32.722 129.763 32.5548 129.227 32.2204C128.613 31.8244 128.176 31.1199 127.914 30.107C127.652 29.0747 127.521 27.5489 127.521 25.5297C127.521 23.7604 127.485 22.7151 127.412 22.3937C127.337 22.0755 127.27 21.8645 127.21 21.7606C127.135 21.6405 126.958 21.4944 126.679 21.3224C127.058 20.949 127.432 20.2543 127.801 19.2382L128.262 17.9916C128.583 17.0404 128.859 16.4236 129.089 16.1411C129.316 15.8619 129.533 15.7224 129.74 15.7224ZM136.719 32.4834H134.024C134.304 31.2303 134.443 29.0779 134.443 26.0264C134.443 23.8545 134.31 22.3726 134.043 21.5804C133.933 21.2558 133.737 20.8873 133.456 20.4751H136.7C136.59 20.975 136.502 21.6616 136.434 22.5349C137.008 21.5967 137.806 20.9344 138.829 20.5481C139.268 20.3825 139.587 20.1212 139.787 19.7641C139.989 20.3906 140.09 20.9295 140.09 21.3808C140.09 21.832 140.071 22.2492 140.034 22.6323C139.999 23.0186 139.944 23.3935 139.869 23.7571C139.712 24.5428 139.503 25.1531 139.241 25.5881C139.016 24.0428 138.666 23.1387 138.189 22.8757C137.64 22.5673 137.104 22.9877 136.58 24.137C136.47 24.3739 136.379 24.6272 136.307 24.8966C136.302 25.0817 136.299 25.2683 136.299 25.4566C136.299 25.6482 136.299 25.8381 136.299 26.0264C136.299 29.0779 136.439 31.2303 136.719 32.4834ZM147.709 28.4417C147.929 28.6332 148.038 28.9643 148.038 29.4351C148.038 29.9058 147.99 30.3197 147.892 30.6768C147.795 31.0339 147.624 31.3666 147.38 31.6751C146.831 32.373 145.996 32.722 144.876 32.722C143.574 32.722 142.581 32.0955 141.898 30.8424C141.294 29.7256 140.992 28.216 140.992 26.3137C140.992 24.3951 141.401 22.8887 142.219 21.7947C142.993 20.7559 144.039 20.2364 145.359 20.2364C146.28 20.2364 146.999 20.5854 147.518 21.2834C147.925 21.8385 148.128 22.4781 148.128 23.202C148.128 23.9292 148.02 24.5833 147.803 25.1644C147.588 25.7488 147.27 26.2504 146.848 26.6691C145.985 27.5424 144.776 28.0018 143.222 28.0472C143.349 29.6412 143.734 30.7076 144.375 31.2465C144.604 31.4381 144.911 31.5338 145.295 31.5338C145.68 31.5338 146.087 31.2725 146.519 30.7498C146.953 30.2239 147.35 29.4545 147.709 28.4417ZM143.166 26.5523V26.9175C145.092 26.7519 146.055 25.5394 146.055 23.2799C146.055 22.4326 145.86 21.8629 145.471 21.5707C145.337 21.4733 145.159 21.4246 144.94 21.4246C144.72 21.4246 144.5 21.5123 144.278 21.6876C144.055 21.8629 143.862 22.1486 143.697 22.5446C143.343 23.4082 143.166 24.744 143.166 26.5523ZM158.213 21.2347C158.894 20.5692 159.747 20.2364 160.772 20.2364C162.222 20.2364 163.169 21.0172 163.613 22.5787C163.757 23.0949 163.83 23.7425 163.83 24.5217C163.83 25.304 163.761 26.0653 163.624 26.8055C163.489 27.5457 163.3 28.2144 163.055 28.8117C162.811 29.4058 162.522 29.9285 162.191 30.3797C161.859 30.831 161.498 31.2076 161.109 31.5095C160.328 32.1198 159.5 32.4412 158.624 32.4737C158.637 32.8989 158.654 33.3177 158.677 33.73L158.77 34.9912C158.825 35.8483 159.014 36.5738 159.335 37.1679L159.646 37.7133H156.312C156.482 36.9537 156.58 36.1924 156.608 35.4295C156.635 34.6698 156.657 34.0189 156.675 33.4768C156.69 32.9346 156.7 32.373 156.705 31.7919C156.73 30.4447 156.742 29.2646 156.742 28.2517C156.742 24.9859 156.662 22.9877 156.503 22.2573C156.405 21.8061 156.281 21.4457 156.129 21.1763L155.747 20.4751H158.202C158.167 20.6341 158.17 20.8873 158.213 21.2347ZM161.547 24.8382C161.547 22.5625 161.105 21.4246 160.222 21.4246C159.783 21.4246 159.418 21.6795 159.126 22.1891C158.809 22.7345 158.651 23.4828 158.651 24.434L158.587 30.0681V30.7255C158.587 30.9397 158.59 31.1573 158.595 31.378C159.478 31.2027 160.194 30.5128 160.742 29.3084C161.279 28.1203 161.547 26.6302 161.547 24.8382ZM169.877 21.4246C169.33 21.4246 168.936 21.7817 168.694 22.4959C168.455 23.2101 168.335 24.4113 168.335 26.0994C168.335 29.7224 168.849 31.5338 169.877 31.5338C170.426 31.5338 170.821 31.0501 171.063 30.0827C171.303 29.1153 171.422 27.7875 171.422 26.0994C171.422 24.4113 171.303 23.2101 171.063 22.4959C170.821 21.7817 170.426 21.4246 169.877 21.4246ZM166.034 25.6465C166.034 22.0398 167.315 20.2364 169.877 20.2364C172.441 20.2364 173.724 22.0398 173.724 25.6465C173.724 27.8346 173.371 29.5665 172.665 30.8424C171.976 32.0955 171.047 32.722 169.877 32.722C168.709 32.722 167.781 32.0955 167.093 30.8424C166.387 29.5665 166.034 27.8346 166.034 25.6465ZM178.839 32.4834H176.145C176.424 31.2303 176.564 29.0779 176.564 26.0264C176.564 23.8545 176.43 22.3726 176.163 21.5804C176.054 21.2558 175.859 20.8873 175.58 20.4751H178.82C178.711 20.975 178.622 21.6616 178.555 22.5349C179.128 21.5967 179.927 20.9344 180.949 20.5481C181.389 20.3825 181.708 20.1212 181.907 19.7641C182.11 20.3906 182.211 20.9295 182.211 21.3808C182.211 21.832 182.192 22.2492 182.154 22.6323C182.12 23.0186 182.065 23.3935 181.99 23.7571C181.833 24.5428 181.623 25.1531 181.361 25.5881C181.137 24.0428 180.786 23.1387 180.31 22.8757C179.761 22.5673 179.226 22.9877 178.704 24.137C178.595 24.3739 178.502 24.6272 178.427 24.8966C178.422 25.0817 178.42 25.2683 178.42 25.4566C178.42 25.6482 178.42 25.8381 178.42 26.0264C178.42 29.0779 178.56 31.2303 178.839 32.4834ZM186.121 15.7224C185.991 16.3327 185.926 17.0631 185.926 17.9137C185.926 18.7675 185.94 19.3128 185.968 19.5498C185.995 19.7868 186.04 19.9767 186.102 20.1196C186.217 20.3566 186.442 20.4751 186.776 20.4751H189.227C189.227 20.9198 189.145 21.2607 188.98 21.4977C188.681 21.9262 188.315 22.1404 187.883 22.1404C187.669 22.1404 187.479 22.1015 187.315 22.0236C187.018 21.8645 186.787 21.785 186.622 21.785C186.458 21.785 186.324 21.8255 186.222 21.9067C186.117 21.9911 186.035 22.1128 185.975 22.2719C185.865 22.5576 185.81 23.1793 185.81 24.137C185.81 25.0979 185.833 26.0815 185.878 27.0879C185.923 28.0943 186.037 28.9351 186.222 29.6104C186.404 30.2888 186.681 30.7985 187.053 31.1394C187.424 31.4803 187.936 31.6507 188.587 31.6507C188.587 31.8974 188.459 32.1912 188.202 32.5321C188.134 32.6262 188.077 32.6895 188.029 32.722C186.952 32.722 186.145 32.5548 185.608 32.2204C184.992 31.8244 184.553 31.1199 184.291 30.107C184.029 29.0747 183.898 27.5489 183.898 25.5297C183.898 23.7604 183.862 22.7151 183.79 22.3937C183.717 22.0755 183.65 21.8645 183.588 21.7606C183.515 21.6405 183.339 21.4944 183.06 21.3224C183.437 20.949 183.811 20.2543 184.183 19.2382L184.639 17.9916C184.963 17.0404 185.239 16.4236 185.466 16.1411C185.696 15.8619 185.914 15.7224 186.121 15.7224ZM196.58 28.4417C196.8 28.6332 196.909 28.9643 196.909 29.4351C196.909 29.9058 196.861 30.3197 196.763 30.6768C196.666 31.0339 196.495 31.3666 196.251 31.6751C195.702 32.373 194.867 32.722 193.747 32.722C192.445 32.722 191.452 32.0955 190.769 30.8424C190.165 29.7256 189.863 28.216 189.863 26.3137C189.863 24.3951 190.272 22.8887 191.09 21.7947C191.864 20.7559 192.91 20.2364 194.23 20.2364C195.151 20.2364 195.87 20.5854 196.389 21.2834C196.796 21.8385 196.999 22.4781 196.999 23.202C196.999 23.9292 196.891 24.5833 196.674 25.1644C196.459 25.7488 196.141 26.2504 195.719 26.6691C194.856 27.5424 193.647 28.0018 192.093 28.0472C192.221 29.6412 192.605 30.7076 193.246 31.2465C193.475 31.4381 193.782 31.5338 194.166 31.5338C194.551 31.5338 194.958 31.2725 195.39 30.7498C195.824 30.2239 196.221 29.4545 196.58 28.4417ZM192.037 26.5523V26.9175C193.963 26.7519 194.926 25.5394 194.926 23.2799C194.926 22.4326 194.731 21.8629 194.342 21.5707C194.208 21.4733 194.03 21.4246 193.811 21.4246C193.591 21.4246 193.371 21.5123 193.149 21.6876C192.927 21.8629 192.733 22.1486 192.569 22.5446C192.214 23.4082 192.037 24.744 192.037 26.5523Z" fill="white"/>
</g>
</g>
<g clip-path="url(#clip4_2_43)">
<g clip-path="url(#clip5_2_43)">
<path d="M58.4102 40.7423L57.7641 41.5334C57.64 41.3265 57.4979 41.1772 57.3377 41.0854C57.1775 40.9922 57.0115 40.9456 56.8396 40.9456H56.8094V39.89H56.8174C57.1282 39.89 57.4183 39.9607 57.6878 40.102C57.9572 40.2448 58.198 40.4582 58.4102 40.7423ZM54.4321 43.9133C54.4321 43.3014 54.4836 42.7587 54.5865 42.2852C54.6904 41.8117 54.8331 41.4096 55.0145 41.0789C55.1959 40.7481 55.4134 40.4866 55.6669 40.2943C55.9205 40.102 56.1952 39.9811 56.4912 39.9315V41.0002C56.3352 41.057 56.1915 41.1524 56.0599 41.2865C55.9273 41.422 55.8107 41.6092 55.7099 41.8481C55.6091 42.0856 55.5301 42.3733 55.4728 42.7113C55.4155 43.0494 55.3842 43.45 55.3789 43.9133C55.3842 44.3752 55.4155 44.7802 55.4728 45.1284C55.5301 45.4766 55.6091 45.7774 55.7099 46.0309C55.8107 46.283 55.9273 46.484 56.0599 46.6341C56.1915 46.7827 56.3352 46.8854 56.4912 46.9422V47.9147C56.1952 47.8637 55.9205 47.7406 55.6669 47.5454C55.4134 47.3502 55.1959 47.085 55.0145 46.7499C54.8331 46.4163 54.6904 46.0127 54.5865 45.5392C54.4836 45.0672 54.4321 44.5252 54.4321 43.9133ZM56.8094 43.8281H58.7046V46.8679C58.5858 47.0748 58.4526 47.2438 58.3052 47.375C58.1577 47.5061 58.0023 47.6146 57.8389 47.7006C57.6756 47.7865 57.5069 47.847 57.3329 47.882C57.16 47.9169 56.9882 47.9344 56.8174 47.9344H56.8094V46.9969C56.8709 46.9969 56.9473 46.9911 57.0386 46.9794C57.1287 46.9692 57.2221 46.9517 57.3186 46.9269C57.4141 46.9022 57.5048 46.8687 57.5907 46.8264C57.6756 46.7827 57.7387 46.7223 57.7801 46.645V44.7022H56.8094V43.8281ZM60.7636 46.0681C60.7636 46.3886 60.8113 46.6268 60.9068 46.7827C61.0033 46.9386 61.1423 47.0311 61.3237 47.0603V47.9257C61.3025 47.9315 61.2686 47.9344 61.2219 47.9344C61.0458 47.9344 60.8761 47.9024 60.7127 47.8383C60.5493 47.7756 60.4056 47.6729 60.2815 47.5301C60.1573 47.3873 60.0603 47.1987 59.9903 46.9641C59.9203 46.7295 59.8852 46.4418 59.8852 46.1009C59.8852 45.7731 59.9356 45.4897 60.0364 45.2508C60.1383 45.0133 60.2682 44.8181 60.4263 44.6651C60.5843 44.5121 60.7641 44.3985 60.9657 44.3242C61.1672 44.2484 61.372 44.2105 61.5799 44.2105H61.922V44.9688H61.7502C61.6462 44.9688 61.5375 44.9834 61.424 45.0126C61.3105 45.0402 61.2044 45.0934 61.1057 45.1721C61.0071 45.2493 60.9254 45.3615 60.8607 45.5086C60.796 45.6543 60.7636 45.8408 60.7636 46.0681ZM63.1807 46.0156V46.1009C63.1807 46.1577 63.1828 46.2407 63.187 46.35C63.1923 46.4607 63.2029 46.5729 63.2189 46.6866C63.2348 46.8002 63.2592 46.9036 63.2921 46.9969C63.326 47.0887 63.3716 47.1491 63.4289 47.1783L63.1807 47.8929C63.1128 47.8929 63.0412 47.8718 62.9659 47.8295C62.8905 47.7858 62.8184 47.7253 62.7494 47.6481C62.6794 47.5694 62.6195 47.482 62.5696 47.3859C62.5208 47.2897 62.4832 47.1848 62.4567 47.0712C62.4057 47.2489 62.3039 47.407 62.1511 47.5454C61.9984 47.6838 61.8287 47.7851 61.642 47.8492V47.0384C61.7661 47.0034 61.8785 46.9342 61.9793 46.8308C62.0801 46.7273 62.1671 46.605 62.2403 46.4636V44.2105C62.2403 43.8623 62.227 43.5848 62.2005 43.3779C62.175 43.1725 62.131 43.0217 62.0684 42.9255C62.0069 42.8294 61.9305 42.7689 61.8393 42.7441C61.7491 42.7194 61.642 42.707 61.5178 42.707C61.4033 42.707 61.2956 42.7266 61.1948 42.766C61.094 42.8053 61.0007 42.8512 60.9148 42.9037C60.8299 42.9576 60.7551 43.0166 60.6904 43.0807C60.6257 43.1448 60.5774 43.1943 60.5456 43.2293L60.1971 42.4928C60.248 42.4141 60.3255 42.334 60.4294 42.2524C60.5334 42.1708 60.6527 42.098 60.7875 42.0339C60.9222 41.9698 61.0686 41.9181 61.2266 41.8787C61.3837 41.8408 61.5481 41.8219 61.7199 41.8219C61.8748 41.8219 62.026 41.843 62.1734 41.8853C62.3209 41.9275 62.4556 41.9989 62.5776 42.0994C62.6996 42.1985 62.8057 42.3318 62.8958 42.4994C62.9871 42.6655 63.0507 42.8731 63.0868 43.1222C63.1229 43.3713 63.1473 43.6227 63.16 43.8762C63.1738 44.1282 63.1807 44.3788 63.1807 44.6279V46.0156ZM66.2565 47.9344C65.9658 47.9344 65.7118 47.8477 65.4943 47.6743C65.2768 47.4995 65.096 47.2664 64.9517 46.975C64.8064 46.6836 64.6998 46.3493 64.6319 45.9719C64.565 45.5946 64.5316 45.1998 64.5316 44.7875C64.5316 44.2324 64.5873 43.7662 64.6987 43.3888C64.8101 43.0129 64.9522 42.7055 65.1251 42.4666C65.2991 42.2276 65.4938 42.0586 65.7091 41.9596C65.9234 41.8605 66.1345 41.811 66.3424 41.811C66.5026 41.811 66.6554 41.8357 66.8007 41.8853C66.945 41.9348 67.077 42.0062 67.1969 42.0994V43.2293C67.1142 43.1011 67.0171 42.9976 66.9057 42.919C66.7943 42.8417 66.6739 42.8031 66.5445 42.8031C66.3886 42.8031 66.247 42.8578 66.1197 42.967C65.9934 43.0778 65.8863 43.2256 65.7982 43.4107C65.7102 43.5957 65.6428 43.8128 65.5961 44.0619C65.5495 44.311 65.5261 44.574 65.5261 44.8508C65.5261 45.1364 65.5505 45.4052 65.5993 45.6572C65.6492 45.9093 65.7192 46.1278 65.8094 46.3129C65.9006 46.4979 66.0093 46.6458 66.1356 46.7565C66.2629 46.8672 66.404 46.9226 66.5588 46.9226C66.6883 46.9226 66.8049 46.8847 66.9089 46.8089C67.0129 46.7346 67.1089 46.637 67.1969 46.5161V47.6263C67.0728 47.7108 66.9301 47.7836 66.7689 47.8448C66.6087 47.9045 66.4379 47.9344 66.2565 47.9344ZM67.6154 41.8634H68.4556L68.4476 47.882C68.4264 48.3161 68.3628 48.6862 68.2567 48.9921C68.1506 49.2981 68.0148 49.5501 67.8493 49.7483C67.6838 49.9479 67.4924 50.0907 67.2749 50.1766C67.0564 50.2611 66.823 50.3034 66.5747 50.3034C66.2851 50.3034 65.9993 50.2342 65.7171 50.0958C65.4338 49.9573 65.1994 49.7242 65.0138 49.3964L65.5564 48.66C65.6083 48.7809 65.6746 48.8807 65.7553 48.9594C65.8359 49.038 65.9186 49.0985 66.0035 49.1407C66.0894 49.183 66.1748 49.2136 66.2597 49.2325C66.3456 49.25 66.422 49.2587 66.4888 49.2587C66.8102 49.2587 67.0617 49.1305 67.2431 48.8741C67.4245 48.6177 67.5152 48.1806 67.5152 47.5629V42.471L67.6154 41.8634ZM69.9704 41.8634H70.809L70.9092 42.471V47.882H69.9704V41.8634ZM73.2324 42.5256C73.3205 42.6465 73.3894 42.7871 73.4393 42.9474C73.4881 43.1076 73.5241 43.2744 73.5475 43.4478C73.5708 43.6227 73.5851 43.7989 73.5904 43.9767C73.5958 44.1544 73.5984 44.3285 73.5984 44.499V47.6678V47.882H72.65V44.6061C72.65 44.3642 72.6426 44.1333 72.6278 43.9133C72.6118 43.6919 72.5752 43.4959 72.518 43.3254C72.4607 43.155 72.3832 43.0217 72.2856 42.9255C72.187 42.8294 72.0496 42.7813 71.8735 42.7813C71.8014 42.7813 71.7043 42.7973 71.5823 42.8294C71.4603 42.8614 71.3426 42.9131 71.2291 42.9845V42.1628C71.368 42.0623 71.5192 41.9771 71.6826 41.9071C71.8459 41.8357 72.0056 41.8 72.1615 41.8C72.3938 41.8 72.5906 41.8656 72.7519 41.9967C72.9121 42.1278 73.0722 42.3041 73.2324 42.5256ZM76.9304 42.8141V41.811C77.2105 41.8459 77.463 41.9486 77.6878 42.1191C77.9138 42.2896 78.1069 42.5103 78.2671 42.7813C78.4283 43.0523 78.5514 43.3619 78.6362 43.7101C78.7221 44.0583 78.7651 44.421 78.7651 44.7984C78.7651 44.9688 78.7571 45.1393 78.7412 45.3098H76.0759V44.3722H77.8708C77.8708 44.1872 77.8491 44.0087 77.8056 43.8368C77.761 43.6664 77.6963 43.5083 77.6115 43.3626C77.5255 43.2169 77.4258 43.0945 77.3123 42.9954C77.1977 42.8949 77.0705 42.8345 76.9304 42.8141ZM76.9002 46.8789C76.9575 46.8789 77.0285 46.8701 77.1134 46.8526C77.1993 46.8352 77.29 46.8031 77.3855 46.7565C77.481 46.7099 77.577 46.6509 77.6735 46.5795C77.769 46.5081 77.8528 46.4229 77.9249 46.3238L78.2671 47.0384C78.0963 47.3298 77.8968 47.5505 77.6688 47.7006C77.4407 47.8506 77.1505 47.9257 76.7984 47.9257C76.5141 47.9257 76.2473 47.8455 75.998 47.6853C75.7497 47.525 75.5376 47.3057 75.3615 47.0275C75.1854 46.7507 75.0454 46.4272 74.9414 46.0572C74.8385 45.6871 74.787 45.2886 74.787 44.8618C74.787 44.4567 74.8348 44.0728 74.9303 43.7101C75.0257 43.3473 75.1567 43.029 75.3233 42.7551C75.4888 42.4812 75.6813 42.259 75.9009 42.0885C76.1216 41.9166 76.3586 41.8204 76.6122 41.8V42.825C76.4212 42.8745 76.2632 42.9809 76.138 43.1441C76.0139 43.3072 75.9168 43.4937 75.8468 43.7035C75.7768 43.9133 75.7275 44.1289 75.6988 44.3504C75.6712 44.5704 75.6574 44.759 75.6574 44.9164C75.6574 45.1932 75.6818 45.4511 75.7306 45.69C75.7794 45.9275 75.8558 46.1337 75.9598 46.3085C76.0637 46.4819 76.1921 46.6203 76.3449 46.7237C76.4976 46.8271 76.6827 46.8789 76.9002 46.8789ZM80.054 42.8993V41.8634H83.3876V42.8993L81.1344 46.6756L80.9785 46.8461H83.3876V47.882H80.054V46.8461L82.3072 43.0697L82.4631 42.8993H80.054ZM87.7842 39.5906V46.0462C87.7842 46.2881 87.8075 46.4782 87.8542 46.6166C87.9008 46.7565 87.9656 46.8599 88.0483 46.9269C88.131 46.994 88.2255 47.0384 88.3315 47.0603C88.4376 47.0821 88.5527 47.093 88.6768 47.093V47.882C88.61 47.8965 88.5405 47.9075 88.4684 47.9147C88.4111 47.922 88.3437 47.9271 88.2663 47.93C88.1878 47.933 88.1098 47.9344 88.0324 47.9344C87.9549 47.9344 87.8775 47.9315 87.8001 47.9257C87.7216 47.9184 87.6516 47.9075 87.59 47.8929C87.4139 47.8434 87.2766 47.7363 87.1779 47.5716C87.0792 47.4085 87.0039 47.2256 86.9519 47.0231C86.901 46.8206 86.8687 46.6232 86.8549 46.4309C86.8421 46.2386 86.8358 46.0892 86.8358 45.9829V45.8539V39.5906H87.7842ZM91.7065 42.8141V41.811C91.9866 41.8459 92.2396 41.9486 92.4655 42.1191C92.6904 42.2896 92.883 42.5103 93.0431 42.7813C93.2044 43.0523 93.3274 43.3619 93.4123 43.7101C93.4982 44.0583 93.5412 44.421 93.5412 44.7984C93.5412 44.9688 93.5332 45.1393 93.5173 45.3098H90.852V44.3722H92.6469C92.6469 44.1872 92.6252 44.0087 92.5817 43.8368C92.5371 43.6664 92.4724 43.5083 92.3876 43.3626C92.3016 43.2169 92.2019 43.0945 92.0884 42.9954C91.9738 42.8949 91.8465 42.8345 91.7065 42.8141ZM91.6763 46.8789C91.7336 46.8789 91.8046 46.8701 91.8895 46.8526C91.9754 46.8352 92.0661 46.8031 92.1616 46.7565C92.2571 46.7099 92.3531 46.6509 92.4496 46.5795C92.5451 46.5081 92.6289 46.4229 92.701 46.3238L93.0431 47.0384C92.8724 47.3298 92.6729 47.5505 92.4448 47.7006C92.2178 47.8506 91.9277 47.9257 91.5744 47.9257C91.2901 47.9257 91.0239 47.8455 90.7757 47.6853C90.5264 47.525 90.3137 47.3057 90.1376 47.0275C89.9615 46.7507 89.8214 46.4272 89.7175 46.0572C89.6146 45.6871 89.5631 45.2886 89.5631 44.8618C89.5631 44.4567 89.6109 44.0728 89.7063 43.7101C89.8018 43.3473 89.9328 43.029 90.0994 42.7551C90.2649 42.4812 90.4579 42.259 90.6786 42.0885C90.8982 41.9166 91.1347 41.8204 91.3883 41.8V42.825C91.1973 42.8745 91.0393 42.9809 90.9141 43.1441C90.79 43.3072 90.6929 43.4937 90.6229 43.7035C90.5529 43.9133 90.5041 44.1289 90.4765 44.3504C90.4479 44.5704 90.4335 44.759 90.4335 44.9164C90.4335 45.1932 90.4579 45.4511 90.5067 45.69C90.5555 45.9275 90.6319 46.1337 90.7359 46.3085C90.8398 46.4819 90.9682 46.6203 91.1209 46.7237C91.2737 46.8271 91.4588 46.8789 91.6763 46.8789ZM98.2098 42.7376V46.0572C98.2098 46.299 98.2332 46.4877 98.2799 46.6232C98.3265 46.7587 98.3923 46.8614 98.4772 46.9313C98.5631 47.0027 98.6591 47.0471 98.7652 47.0646C98.8713 47.0836 98.9837 47.093 99.1025 47.093V47.882C99.0357 47.8965 98.9683 47.9075 98.9004 47.9147C98.8442 47.922 98.7758 47.9271 98.6952 47.93C98.6145 47.933 98.5355 47.9344 98.4581 47.9344C98.3806 47.9344 98.3016 47.9315 98.221 47.9257C98.1414 47.9184 98.073 47.9075 98.0157 47.8929C97.8396 47.8506 97.7022 47.7457 97.6036 47.5782C97.5049 47.4106 97.4312 47.2256 97.3824 47.0231C97.3326 46.8206 97.3013 46.6232 97.2885 46.4309C97.2758 46.2386 97.2694 46.0892 97.2694 45.9829V42.7376H96.695V41.8634H97.2694V40.1566H98.2098V41.8634H98.9084V42.7376H98.2098ZM102.242 42.8141V41.811C102.521 41.8459 102.773 41.9486 102.999 42.1191C103.224 42.2896 103.417 42.5103 103.579 42.7813C103.739 43.0523 103.862 43.3619 103.948 43.7101C104.033 44.0583 104.075 44.421 104.075 44.7984C104.075 44.9688 104.068 45.1393 104.053 45.3098H101.388V44.3722H103.182C103.182 44.1872 103.16 44.0087 103.116 43.8368C103.072 43.6664 103.007 43.5083 102.921 43.3626C102.837 43.2169 102.737 43.0945 102.622 42.9954C102.509 42.8949 102.382 42.8345 102.242 42.8141ZM102.21 46.8789C102.267 46.8789 102.339 46.8701 102.425 46.8526C102.51 46.8352 102.6 46.8031 102.696 46.7565C102.792 46.7099 102.888 46.6509 102.984 46.5795C103.079 46.5081 103.163 46.4229 103.237 46.3238L103.579 47.0384C103.408 47.3298 103.208 47.5505 102.98 47.7006C102.752 47.8506 102.462 47.9257 102.11 47.9257C101.825 47.9257 101.558 47.8455 101.31 47.6853C101.061 47.525 100.849 47.3057 100.671 47.0275C100.495 46.7507 100.356 46.4272 100.253 46.0572C100.149 45.6871 100.097 45.2886 100.097 44.8618C100.097 44.4567 100.145 44.0728 100.24 43.7101C100.337 43.3473 100.468 43.029 100.633 42.7551C100.799 42.4812 100.992 42.259 101.212 42.0885C101.432 41.9166 101.669 41.8204 101.924 41.8V42.825C101.732 42.8745 101.574 42.9809 101.45 43.1441C101.325 43.3072 101.228 43.4937 101.158 43.7035C101.088 43.9133 101.039 44.1289 101.01 44.3504C100.982 44.5704 100.967 44.759 100.967 44.9164C100.967 45.1932 100.992 45.4511 101.041 45.69C101.09 45.9275 101.167 46.1337 101.27 46.3085C101.374 46.4819 101.502 46.6203 101.655 46.7237C101.808 46.8271 101.993 46.8789 102.21 46.8789ZM105.364 41.8634H106.212L106.312 42.4819V47.882H105.364V41.8634ZM109.878 41.8C110.054 41.8 110.22 41.8481 110.376 41.9443C110.531 42.0404 110.667 42.1774 110.784 42.3551C110.9 42.5329 110.991 42.7441 111.056 42.9889C111.12 43.2351 111.153 43.5003 111.153 43.7844V47.882H110.22V44.6061C110.22 44.3642 110.219 44.1348 110.217 43.9177C110.214 43.7006 110.197 43.5068 110.166 43.3364C110.136 43.1659 110.085 43.0326 110.015 42.9364C109.945 42.8403 109.837 42.7922 109.692 42.7922C109.656 42.7922 109.579 42.8031 109.46 42.825C109.34 42.8454 109.203 42.9058 109.048 43.0064V42.1628C109.188 42.0492 109.33 41.9603 109.474 41.8962C109.619 41.8321 109.754 41.8 109.878 41.8ZM108.535 42.6217C108.597 42.75 108.642 42.8869 108.671 43.0326C108.699 43.1783 108.717 43.3291 108.725 43.485C108.733 43.6423 108.736 43.804 108.733 43.9701C108.73 44.1377 108.729 44.314 108.729 44.499V47.882H107.789V44.6061C107.789 44.3642 107.789 44.1348 107.789 43.9177C107.789 43.7006 107.774 43.5068 107.743 43.3364C107.711 43.1659 107.659 43.0326 107.587 42.9364C107.515 42.8403 107.409 42.7922 107.269 42.7922C107.206 42.7922 107.114 42.8082 106.992 42.8403C106.871 42.8723 106.75 42.9277 106.631 43.0064V42.1628C106.756 42.0623 106.889 41.9807 107.032 41.9181C107.174 41.8539 107.315 41.8219 107.455 41.8219C107.694 41.8219 107.894 41.8889 108.056 42.023C108.22 42.1584 108.379 42.358 108.535 42.6217ZM112.489 41.8634H113.336L113.436 42.471V50.2509H112.489V41.8634ZM116.32 43.6882C116.382 44.016 116.413 44.3824 116.413 44.7875C116.413 45.1925 116.378 45.5859 116.308 45.9676C116.238 46.3478 116.132 46.6836 115.989 46.975C115.846 47.2664 115.668 47.4995 115.454 47.6743C115.239 47.8477 114.986 47.9344 114.695 47.9344C114.515 47.9344 114.343 47.906 114.179 47.8492C114.016 47.7924 113.875 47.7181 113.756 47.6263V46.5161C113.927 46.7929 114.136 46.9313 114.385 46.9313C114.541 46.9313 114.682 46.8781 114.808 46.7718C114.935 46.6654 115.044 46.5212 115.134 46.3391C115.225 46.1584 115.297 45.9421 115.349 45.69C115.4 45.4365 115.425 45.1677 115.425 44.8836C115.425 44.6053 115.402 44.3424 115.357 44.0947C115.31 43.8456 115.244 43.6248 115.158 43.4325C115.072 43.2402 114.969 43.0872 114.848 42.9736C114.726 42.86 114.585 42.8031 114.424 42.8031C114.29 42.8031 114.167 42.8403 114.055 42.9146C113.944 42.9889 113.844 43.0938 113.756 43.2293V42.0994C113.875 42.0062 114.007 41.9348 114.152 41.8853C114.297 41.8357 114.447 41.811 114.603 41.811C114.773 41.811 114.947 41.843 115.123 41.9071C115.299 41.9712 115.463 42.0776 115.616 42.2262C115.769 42.3763 115.907 42.5722 116.032 42.8141C116.157 43.0559 116.253 43.3473 116.32 43.6882ZM117.36 43.5811C117.36 43.3116 117.396 43.0683 117.468 42.8512C117.542 42.6341 117.643 42.4491 117.772 42.2961C117.902 42.1431 118.048 42.0222 118.212 41.9334C118.375 41.8445 118.545 41.7891 118.721 41.7673V42.8337C118.586 42.8702 118.481 42.9452 118.406 43.0588C118.33 43.1725 118.293 43.3327 118.293 43.5396C118.293 43.7101 118.333 43.847 118.414 43.9505C118.493 44.0524 118.596 44.1428 118.721 44.2214V45.3644C118.633 45.328 118.543 45.2872 118.452 45.242C118.362 45.1954 118.273 45.1437 118.184 45.0869C117.91 44.8873 117.703 44.6775 117.565 44.4575C117.429 44.236 117.36 43.9439 117.36 43.5811ZM120.258 42.248L119.955 43.1331C119.815 43.0341 119.666 42.9598 119.508 42.9102C119.35 42.8592 119.194 42.8272 119.039 42.8141V41.7563C119.271 41.7709 119.486 41.8153 119.683 41.8896C119.881 41.9654 120.072 42.0849 120.258 42.248ZM117.376 47.4012L117.772 46.5379C117.875 46.637 117.998 46.7295 118.141 46.8155C118.284 46.9 118.463 46.9422 118.681 46.9422H118.721V47.9344C118.59 47.9344 118.471 47.9293 118.363 47.9191C118.253 47.9089 118.146 47.8841 118.04 47.8448C117.934 47.8055 117.826 47.7501 117.718 47.6787C117.609 47.6073 117.495 47.5148 117.376 47.4012ZM119.039 45.5239V44.3919C119.194 44.4633 119.352 44.542 119.513 44.6279C119.673 44.7124 119.819 44.8188 119.951 44.947C120.083 45.0752 120.193 45.234 120.279 45.4234C120.363 45.6113 120.406 45.8474 120.406 46.1315C120.406 46.4097 120.37 46.6516 120.298 46.857C120.224 47.0639 120.127 47.2416 120.006 47.3902C119.884 47.5403 119.741 47.6583 119.575 47.7443C119.409 47.8288 119.23 47.8856 119.039 47.9147V46.9007C119.215 46.857 119.351 46.7805 119.446 46.6713C119.542 46.5605 119.59 46.4127 119.59 46.2276C119.59 46.0426 119.536 45.8984 119.43 45.7949C119.324 45.6929 119.194 45.6026 119.039 45.5239ZM122.015 46.3981C122.169 46.3981 122.301 46.4731 122.411 46.6232C122.519 46.7718 122.573 46.9495 122.573 47.1564C122.573 47.1914 122.57 47.2752 122.565 47.4077C122.56 47.5389 122.535 47.6984 122.492 47.8863C122.447 48.0757 122.376 48.2804 122.279 48.5004C122.18 48.7219 122.035 48.9426 121.843 49.1626H121.478C121.581 49.0271 121.667 48.885 121.734 48.7364C121.801 48.5864 121.855 48.4509 121.897 48.33C121.943 48.1945 121.983 48.0597 122.015 47.9257C121.859 47.9257 121.728 47.8506 121.622 47.7006C121.515 47.5505 121.462 47.3691 121.462 47.1564C121.462 46.9422 121.515 46.7623 121.622 46.6166C121.728 46.4709 121.859 46.3981 122.015 46.3981ZM125.751 43.5811C125.751 43.3116 125.787 43.0683 125.859 42.8512C125.931 42.6341 126.032 42.4491 126.163 42.2961C126.292 42.1431 126.438 42.0222 126.6 41.9334C126.764 41.8445 126.934 41.7891 127.11 41.7673V42.8337C126.975 42.8702 126.87 42.9452 126.795 43.0588C126.72 43.1725 126.683 43.3327 126.683 43.5396C126.683 43.7101 126.723 43.847 126.803 43.9505C126.883 44.0524 126.986 44.1428 127.11 44.2214V45.3644C127.022 45.328 126.932 45.2872 126.842 45.242C126.751 45.1954 126.661 45.1437 126.573 45.0869C126.3 44.8873 126.094 44.6775 125.956 44.4575C125.819 44.236 125.751 43.9439 125.751 43.5811ZM128.648 42.248L128.346 43.1331C128.206 43.0341 128.057 42.9598 127.899 42.9102C127.741 42.8592 127.584 42.8272 127.428 42.8141V41.7563C127.661 41.7709 127.877 41.8153 128.074 41.8896C128.27 41.9654 128.462 42.0849 128.648 42.248ZM125.765 47.4012L126.163 46.5379C126.266 46.637 126.388 46.7295 126.53 46.8155C126.674 46.9 126.854 46.9422 127.071 46.9422H127.11V47.9344C126.98 47.9344 126.861 47.9293 126.753 47.9191C126.644 47.9089 126.536 47.8841 126.43 47.8448C126.324 47.8055 126.216 47.7501 126.107 47.6787C125.999 47.6073 125.885 47.5148 125.765 47.4012ZM127.428 45.5239V44.3919C127.584 44.4633 127.742 44.542 127.902 44.6279C128.063 44.7124 128.21 44.8188 128.341 44.947C128.474 45.0752 128.583 45.234 128.667 45.4234C128.753 45.6113 128.796 45.8474 128.796 46.1315C128.796 46.4097 128.76 46.6516 128.687 46.857C128.614 47.0639 128.517 47.2416 128.395 47.3902C128.274 47.5403 128.131 47.6583 127.964 47.7443C127.799 47.8288 127.62 47.8856 127.428 47.9147V46.9007C127.604 46.857 127.74 46.7805 127.837 46.6713C127.932 46.5605 127.98 46.4127 127.98 46.2276C127.98 46.0426 127.927 45.8984 127.821 45.7949C127.715 45.6929 127.584 45.6026 127.428 45.5239ZM130.777 46.0681C130.777 46.3886 130.825 46.6268 130.921 46.7827C131.016 46.9386 131.155 47.0311 131.336 47.0603V47.9257C131.316 47.9315 131.282 47.9344 131.236 47.9344C131.06 47.9344 130.89 47.9024 130.726 47.8383C130.563 47.7756 130.419 47.6729 130.295 47.5301C130.171 47.3873 130.074 47.1987 130.004 46.9641C129.934 46.7295 129.899 46.4418 129.899 46.1009C129.899 45.7731 129.949 45.4897 130.05 45.2508C130.151 45.0133 130.28 44.8181 130.438 44.6651C130.597 44.5121 130.777 44.3985 130.979 44.3242C131.181 44.2484 131.385 44.2105 131.592 44.2105H131.934V44.9688H131.764C131.66 44.9688 131.551 44.9834 131.438 45.0126C131.323 45.0402 131.217 45.0934 131.118 45.1721C131.02 45.2493 130.939 45.3615 130.874 45.5086C130.81 45.6543 130.777 45.8408 130.777 46.0681ZM133.193 46.0156V46.1009C133.193 46.1577 133.196 46.2407 133.201 46.35C133.206 46.4607 133.217 46.5729 133.233 46.6866C133.248 46.8002 133.272 46.9036 133.306 46.9969C133.34 47.0887 133.385 47.1491 133.441 47.1783L133.193 47.8929C133.126 47.8929 133.055 47.8718 132.98 47.8295C132.904 47.7858 132.832 47.7253 132.762 47.6481C132.692 47.5694 132.632 47.482 132.583 47.3859C132.535 47.2897 132.497 47.1848 132.47 47.0712C132.418 47.2489 132.316 47.407 132.163 47.5454C132.011 47.6838 131.841 47.7851 131.654 47.8492V47.0384C131.779 47.0034 131.892 46.9342 131.993 46.8308C132.094 46.7273 132.18 46.605 132.252 46.4636V44.2105C132.252 43.8623 132.24 43.5848 132.214 43.3779C132.189 43.1725 132.145 43.0217 132.082 42.9255C132.02 42.8294 131.943 42.7689 131.853 42.7441C131.762 42.7194 131.654 42.707 131.53 42.707C131.417 42.707 131.309 42.7266 131.209 42.766C131.107 42.8053 131.013 42.8512 130.929 42.9037C130.843 42.9576 130.767 43.0166 130.703 43.0807C130.638 43.1448 130.59 43.1943 130.559 43.2293L130.209 42.4928C130.261 42.4141 130.339 42.334 130.443 42.2524C130.546 42.1708 130.665 42.098 130.8 42.0339C130.934 41.9698 131.081 41.9181 131.239 41.8787C131.397 41.8408 131.561 41.8219 131.732 41.8219C131.888 41.8219 132.04 41.843 132.187 41.8853C132.335 41.9275 132.469 41.9989 132.591 42.0994C132.713 42.1985 132.819 42.3318 132.91 42.4994C133 42.6655 133.063 42.8731 133.101 43.1222C133.137 43.3713 133.161 43.6227 133.174 43.8762C133.187 44.1282 133.193 44.3788 133.193 44.6279V46.0156ZM136.006 47.9257L134.467 41.8634H135.532L136.456 46.1424V47.9257H136.006ZM136.775 46.1424L137.707 41.8634H138.764L137.225 47.9257H136.775V46.1424ZM141.871 42.8337V41.8306C142.156 41.8525 142.415 41.9472 142.648 42.1147C142.881 42.2823 143.077 42.503 143.235 42.7769C143.393 43.0508 143.516 43.3691 143.604 43.7319C143.692 44.0947 143.736 44.4822 143.736 44.8945C143.736 45.3069 143.691 45.6929 143.599 46.0528C143.509 46.4112 143.384 46.7237 143.222 46.9903C143.062 47.2569 142.865 47.4726 142.632 47.6372C142.4 47.8004 142.146 47.8965 141.871 47.9257V46.9007C142.13 46.822 142.341 46.5977 142.505 46.2276C142.668 45.8576 142.75 45.4132 142.75 44.8945C142.75 44.6308 142.73 44.3832 142.691 44.1515C142.652 43.9213 142.593 43.7137 142.516 43.5287C142.438 43.3437 142.345 43.1907 142.236 43.0697C142.128 42.9488 142.006 42.8702 141.871 42.8337ZM139.703 44.8727C139.703 44.4604 139.747 44.0765 139.836 43.721C139.924 43.3655 140.049 43.0537 140.212 42.7856C140.375 42.519 140.571 42.3041 140.799 42.141C141.027 41.9778 141.278 41.878 141.553 41.8416V42.8337C141.293 42.9124 141.086 43.1368 140.931 43.5068C140.775 43.8769 140.697 44.3212 140.697 44.8399C140.697 45.1036 140.717 45.3527 140.756 45.5873C140.795 45.8219 140.851 46.0317 140.923 46.2167C140.995 46.4017 141.085 46.5547 141.192 46.6756C141.298 46.7966 141.418 46.8716 141.553 46.9007V47.9257C141.268 47.8965 141.011 47.7982 140.783 47.6306C140.555 47.4646 140.361 47.246 140.201 46.975C140.04 46.704 139.917 46.3872 139.831 46.0244C139.746 45.6616 139.703 45.2777 139.703 44.8727ZM145.872 41.8634V45.1393C145.872 45.3884 145.88 45.6215 145.896 45.8386C145.91 46.0557 145.944 46.2458 145.996 46.409C146.048 46.5722 146.126 46.704 146.23 46.8046C146.333 46.9036 146.47 46.9532 146.642 46.9532C146.709 46.9532 146.804 46.9393 146.928 46.9117C147.052 46.8825 147.172 46.8359 147.286 46.7718V47.5629C147.152 47.662 147.005 47.7487 146.847 47.823C146.689 47.8973 146.533 47.9344 146.378 47.9344C146.253 47.9344 146.141 47.9184 146.044 47.8863C145.945 47.8543 145.853 47.8047 145.767 47.7377C145.682 47.6707 145.6 47.5942 145.522 47.5083C145.444 47.4238 145.367 47.3276 145.289 47.2198C145.201 47.0989 145.131 46.9583 145.079 46.798C145.027 46.6392 144.99 46.4724 144.966 46.2976C144.943 46.1227 144.93 45.9464 144.928 45.7687C144.925 45.591 144.923 45.4168 144.923 45.2464V41.8634H145.872ZM147.605 41.8634H148.553V47.882H147.706L147.605 47.2635V41.8634ZM149.874 41.8634H150.712L150.812 42.4819V45.7468V45.7687V47.882H149.874V41.8634ZM151.132 43.2184V42.13C151.262 42.031 151.417 41.9545 151.599 41.9006C151.779 41.8481 152.024 41.8219 152.335 41.8219V43.1659C152.191 43.1091 152.015 43.077 151.807 43.0697C151.693 43.0697 151.578 43.0821 151.462 43.1069C151.345 43.1317 151.235 43.1688 151.132 43.2184ZM155.373 42.8141V41.811C155.653 41.8459 155.905 41.9486 156.13 42.1191C156.356 42.2896 156.549 42.5103 156.71 42.7813C156.871 43.0523 156.994 43.3619 157.079 43.7101C157.165 44.0583 157.208 44.421 157.208 44.7984C157.208 44.9688 157.2 45.1393 157.184 45.3098H154.518V44.3722H156.313C156.313 44.1872 156.292 44.0087 156.248 43.8368C156.204 43.6664 156.139 43.5083 156.054 43.3626C155.968 43.2169 155.868 43.0945 155.755 42.9954C155.64 42.8949 155.513 42.8345 155.373 42.8141ZM155.343 46.8789C155.4 46.8789 155.471 46.8701 155.556 46.8526C155.642 46.8352 155.733 46.8031 155.828 46.7565C155.923 46.7099 156.019 46.6509 156.116 46.5795C156.212 46.5081 156.295 46.4229 156.367 46.3238L156.71 47.0384C156.539 47.3298 156.339 47.5505 156.111 47.7006C155.883 47.8506 155.593 47.9257 155.241 47.9257C154.957 47.9257 154.69 47.8455 154.44 47.6853C154.192 47.525 153.98 47.3057 153.804 47.0275C153.628 46.7507 153.488 46.4272 153.384 46.0572C153.281 45.6871 153.23 45.2886 153.23 44.8618C153.23 44.4567 153.277 44.0728 153.373 43.7101C153.468 43.3473 153.599 43.029 153.766 42.7551C153.931 42.4812 154.124 42.259 154.343 42.0885C154.564 41.9166 154.801 41.8204 155.055 41.8V42.825C154.864 42.8745 154.706 42.9809 154.58 43.1441C154.456 43.3072 154.359 43.4937 154.289 43.7035C154.219 43.9133 154.17 44.1289 154.141 44.3504C154.114 44.5704 154.1 44.759 154.1 44.9164C154.1 45.1932 154.124 45.4511 154.173 45.69C154.222 45.9275 154.298 46.1337 154.402 46.3085C154.506 46.4819 154.635 46.6203 154.787 46.7237C154.94 46.8271 155.125 46.8789 155.343 46.8789ZM158.496 42.8993V41.8634H161.83V42.8993L159.577 46.6756L159.421 46.8461H161.83V47.882H158.496V46.8461L160.75 43.0697L160.906 42.8993H158.496ZM166.227 39.5906V46.0462C166.227 46.2881 166.25 46.4782 166.297 46.6166C166.343 46.7565 166.408 46.8599 166.491 46.9269C166.574 46.994 166.668 47.0384 166.774 47.0603C166.88 47.0821 166.995 47.093 167.119 47.093V47.882C167.052 47.8965 166.983 47.9075 166.911 47.9147C166.854 47.922 166.786 47.9271 166.709 47.93C166.63 47.933 166.552 47.9344 166.475 47.9344C166.397 47.9344 166.32 47.9315 166.243 47.9257C166.164 47.9184 166.094 47.9075 166.033 47.8929C165.856 47.8434 165.719 47.7363 165.62 47.5716C165.522 47.4085 165.446 47.2256 165.394 47.0231C165.344 46.8206 165.311 46.6232 165.297 46.4309C165.285 46.2386 165.278 46.0892 165.278 45.9829V45.8539V39.5906H166.227ZM168.814 40.0168L168.69 41.8634H168.154L168.028 40.0168H168.814ZM170.996 41.8634V47.882H170.049V41.8634H170.996ZM171.081 39.9425C171.081 40.1566 171.027 40.3366 170.919 40.4823C170.81 40.6279 170.678 40.7008 170.523 40.7008C170.367 40.7008 170.236 40.6258 170.13 40.4757C170.024 40.3271 169.971 40.1494 169.971 39.9425C169.971 39.7298 170.025 39.5484 170.133 39.3983C170.242 39.2497 170.372 39.1754 170.523 39.1754C170.678 39.1754 170.81 39.2497 170.919 39.3983C171.027 39.5484 171.081 39.7298 171.081 39.9425ZM172.316 41.8634H173.156L173.257 42.471V47.882H172.316V41.8634ZM175.58 42.5256C175.668 42.6465 175.736 42.7871 175.785 42.9474C175.835 43.1076 175.872 43.2744 175.895 43.4478C175.918 43.6227 175.933 43.7989 175.938 43.9767C175.943 44.1544 175.946 44.3285 175.946 44.499V47.6678V47.882H174.997V44.6061C174.997 44.3642 174.99 44.1333 174.974 43.9133C174.959 43.6919 174.923 43.4959 174.865 43.3254C174.808 43.155 174.73 43.0217 174.631 42.9255C174.534 42.8294 174.397 42.7813 174.221 42.7813C174.148 42.7813 174.05 42.7973 173.928 42.8294C173.807 42.8614 173.689 42.9131 173.575 42.9845V42.1628C173.715 42.0623 173.867 41.9771 174.03 41.9071C174.193 41.8357 174.352 41.8 174.507 41.8C174.741 41.8 174.938 41.8656 175.098 41.9967C175.259 42.1278 175.42 42.3041 175.58 42.5256ZM177.141 43.5811C177.141 43.3116 177.177 43.0683 177.251 42.8512C177.323 42.6341 177.424 42.4491 177.553 42.2961C177.682 42.1431 177.829 42.0222 177.992 41.9334C178.156 41.8445 178.325 41.7891 178.501 41.7673V42.8337C178.367 42.8702 178.262 42.9452 178.186 43.0588C178.111 43.1725 178.073 43.3327 178.073 43.5396C178.073 43.7101 178.114 43.847 178.194 43.9505C178.275 44.0524 178.377 44.1428 178.501 44.2214V45.3644C178.413 45.328 178.324 45.2872 178.232 45.242C178.142 45.1954 178.053 45.1437 177.965 45.0869C177.69 44.8873 177.485 44.6775 177.348 44.4575C177.21 44.236 177.141 43.9439 177.141 43.5811ZM180.04 42.248L179.736 43.1331C179.596 43.0341 179.447 42.9598 179.289 42.9102C179.131 42.8592 178.974 42.8272 178.82 42.8141V41.7563C179.053 41.7709 179.268 41.8153 179.464 41.8896C179.661 41.9654 179.853 42.0849 180.04 42.248ZM177.157 47.4012L177.553 46.5379C177.657 46.637 177.78 46.7295 177.922 46.8155C178.064 46.9 178.244 46.9422 178.462 46.9422H178.501V47.9344C178.372 47.9344 178.253 47.9293 178.143 47.9191C178.035 47.9089 177.928 47.8841 177.822 47.8448C177.715 47.8055 177.607 47.7501 177.499 47.6787C177.39 47.6073 177.276 47.5148 177.157 47.4012ZM178.82 45.5239V44.3919C178.974 44.4633 179.133 44.542 179.294 44.6279C179.454 44.7124 179.6 44.8188 179.733 44.947C179.864 45.0752 179.973 45.234 180.059 45.4234C180.144 45.6113 180.186 45.8474 180.186 46.1315C180.186 46.4097 180.15 46.6516 180.078 46.857C180.006 47.0639 179.909 47.2416 179.787 47.3902C179.665 47.5403 179.521 47.6583 179.356 47.7443C179.19 47.8288 179.012 47.8856 178.82 47.9147V46.9007C178.996 46.857 179.131 46.7805 179.227 46.6713C179.323 46.5605 179.372 46.4127 179.372 46.2276C179.372 46.0426 179.319 45.8984 179.213 45.7949C179.105 45.6929 178.974 45.6026 178.82 45.5239ZM182.658 42.7376V46.0572C182.658 46.299 182.681 46.4877 182.728 46.6232C182.774 46.7587 182.84 46.8614 182.925 46.9313C183.011 47.0027 183.107 47.0471 183.213 47.0646C183.319 47.0836 183.431 47.093 183.55 47.093V47.882C183.483 47.8965 183.416 47.9075 183.348 47.9147C183.292 47.922 183.224 47.9271 183.143 47.93C183.062 47.933 182.983 47.9344 182.906 47.9344C182.828 47.9344 182.749 47.9315 182.669 47.9257C182.588 47.9184 182.52 47.9075 182.463 47.8929C182.287 47.8506 182.15 47.7457 182.051 47.5782C181.953 47.4106 181.879 47.2256 181.83 47.0231C181.78 46.8206 181.749 46.6232 181.736 46.4309C181.724 46.2386 181.717 46.0892 181.717 45.9829V42.7376H181.143V41.8634H181.717V40.1566H182.658V41.8634H183.356V42.7376H182.658ZM185.415 46.0681C185.415 46.3886 185.463 46.6268 185.558 46.7827C185.655 46.9386 185.794 47.0311 185.975 47.0603V47.9257C185.954 47.9315 185.92 47.9344 185.873 47.9344C185.697 47.9344 185.528 47.9024 185.364 47.8383C185.201 47.7756 185.057 47.6729 184.933 47.5301C184.809 47.3873 184.712 47.1987 184.642 46.9641C184.572 46.7295 184.537 46.4418 184.537 46.1009C184.537 45.7731 184.587 45.4897 184.688 45.2508C184.79 45.0133 184.92 44.8181 185.078 44.6651C185.235 44.5121 185.415 44.3985 185.617 44.3242C185.819 44.2484 186.024 44.2105 186.232 44.2105H186.572V44.9688H186.402C186.298 44.9688 186.189 44.9834 186.076 45.0126C185.962 45.0402 185.856 45.0934 185.757 45.1721C185.659 45.2493 185.577 45.3615 185.512 45.5086C185.448 45.6543 185.415 45.8408 185.415 46.0681ZM187.832 46.0156V46.1009C187.832 46.1577 187.834 46.2407 187.839 46.35C187.844 46.4607 187.855 46.5729 187.87 46.6866C187.886 46.8002 187.911 46.9036 187.944 46.9969C187.978 47.0887 188.023 47.1491 188.081 47.1783L187.832 47.8929C187.764 47.8929 187.693 47.8718 187.617 47.8295C187.542 47.7858 187.47 47.7253 187.401 47.6481C187.331 47.5694 187.271 47.482 187.221 47.3859C187.172 47.2897 187.135 47.1848 187.108 47.0712C187.057 47.2489 186.956 47.407 186.803 47.5454C186.649 47.6838 186.479 47.7851 186.294 47.8492V47.0384C186.418 47.0034 186.53 46.9342 186.631 46.8308C186.732 46.7273 186.819 46.605 186.892 46.4636V44.2105C186.892 43.8623 186.879 43.5848 186.852 43.3779C186.827 43.1725 186.783 43.0217 186.72 42.9255C186.658 42.8294 186.582 42.7689 186.491 42.7441C186.401 42.7194 186.294 42.707 186.169 42.707C186.055 42.707 185.947 42.7266 185.846 42.766C185.746 42.8053 185.652 42.8512 185.566 42.9037C185.482 42.9576 185.407 43.0166 185.342 43.0807C185.277 43.1448 185.229 43.1943 185.197 43.2293L184.849 42.4928C184.9 42.4141 184.977 42.334 185.081 42.2524C185.185 42.1708 185.304 42.098 185.439 42.0339C185.574 41.9698 185.72 41.9181 185.877 41.8787C186.035 41.8408 186.2 41.8219 186.372 41.8219C186.526 41.8219 186.678 41.843 186.825 41.8853C186.972 41.9275 187.107 41.9989 187.229 42.0994C187.351 42.1985 187.457 42.3318 187.547 42.4994C187.639 42.6655 187.702 42.8731 187.738 43.1222C187.774 43.3713 187.799 43.6227 187.812 43.8762C187.825 44.1282 187.832 44.3788 187.832 44.6279V46.0156ZM189.315 41.8634H190.154L190.256 42.471V47.882H189.315V41.8634ZM192.579 42.5256C192.667 42.6465 192.735 42.7871 192.784 42.9474C192.833 43.1076 192.869 43.2744 192.892 43.4478C192.916 43.6227 192.93 43.7989 192.935 43.9767C192.941 44.1544 192.943 44.3285 192.943 44.499V47.6678V47.882H191.995V44.6061C191.995 44.3642 191.987 44.1333 191.973 43.9133C191.957 43.6919 191.92 43.4959 191.863 43.3254C191.807 43.155 191.729 43.0217 191.631 42.9255C191.532 42.8294 191.394 42.7813 191.218 42.7813C191.146 42.7813 191.049 42.7973 190.927 42.8294C190.805 42.8614 190.687 42.9131 190.574 42.9845V42.1628C190.714 42.0623 190.866 41.9771 191.029 41.9071C191.191 41.8357 191.35 41.8 191.506 41.8C191.74 41.8 191.937 41.8656 192.097 41.9967C192.257 42.1278 192.418 42.3041 192.579 42.5256ZM195.491 42.7376V46.0572C195.491 46.299 195.514 46.4877 195.561 46.6232C195.608 46.7587 195.674 46.8614 195.76 46.9313C195.845 47.0027 195.941 47.0471 196.048 47.0646C196.154 47.0836 196.266 47.093 196.385 47.093V47.882C196.318 47.8965 196.251 47.9075 196.183 47.9147C196.126 47.922 196.057 47.9271 195.978 47.93C195.897 47.933 195.818 47.9344 195.741 47.9344C195.662 47.9344 195.583 47.9315 195.504 47.9257C195.423 47.9184 195.354 47.9075 195.297 47.8929C195.121 47.8506 194.984 47.7457 194.886 47.5782C194.788 47.4106 194.713 47.2256 194.663 47.0231C194.615 46.8206 194.584 46.6232 194.571 46.4309C194.558 46.2386 194.552 46.0892 194.552 45.9829V42.7376H193.976V41.8634H194.552V40.1566H195.491V41.8634H196.191V42.7376H195.491Z" fill="#E4C590"/>
</g>
</g>
</g>
</g>
<defs>
<clipPath id="clip0_2_43">
<rect width="147" height="36.3861" fill="white" transform="translate(50 13.4629)"/>
</clipPath>
<clipPath id="clip1_2_43">
<rect width="147" height="36.3861" fill="white" transform="translate(50 13.4629)"/>
</clipPath>
<clipPath id="clip2_2_43">
<rect width="147" height="24.2504" fill="white" transform="translate(50 13.4629)"/>
</clipPath>
<clipPath id="clip3_2_43">
<rect width="147" height="24.2504" fill="white" transform="translate(50 13.4629)"/>
</clipPath>
<clipPath id="clip4_2_43">
<rect width="153.693" height="11.4165" fill="white" transform="translate(54.4298 39.0312)"/>
</clipPath>
<clipPath id="clip5_2_43">
<rect width="141.953" height="11.1286" fill="white" transform="translate(54.4298 39.1752)"/>
</clipPath>
</defs>
</svg>
