<svg width="160" height="50" viewBox="0 0 160 50" fill="none" xmlns="http://www.w3.org/2000/svg">
<g clip-path="url(#clip0_2_123)">
<g clip-path="url(#clip1_2_123)">
<g clip-path="url(#clip2_2_123)">
<g clip-path="url(#clip3_2_123)">
<g clip-path="url(#clip4_2_123)">
<g clip-path="url(#clip5_2_123)">
<g clip-path="url(#clip6_2_123)">
<path d="M53.5438 18C53.6655 18.2231 53.7264 18.5643 53.7264 19.0238C53.7264 19.4833 53.7144 19.8569 53.6904 20.1446C53.6681 20.4301 53.6338 20.7056 53.5875 20.971C53.4881 21.571 53.3484 22.0238 53.1684 22.3294C53.0125 21.2788 52.8111 20.5272 52.5642 20.0744C52.3054 19.6171 51.9678 19.3885 51.5512 19.3885C51.1347 19.3885 50.8091 19.4922 50.5742 19.6996C50.3411 19.9049 50.1612 20.177 50.0343 20.516C49.8252 21.0759 49.7206 21.9023 49.7206 22.9952C49.7206 24.0859 49.8158 25.0852 50.006 25.993C50.1963 26.8986 50.4671 27.6782 50.8185 28.3317C51.5607 29.7213 52.5257 30.4161 53.7135 30.4161C53.6964 30.6615 53.5978 30.8734 53.4178 31.0518C53.363 31.1076 53.3047 31.1399 53.243 31.1488C51.7244 31.1488 50.486 30.4228 49.5278 28.9707C48.5097 27.4228 48.0006 25.3149 48.0006 22.6473C48.0006 21.2532 48.3143 20.2049 48.9416 19.5022C49.4987 18.8822 50.2606 18.5721 51.2273 18.5721L52.2763 18.5889C52.7699 18.5889 53.117 18.4963 53.3176 18.3112C53.4016 18.2286 53.477 18.1249 53.5438 18ZM60.3288 31.0685H58.4777C58.6697 30.2075 58.7656 28.7287 58.7656 26.632C58.7656 25.7555 58.7305 25.1722 58.6602 24.8822C58.5882 24.59 58.4991 24.377 58.3928 24.2432C58.2866 24.1094 58.1443 24.0424 57.966 24.0424C57.7878 24.0424 57.6267 24.0859 57.4827 24.1729C57.3387 24.2621 57.2101 24.377 57.097 24.5175C56.8828 24.7785 56.7088 25.1265 56.5751 25.5614V27.1239C56.5751 28.654 56.5982 29.6009 56.6445 29.9644C56.6994 30.444 56.7559 30.812 56.8142 31.0685H54.963C55.0625 30.6113 55.1293 30.0046 55.1636 29.2484C55.239 27.3525 55.2767 25.9562 55.2767 25.0595C55.2767 24.1651 55.2741 23.5528 55.269 23.2227C55.2656 22.8926 55.2596 22.5647 55.251 22.2391C55.2304 21.0524 55.1893 20.3075 55.1276 20.0041C55.0676 19.703 55.011 19.4822 54.9579 19.3416C54.9065 19.2034 54.8491 19.0773 54.7856 18.9636L54.5722 18.5788H56.8631C56.7465 19.1297 56.6788 19.6417 56.6599 20.1145C56.6411 20.5874 56.6274 20.9733 56.6188 21.2721C56.6102 21.5688 56.6017 21.88 56.5931 22.2056C56.5811 22.9684 56.5751 23.6409 56.5751 24.2231C56.9059 23.4982 57.343 23.0186 57.8863 22.7844C58.08 22.6974 58.296 22.6539 58.5342 22.6539C58.7725 22.6539 58.9885 22.7209 59.1822 22.8547C59.3776 22.9885 59.5404 23.1781 59.6707 23.4235C59.938 23.9186 60.0717 24.5967 60.0717 25.4577V26.3309C60.0717 27.9971 60.0897 29.041 60.1257 29.4626C60.16 29.8841 60.184 30.1641 60.1977 30.3023C60.2269 30.541 60.2706 30.7964 60.3288 31.0685ZM66.3168 28.2915C66.4677 28.4231 66.5431 28.6507 66.5431 28.9741C66.5431 29.2975 66.5097 29.5819 66.4428 29.8272C66.376 30.0726 66.2586 30.3012 66.0906 30.5131C65.7135 30.9927 65.1402 31.2325 64.3706 31.2325C63.4758 31.2325 62.7936 30.802 62.324 29.941C61.9092 29.1737 61.7018 28.1365 61.7018 26.8294C61.7018 25.5112 61.9829 24.4763 62.5451 23.7246C63.0764 23.0108 63.7955 22.6539 64.7022 22.6539C65.3347 22.6539 65.8292 22.8937 66.1857 23.3733C66.4651 23.7547 66.6048 24.1941 66.6048 24.6915C66.6048 25.1911 66.5302 25.6406 66.3811 26.0399C66.2337 26.4413 66.0152 26.786 65.7255 27.0737C65.1324 27.6737 64.302 27.9893 63.2341 28.0205C63.3216 29.1157 63.5855 29.8484 64.026 30.2187C64.1837 30.3503 64.3945 30.4161 64.6585 30.4161C64.9225 30.4161 65.2027 30.2365 65.4992 29.8774C65.7975 29.5161 66.07 28.9875 66.3168 28.2915ZM63.1956 26.9934V27.2443C64.5188 27.1306 65.1804 26.2975 65.1804 24.745C65.1804 24.1629 65.0467 23.7714 64.7793 23.5707C64.6868 23.5038 64.5651 23.4703 64.4143 23.4703C64.2634 23.4703 64.1117 23.5305 63.9592 23.651C63.8066 23.7714 63.6738 23.9677 63.5607 24.2398C63.3173 24.8331 63.1956 25.751 63.1956 26.9934ZM70.3765 31.0685H68.0857C68.2828 30.1919 68.3814 28.422 68.3814 25.7588C68.3814 25.2904 68.3771 24.9871 68.3685 24.8488C68.36 24.7105 68.3223 24.6324 68.2554 24.6146C67.9795 24.5343 67.8141 24.3279 67.7592 23.9956C67.7472 23.9086 67.7309 23.816 67.7104 23.7179H68.1114C68.228 23.7179 68.3 23.6833 68.3274 23.6142C68.3548 23.5473 68.3685 23.3554 68.3685 23.0387C68.3685 22.4231 68.3506 21.8186 68.3146 21.2253C68.2786 20.632 68.2966 20.1825 68.3685 19.877C68.4388 19.5736 68.5494 19.3127 68.7002 19.0941C69.019 18.6368 69.469 18.4082 70.05 18.4082C70.2677 18.4082 70.4665 18.4349 70.6465 18.4885C70.8265 18.5442 71.0005 18.5721 71.1684 18.5721C71.3347 18.5721 71.4812 18.542 71.6081 18.4818C71.7332 18.4216 71.8438 18.2877 71.9398 18.0803C71.9946 18.1628 72.0452 18.3089 72.0914 18.5186C72.1377 18.7283 72.1609 18.9569 72.1609 19.2045C72.1609 19.4521 72.1472 19.713 72.1197 19.9874C72.0923 20.264 72.0529 20.5327 72.0015 20.7937C71.8969 21.3379 71.7512 21.7707 71.5644 22.0919C71.4632 20.9811 71.3698 20.2896 71.2841 20.0175C71.1984 19.7454 71.1042 19.5591 71.0013 19.4587C70.8985 19.3561 70.7468 19.3048 70.5462 19.3048C70.3457 19.3048 70.1666 19.4431 70.0089 19.7197C69.8529 19.9941 69.7749 20.371 69.7749 20.8506V21.1116C69.7749 22.2 69.7981 22.858 69.8443 23.0855C69.8889 23.3108 69.9515 23.4592 70.032 23.5305C70.1109 23.5997 70.224 23.6343 70.3714 23.6343H71.5258C71.4213 24.125 71.2918 24.4417 71.1376 24.5844C71.0622 24.6603 70.9773 24.6982 70.883 24.6982C70.7888 24.6982 70.7142 24.6893 70.6594 24.6714C70.6045 24.6558 70.5522 24.6369 70.5025 24.6146C70.3774 24.561 70.2634 24.5343 70.1606 24.5343C70.0577 24.5343 69.9789 24.5521 69.924 24.5878C69.8709 24.6235 69.8272 24.6737 69.7929 24.7384C69.7432 24.8476 69.7184 25.0216 69.7184 25.2603V26.6588C69.7184 28.3518 69.7646 29.4101 69.8572 29.8339C69.924 30.1507 70.0097 30.4016 70.1143 30.5867L70.3765 31.0685ZM81.6044 26.7057L81.5864 28.2748C81.5864 29.2495 81.6558 29.9142 81.7946 30.2689C81.8769 30.4808 81.9746 30.6436 82.0877 30.7574L82.3834 31.0685H80.5631L80.3677 30.1217C79.8946 30.8622 79.221 31.2325 78.3468 31.2325C77.8498 31.2325 77.4478 31.015 77.141 30.58C76.8736 30.1875 76.7399 29.7235 76.7399 29.1882C76.7399 28.6551 76.8376 28.1901 77.033 27.793C77.2267 27.396 77.483 27.067 77.8018 26.806C78.4291 26.2997 79.2176 26.0354 80.1671 26.0131V25.9227C80.1671 24.6001 80.0103 23.8238 79.6966 23.5941C79.5835 23.5116 79.4378 23.4703 79.2596 23.4703C79.083 23.4703 78.9065 23.5473 78.7299 23.7012C78.5551 23.8528 78.3965 24.0491 78.2543 24.29C77.9697 24.774 77.7666 25.345 77.6449 26.003C77.273 25.7153 77.087 25.1633 77.087 24.3469C77.087 24.0146 77.1204 23.6409 77.1873 23.2261C77.345 23.2261 77.495 23.196 77.6372 23.1357L78.1206 22.9417C78.5937 22.7499 79.0564 22.6539 79.509 22.6539C79.9615 22.6539 80.3223 22.7409 80.5914 22.9149C80.8622 23.0911 81.0722 23.3499 81.2213 23.6911C81.4767 24.2755 81.6044 25.2804 81.6044 26.7057ZM78.0974 29.3521C78.0974 29.6912 78.1566 29.9533 78.2748 30.1384C78.3948 30.3235 78.5448 30.4161 78.7248 30.4161C78.9048 30.4161 79.0779 30.3548 79.2441 30.2321C79.4121 30.1094 79.5629 29.9421 79.6966 29.7302C80.0103 29.244 80.1671 28.6741 80.1671 28.0205V26.8127C79.5809 26.8841 79.0976 27.1373 78.7171 27.5722C78.304 28.0406 78.0974 28.6339 78.0974 29.3521ZM77.7324 18.5721H79.3393C79.3393 18.6257 79.3873 18.8264 79.4832 19.1744C79.7009 19.9149 79.856 20.4301 79.9486 20.7201C79.9486 20.7201 80.03 20.9621 80.1929 21.4461C80.2648 21.6469 80.3257 21.8052 80.3754 21.9212H79.6581C79.4421 21.7182 79.1936 21.3915 78.9125 20.9409C78.3811 20.0844 77.9877 19.2948 77.7324 18.5721ZM86.7311 22.8179H89.0476C88.9722 23.0588 88.9345 23.322 88.9345 23.6075C88.9345 23.893 88.9516 24.1462 88.9859 24.367C89.0184 24.5878 89.0647 24.8454 89.1247 25.1398L89.8009 28.2748L90.04 29.2785C90.2868 28.315 90.4497 27.6648 90.5285 27.328L90.7548 26.3309C91.0016 25.2358 91.125 24.5577 91.125 24.2967C91.125 24.0357 91.1156 23.8439 91.0967 23.7212C91.0779 23.5986 91.0522 23.4882 91.0196 23.39C90.9785 23.2428 90.897 23.0521 90.7753 22.8179H93.0584C92.7499 23.3733 92.5434 23.7904 92.4388 24.0692L92.2048 24.6882C92.1671 24.7863 92.1149 24.9279 92.048 25.1131C91.2287 27.5488 90.819 29.1804 90.819 30.0079C90.819 30.3826 90.873 30.7362 90.981 31.0685H88.7211C88.8222 30.8611 88.8822 30.6659 88.901 30.483C88.9199 30.3023 88.9293 30.115 88.9293 29.9209C88.9293 29.7269 88.8916 29.4481 88.8162 29.0845C88.7408 28.7187 88.6422 28.3049 88.5205 27.8432C88.3988 27.3793 88.26 26.8897 88.104 26.3744C87.9463 25.8614 87.7861 25.3707 87.6232 24.9023C87.2547 23.8517 86.9573 23.1569 86.7311 22.8179ZM96.7865 23.4703C96.4111 23.4703 96.1403 23.7157 95.974 24.2064C95.8095 24.6971 95.7272 25.5224 95.7272 26.6822C95.7272 29.1715 96.0803 30.4161 96.7865 30.4161C97.1636 30.4161 97.4344 30.0838 97.5989 29.4191C97.7652 28.7544 97.8483 27.8421 97.8483 26.6822C97.8483 25.5224 97.7652 24.6971 97.5989 24.2064C97.4344 23.7157 97.1636 23.4703 96.7865 23.4703ZM94.1434 26.3711C94.1434 23.893 95.0244 22.6539 96.7865 22.6539C98.5485 22.6539 99.4295 23.893 99.4295 26.3711C99.4295 27.8744 99.187 29.0644 98.7019 29.941C98.2288 30.802 97.5904 31.2325 96.7865 31.2325C95.9843 31.2325 95.3467 30.802 94.8736 29.941C94.3868 29.0644 94.1434 27.8744 94.1434 26.3711ZM102.787 19.5524C102.7 19.9718 102.656 20.4736 102.656 21.058C102.656 21.6446 102.666 22.0194 102.684 22.1822C102.703 22.345 102.733 22.4755 102.774 22.5736C102.855 22.7365 103.01 22.8179 103.24 22.8179H104.921C104.921 23.1235 104.865 23.3577 104.752 23.5205C104.548 23.8149 104.297 23.9621 103.998 23.9621C103.853 23.9621 103.723 23.9354 103.61 23.8818C103.404 23.7725 103.245 23.7179 103.132 23.7179C103.019 23.7179 102.927 23.7458 102.857 23.8015C102.785 23.8595 102.728 23.9432 102.687 24.0525C102.612 24.2488 102.574 24.6759 102.574 25.3339C102.574 25.9941 102.589 26.67 102.62 27.3614C102.653 28.0529 102.732 28.6306 102.857 29.0945C102.982 29.5607 103.172 29.9109 103.428 30.1451C103.683 30.3793 104.034 30.4964 104.482 30.4964C104.482 30.6659 104.394 30.8678 104.219 31.102C104.173 31.1667 104.133 31.2102 104.099 31.2325C103.358 31.2325 102.804 31.1176 102.435 30.8878C102.013 30.6157 101.713 30.1317 101.533 29.4358C101.353 28.7265 101.263 27.6782 101.263 26.2908C101.263 25.0752 101.238 24.3569 101.188 24.1361C101.137 23.9175 101.09 23.7725 101.049 23.7012C100.998 23.6186 100.876 23.5183 100.684 23.4C100.945 23.1435 101.202 22.6662 101.456 21.9681L101.772 21.1116C101.993 20.458 102.182 20.0342 102.34 19.8402C102.496 19.6483 102.645 19.5524 102.787 19.5524ZM107.582 31.0685H105.731C105.923 30.2075 106.019 28.7287 106.019 26.632C106.019 25.1398 105.927 24.1216 105.744 23.5774C105.669 23.3543 105.534 23.1012 105.34 22.8179H107.569C107.494 23.1614 107.433 23.6331 107.387 24.2331C107.781 23.5885 108.33 23.1335 109.032 22.8681C109.334 22.7543 109.554 22.5748 109.691 22.3294C109.829 22.7599 109.899 23.1302 109.899 23.4402C109.899 23.7502 109.886 24.0369 109.86 24.3001C109.836 24.5655 109.799 24.8231 109.747 25.0729C109.639 25.6127 109.495 26.032 109.315 26.3309C109.161 25.2692 108.92 24.648 108.593 24.4673C108.216 24.2554 107.847 24.5443 107.487 25.3339C107.412 25.4967 107.349 25.6707 107.3 25.8558C107.296 25.983 107.294 26.1112 107.294 26.2406C107.294 26.3722 107.294 26.5027 107.294 26.632C107.294 28.7287 107.39 30.2075 107.582 31.0685ZM115.134 28.2915C115.284 28.4231 115.36 28.6507 115.36 28.9741C115.36 29.2975 115.326 29.5819 115.26 29.8272C115.193 30.0726 115.075 30.3012 114.907 30.5131C114.53 30.9927 113.957 31.2325 113.187 31.2325C112.293 31.2325 111.61 30.802 111.141 29.941C110.726 29.1737 110.519 28.1365 110.519 26.8294C110.519 25.5112 110.8 24.4763 111.362 23.7246C111.893 23.0108 112.612 22.6539 113.519 22.6539C114.151 22.6539 114.646 22.8937 115.002 23.3733C115.282 23.7547 115.422 24.1941 115.422 24.6915C115.422 25.1911 115.347 25.6406 115.198 26.0399C115.05 26.4413 114.832 26.786 114.542 27.0737C113.949 27.6737 113.119 27.9893 112.051 28.0205C112.138 29.1157 112.402 29.8484 112.843 30.2187C113 30.3503 113.211 30.4161 113.475 30.4161C113.739 30.4161 114.019 30.2365 114.316 29.8774C114.614 29.5161 114.887 28.9875 115.134 28.2915ZM112.012 26.9934V27.2443C113.336 27.1306 113.997 26.2975 113.997 24.745C113.997 24.1629 113.863 23.7714 113.596 23.5707C113.504 23.5038 113.382 23.4703 113.231 23.4703C113.08 23.4703 112.928 23.5305 112.776 23.651C112.623 23.7714 112.491 23.9677 112.377 24.2398C112.134 24.8331 112.012 25.751 112.012 26.9934ZM122.351 23.3398C122.818 22.8826 123.405 22.6539 124.109 22.6539C125.105 22.6539 125.755 23.1904 126.061 24.2633C126.16 24.6179 126.21 25.0629 126.21 25.5982C126.21 26.1358 126.163 26.6588 126.068 27.1674C125.976 27.6759 125.845 28.1354 125.677 28.5458C125.509 28.954 125.312 29.3131 125.084 29.6232C124.856 29.9332 124.608 30.1919 124.341 30.3994C123.804 30.8187 123.235 31.0395 122.633 31.0618C122.642 31.354 122.654 31.6418 122.669 31.925L122.734 32.7916C122.771 33.3804 122.901 33.879 123.122 34.2871L123.335 34.6619H121.044C121.161 34.1399 121.229 33.6169 121.248 33.0927C121.266 32.5708 121.282 32.1235 121.294 31.7511C121.304 31.3786 121.311 30.9927 121.314 30.5934C121.332 29.6678 121.34 28.857 121.34 28.1611C121.34 25.9172 121.285 24.5443 121.176 24.0424C121.109 23.7324 121.023 23.4848 120.918 23.2997L120.656 22.8179H122.343C122.319 22.9272 122.321 23.1012 122.351 23.3398ZM124.641 25.8157C124.641 24.2521 124.338 23.4703 123.731 23.4703C123.43 23.4703 123.178 23.6454 122.978 23.9956C122.76 24.3703 122.651 24.8844 122.651 25.538L122.608 29.409V29.8607C122.608 30.0079 122.609 30.1574 122.613 30.309C123.22 30.1886 123.711 29.7146 124.089 28.8871C124.457 28.0707 124.641 27.0469 124.641 25.8157ZM130.365 23.4703C129.989 23.4703 129.718 23.7157 129.552 24.2064C129.388 24.6971 129.305 25.5224 129.305 26.6822C129.305 29.1715 129.658 30.4161 130.365 30.4161C130.742 30.4161 131.013 30.0838 131.18 29.4191C131.344 28.7544 131.426 27.8421 131.426 26.6822C131.426 25.5224 131.344 24.6971 131.18 24.2064C131.013 23.7157 130.742 23.4703 130.365 23.4703ZM127.724 26.3711C127.724 23.893 128.604 22.6539 130.365 22.6539C132.127 22.6539 133.008 23.893 133.008 26.3711C133.008 27.8744 132.765 29.0644 132.28 29.941C131.807 30.802 131.168 31.2325 130.365 31.2325C129.562 31.2325 128.925 30.802 128.452 29.941C127.967 29.0644 127.724 27.8744 127.724 26.3711ZM136.522 31.0685H134.671C134.863 30.2075 134.959 28.7287 134.959 26.632C134.959 25.1398 134.867 24.1216 134.684 23.5774C134.608 23.3543 134.475 23.1012 134.283 22.8179H136.509C136.434 23.1614 136.373 23.6331 136.327 24.2331C136.721 23.5885 137.27 23.1335 137.972 22.8681C138.274 22.7543 138.493 22.5748 138.63 22.3294C138.769 22.7599 138.839 23.1302 138.839 23.4402C138.839 23.7502 138.826 24.0369 138.8 24.3001C138.776 24.5655 138.738 24.8231 138.687 25.0729C138.579 25.6127 138.435 26.032 138.255 26.3309C138.101 25.2692 137.86 24.648 137.533 24.4673C137.156 24.2554 136.788 24.5443 136.43 25.3339C136.354 25.4967 136.291 25.6707 136.239 25.8558C136.236 25.983 136.234 26.1112 136.234 26.2406C136.234 26.3722 136.234 26.5027 136.234 26.632C136.234 28.7287 136.33 30.2075 136.522 31.0685ZM141.525 19.5524C141.436 19.9718 141.392 20.4736 141.392 21.058C141.392 21.6446 141.401 22.0194 141.42 22.1822C141.439 22.345 141.47 22.4755 141.513 22.5736C141.591 22.7365 141.746 22.8179 141.975 22.8179H143.659C143.659 23.1235 143.603 23.3577 143.49 23.5205C143.284 23.8149 143.033 23.9621 142.736 23.9621C142.589 23.9621 142.459 23.9354 142.346 23.8818C142.142 23.7725 141.983 23.7179 141.87 23.7179C141.757 23.7179 141.665 23.7458 141.595 23.8015C141.523 23.8595 141.466 23.9432 141.425 24.0525C141.35 24.2488 141.312 24.6759 141.312 25.3339C141.312 25.9941 141.328 26.67 141.358 27.3614C141.389 28.0529 141.468 28.6306 141.595 29.0945C141.72 29.5607 141.91 29.9109 142.166 30.1451C142.421 30.3793 142.772 30.4964 143.22 30.4964C143.22 30.6659 143.132 30.8678 142.955 31.102C142.909 31.1667 142.869 31.2102 142.837 31.2325C142.096 31.2325 141.542 31.1176 141.173 30.8878C140.75 30.6157 140.448 30.1317 140.268 29.4358C140.088 28.7265 139.998 27.6782 139.998 26.2908C139.998 25.0752 139.973 24.3569 139.924 24.1361C139.874 23.9175 139.828 23.7725 139.785 23.7012C139.735 23.6186 139.614 23.5183 139.422 23.4C139.681 23.1435 139.938 22.6662 140.194 21.9681L140.507 21.1116C140.73 20.458 140.92 20.0342 141.076 19.8402C141.233 19.6483 141.383 19.5524 141.525 19.5524ZM148.712 28.2915C148.862 28.4231 148.938 28.6507 148.938 28.9741C148.938 29.2975 148.904 29.5819 148.838 29.8272C148.771 30.0726 148.653 30.3012 148.485 30.5131C148.108 30.9927 147.535 31.2325 146.765 31.2325C145.871 31.2325 145.188 30.802 144.719 29.941C144.304 29.1737 144.097 28.1365 144.097 26.8294C144.097 25.5112 144.378 24.4763 144.94 23.7246C145.471 23.0108 146.19 22.6539 147.097 22.6539C147.729 22.6539 148.224 22.8937 148.58 23.3733C148.86 23.7547 149 24.1941 149 24.6915C149 25.1911 148.925 25.6406 148.776 26.0399C148.628 26.4413 148.41 26.786 148.12 27.0737C147.527 27.6737 146.697 27.9893 145.629 28.0205C145.716 29.1157 145.98 29.8484 146.421 30.2187C146.578 30.3503 146.789 30.4161 147.053 30.4161C147.317 30.4161 147.597 30.2365 147.894 29.8774C148.192 29.5161 148.465 28.9875 148.712 28.2915ZM145.59 26.9934V27.2443C146.914 27.1306 147.575 26.2975 147.575 24.745C147.575 24.1629 147.442 23.7714 147.174 23.5707C147.082 23.5038 146.96 23.4703 146.809 23.4703C146.658 23.4703 146.506 23.5305 146.354 23.651C146.201 23.7714 146.069 23.9677 145.955 24.2398C145.712 24.8331 145.59 25.751 145.59 26.9934Z" fill="white"/>
</g>
</g>
<g clip-path="url(#clip7_2_123)">
<g clip-path="url(#clip8_2_123)">
<path d="M53.7788 36.743L53.3349 37.2866C53.2496 37.1445 53.1519 37.0418 53.0419 36.9788C52.9318 36.9147 52.8178 36.8827 52.6997 36.8827H52.6789V36.1575H52.6844C52.8979 36.1575 53.0973 36.206 53.2824 36.3031C53.4675 36.4012 53.633 36.5478 53.7788 36.743ZM51.0455 38.9218C51.0455 38.5013 51.0809 38.1284 51.1516 37.8031C51.223 37.4778 51.321 37.2015 51.4457 36.9743C51.5703 36.747 51.7197 36.5674 51.8939 36.4352C52.0681 36.3031 52.2569 36.22 52.4602 36.186V36.9202C52.3531 36.9593 52.2543 37.0248 52.164 37.1169C52.0729 37.21 51.9927 37.3386 51.9234 37.5028C51.8542 37.666 51.7999 37.8637 51.7605 38.0959C51.7212 38.3281 51.6997 38.6034 51.696 38.9218C51.6997 39.2391 51.7212 39.5174 51.7605 39.7566C51.7999 39.9958 51.8542 40.2025 51.9234 40.3767C51.9927 40.5499 52.0729 40.688 52.164 40.7911C52.2543 40.8932 52.3531 40.9638 52.4602 41.0029V41.671C52.2569 41.636 52.0681 41.5514 51.8939 41.4173C51.7197 41.2831 51.5703 41.101 51.4457 40.8707C51.321 40.6415 51.223 40.3642 51.1516 40.0389C51.0809 39.7146 51.0455 39.3422 51.0455 38.9218ZM52.6789 38.8632H53.981V40.9518C53.8994 41.094 53.8079 41.2101 53.7066 41.3002C53.6053 41.3903 53.4985 41.4648 53.3863 41.5239C53.274 41.5829 53.1581 41.6245 53.0386 41.6485C52.9198 41.6725 52.8017 41.6845 52.6844 41.6845H52.6789V41.0404C52.7212 41.0404 52.7737 41.0364 52.8363 41.0284C52.8983 41.0214 52.9624 41.0094 53.0288 40.9923C53.0944 40.9753 53.1567 40.9523 53.2157 40.9233C53.274 40.8932 53.3174 40.8517 53.3458 40.7987V39.4638H52.6789V38.8632ZM55.3957 40.4022C55.3957 40.6225 55.4285 40.7861 55.4941 40.8932C55.5605 41.0004 55.6559 41.0639 55.7806 41.0839V41.6785C55.766 41.6825 55.7427 41.6845 55.7106 41.6845C55.5896 41.6845 55.473 41.6625 55.3607 41.6185C55.2485 41.5754 55.1497 41.5049 55.0645 41.4068C54.9792 41.3087 54.9125 41.179 54.8644 41.0179C54.8163 40.8567 54.7922 40.659 54.7922 40.4248C54.7922 40.1995 54.8269 40.0048 54.8961 39.8407C54.9661 39.6775 55.0554 39.5434 55.164 39.4383C55.2726 39.3332 55.3961 39.2551 55.5346 39.204C55.6731 39.152 55.8137 39.126 55.9566 39.126H56.1916V39.647H56.0736C56.0021 39.647 55.9274 39.657 55.8494 39.677C55.7715 39.696 55.6986 39.7326 55.6308 39.7866C55.563 39.8397 55.5069 39.9168 55.4624 40.0179C55.418 40.118 55.3957 40.2461 55.3957 40.4022ZM57.0564 40.3662V40.4248C57.0564 40.4638 57.0579 40.5209 57.0608 40.5959C57.0645 40.672 57.0717 40.7491 57.0827 40.8272C57.0936 40.9053 57.1104 40.9763 57.133 41.0404C57.1563 41.1035 57.1876 41.145 57.227 41.165L57.0564 41.656C57.0098 41.656 56.9606 41.6415 56.9088 41.6125C56.8571 41.5824 56.8075 41.5409 56.7602 41.4878C56.712 41.4338 56.6709 41.3737 56.6366 41.3077C56.6031 41.2416 56.5772 41.1695 56.559 41.0914C56.524 41.2136 56.454 41.3222 56.3491 41.4173C56.2441 41.5124 56.1275 41.5819 55.9992 41.626V41.0689C56.0845 41.0449 56.1618 40.9974 56.231 40.9263C56.3002 40.8552 56.36 40.7711 56.4103 40.674V39.126C56.4103 38.8867 56.4012 38.696 56.383 38.5539C56.3655 38.4127 56.3352 38.3091 56.2922 38.2431C56.25 38.177 56.1975 38.1355 56.1348 38.1184C56.0728 38.1014 55.9992 38.0929 55.9139 38.0929C55.8352 38.0929 55.7613 38.1064 55.692 38.1335C55.6228 38.1605 55.5586 38.192 55.4996 38.228C55.4413 38.2651 55.3899 38.3056 55.3454 38.3497C55.301 38.3937 55.2678 38.4278 55.2459 38.4518L55.0065 37.9458C55.0415 37.8917 55.0947 37.8367 55.1661 37.7806C55.2376 37.7245 55.3196 37.6745 55.4121 37.6304C55.5047 37.5864 55.6053 37.5509 55.7139 37.5238C55.8217 37.4978 55.9347 37.4848 56.0528 37.4848C56.1592 37.4848 56.2631 37.4993 56.3644 37.5283C56.4657 37.5574 56.5583 37.6064 56.6421 37.6755C56.7259 37.7436 56.7988 37.8352 56.8607 37.9503C56.9234 38.0644 56.9671 38.207 56.9919 38.3782C57.0167 38.5494 57.0335 38.722 57.0422 38.8962C57.0517 39.0694 57.0564 39.2416 57.0564 39.4127V40.3662ZM59.1698 41.6845C58.9701 41.6845 58.7955 41.625 58.6461 41.5059C58.4967 41.3857 58.3724 41.2256 58.2733 41.0254C58.1734 40.8252 58.1002 40.5954 58.0535 40.3362C58.0076 40.0769 57.9846 39.8056 57.9846 39.5224C57.9846 39.141 58.0229 38.8206 58.0994 38.5614C58.176 38.3031 58.2736 38.0919 58.3924 37.9277C58.512 37.7636 58.6457 37.6475 58.7937 37.5794C58.9409 37.5113 59.0859 37.4773 59.2288 37.4773C59.3389 37.4773 59.4438 37.4943 59.5437 37.5283C59.6428 37.5624 59.7335 37.6114 59.8159 37.6755V38.4518C59.759 38.3637 59.6924 38.2926 59.6158 38.2386C59.5393 38.1855 59.4566 38.159 59.3676 38.159C59.2605 38.159 59.1632 38.1965 59.0757 38.2716C58.989 38.3477 58.9154 38.4493 58.8549 38.5764C58.7944 38.7035 58.7481 38.8527 58.716 39.0239C58.684 39.195 58.6679 39.3757 58.6679 39.5659C58.6679 39.7621 58.6847 39.9468 58.7182 40.12C58.7525 40.2931 58.8006 40.4433 58.8625 40.5704C58.9252 40.6975 58.9999 40.7992 59.0867 40.8752C59.1741 40.9513 59.2711 40.9893 59.3775 40.9893C59.4664 40.9893 59.5466 40.9633 59.618 40.9113C59.6894 40.8602 59.7554 40.7931 59.8159 40.7101V41.4728C59.7306 41.5309 59.6326 41.5809 59.5218 41.623C59.4117 41.664 59.2944 41.6845 59.1698 41.6845ZM60.1034 37.5133H60.6807L60.6752 41.6485C60.6606 41.9468 60.6169 42.2011 60.544 42.4113C60.4711 42.6215 60.3778 42.7947 60.2641 42.9308C60.1504 43.0679 60.0189 43.166 59.8695 43.2251C59.7193 43.2832 59.559 43.3122 59.3884 43.3122C59.1894 43.3122 58.993 43.2646 58.7991 43.1696C58.6045 43.0745 58.4435 42.9143 58.3159 42.6891L58.6887 42.1831C58.7244 42.2661 58.77 42.3347 58.8254 42.3888C58.8808 42.4428 58.9376 42.4844 58.9959 42.5134C59.055 42.5424 59.1136 42.5634 59.1719 42.5765C59.231 42.5885 59.2835 42.5945 59.3294 42.5945C59.5502 42.5945 59.723 42.5064 59.8476 42.3302C59.9722 42.154 60.0346 41.8537 60.0346 41.4293V37.9307L60.1034 37.5133ZM61.7215 37.5133H62.2977L62.3665 37.9307V41.6485H61.7215V37.5133ZM63.9627 37.9683C64.0232 38.0514 64.0706 38.148 64.1049 38.2581C64.1384 38.3682 64.1632 38.4828 64.1792 38.6019C64.1952 38.722 64.2051 38.8432 64.2087 38.9653C64.2124 39.0874 64.2142 39.207 64.2142 39.3242V41.5014V41.6485H63.5626V39.3977C63.5626 39.2316 63.5575 39.0729 63.5473 38.9218C63.5364 38.7696 63.5112 38.635 63.4719 38.5178C63.4325 38.4007 63.3793 38.3091 63.3122 38.2431C63.2445 38.177 63.1501 38.144 63.0291 38.144C62.9795 38.144 62.9128 38.155 62.829 38.177C62.7452 38.199 62.6643 38.2346 62.5863 38.2836V37.719C62.6818 37.65 62.7856 37.5914 62.8979 37.5434C63.0101 37.4943 63.1198 37.4698 63.227 37.4698C63.3866 37.4698 63.5218 37.5148 63.6326 37.6049C63.7426 37.695 63.8527 37.8161 63.9627 37.9683ZM66.5035 38.1665V37.4773C66.696 37.5013 66.8694 37.5719 67.0239 37.689C67.1792 37.8061 67.3118 37.9578 67.4219 38.144C67.5327 38.3302 67.6172 38.5429 67.6756 38.7821C67.7346 39.0214 67.7641 39.2706 67.7641 39.5299C67.7641 39.647 67.7586 39.7641 67.7477 39.8812H65.9164V39.2371H67.1497C67.1497 39.1099 67.1347 38.9873 67.1049 38.8692C67.0742 38.7521 67.0298 38.6435 66.9715 38.5434C66.9124 38.4433 66.8439 38.3592 66.7659 38.2911C66.6872 38.222 66.5998 38.1805 66.5035 38.1665ZM66.4828 40.9593C66.5221 40.9593 66.571 40.9533 66.6293 40.9413C66.6883 40.9293 66.7506 40.9073 66.8162 40.8752C66.8818 40.8432 66.9478 40.8027 67.0141 40.7536C67.0797 40.7046 67.1373 40.646 67.1869 40.5779L67.4219 41.0689C67.3046 41.2691 67.1675 41.4208 67.0108 41.5239C66.8541 41.627 66.6548 41.6785 66.4128 41.6785C66.2175 41.6785 66.0342 41.6235 65.8629 41.5134C65.6923 41.4033 65.5466 41.2526 65.4256 41.0614C65.3046 40.8712 65.2084 40.649 65.1369 40.3947C65.0662 40.1405 65.0309 39.8667 65.0309 39.5734C65.0309 39.2951 65.0637 39.0314 65.1293 38.7821C65.1949 38.5329 65.2849 38.3141 65.3993 38.1259C65.513 37.9378 65.6453 37.7851 65.7962 37.668C65.9478 37.5499 66.1107 37.4838 66.2849 37.4698V38.174C66.1537 38.208 66.0451 38.2811 65.9591 38.3932C65.8738 38.5053 65.8071 38.6335 65.759 38.7776C65.7109 38.9218 65.677 39.0699 65.6573 39.2221C65.6384 39.3732 65.6289 39.5028 65.6289 39.6109C65.6289 39.8011 65.6457 39.9783 65.6792 40.1425C65.7127 40.3057 65.7652 40.4473 65.8366 40.5674C65.9081 40.6865 65.9963 40.7816 66.1012 40.8527C66.2062 40.9238 66.3334 40.9593 66.4828 40.9593ZM68.6497 38.225V37.5133H70.9401V38.225L69.392 40.8197L69.2849 40.9368H70.9401V41.6485H68.6497V40.9368L70.1978 38.3422L70.3049 38.225H68.6497ZM73.9609 35.9517V40.3872C73.9609 40.5534 73.9769 40.684 74.009 40.7791C74.041 40.8752 74.0855 40.9463 74.1424 40.9923C74.1992 41.0384 74.2641 41.0689 74.337 41.0839C74.4098 41.099 74.4889 41.1065 74.5742 41.1065V41.6485C74.5283 41.6585 74.4805 41.666 74.431 41.671C74.3916 41.676 74.3453 41.6795 74.2921 41.6815C74.2382 41.6835 74.1846 41.6845 74.1314 41.6845C74.0782 41.6845 74.025 41.6825 73.9718 41.6785C73.9179 41.6735 73.8698 41.666 73.8275 41.656C73.7065 41.622 73.6121 41.5484 73.5443 41.4353C73.4765 41.3232 73.4248 41.1976 73.3891 41.0584C73.3541 40.9193 73.3319 40.7836 73.3224 40.6515C73.3136 40.5194 73.3093 40.4168 73.3093 40.3437V40.2551V35.9517H73.9609ZM76.6558 38.1665V37.4773C76.8482 37.5013 77.0221 37.5719 77.1773 37.689C77.3318 37.8061 77.4641 37.9578 77.5742 38.144C77.685 38.3302 77.7695 38.5429 77.8278 38.7821C77.8869 39.0214 77.9164 39.2706 77.9164 39.5299C77.9164 39.647 77.9109 39.7641 77.9 39.8812H76.0687V39.2371H77.302C77.302 39.1099 77.287 38.9873 77.2571 38.8692C77.2265 38.7521 77.1821 38.6435 77.1238 38.5434C77.0647 38.4433 76.9962 38.3592 76.9182 38.2911C76.8395 38.222 76.752 38.1805 76.6558 38.1665ZM76.6351 40.9593C76.6744 40.9593 76.7232 40.9533 76.7816 40.9413C76.8406 40.9293 76.9029 40.9073 76.9685 40.8752C77.0341 40.8432 77.1001 40.8027 77.1664 40.7536C77.232 40.7046 77.2896 40.646 77.3391 40.5779L77.5742 41.0689C77.4568 41.2691 77.3198 41.4208 77.1631 41.5239C77.0071 41.627 76.8078 41.6785 76.5651 41.6785C76.3697 41.6785 76.1868 41.6235 76.0163 41.5134C75.845 41.4033 75.6988 41.2526 75.5778 41.0614C75.4569 40.8712 75.3606 40.649 75.2892 40.3947C75.2185 40.1405 75.1832 39.8667 75.1832 39.5734C75.1832 39.2951 75.216 39.0314 75.2816 38.7821C75.3472 38.5329 75.4372 38.3141 75.5516 38.1259C75.6653 37.9378 75.798 37.7851 75.9496 37.668C76.1004 37.5499 76.263 37.4838 76.4372 37.4698V38.174C76.306 38.208 76.1974 38.2811 76.1114 38.3932C76.0261 38.5053 75.9594 38.6335 75.9113 38.7776C75.8632 38.9218 75.8297 39.0699 75.8107 39.2221C75.791 39.3732 75.7812 39.5028 75.7812 39.6109C75.7812 39.8011 75.798 39.9783 75.8315 40.1425C75.865 40.3057 75.9175 40.4473 75.9889 40.5674C76.0603 40.6865 76.1485 40.7816 76.2535 40.8527C76.3585 40.9238 76.4856 40.9593 76.6351 40.9593ZM81.1241 38.1139V40.3947C81.1241 40.5609 81.1401 40.6905 81.1722 40.7836C81.2043 40.8767 81.2495 40.9473 81.3078 40.9954C81.3668 41.0444 81.4328 41.0749 81.5057 41.0869C81.5785 41.1 81.6558 41.1065 81.7374 41.1065V41.6485C81.6915 41.6585 81.6452 41.666 81.5986 41.671C81.56 41.676 81.5129 41.6795 81.4576 41.6815C81.4022 41.6835 81.3479 41.6845 81.2947 41.6845C81.2414 41.6845 81.1871 41.6825 81.1318 41.6785C81.0771 41.6735 81.0301 41.666 80.9907 41.656C80.8697 41.627 80.7753 41.5549 80.7076 41.4398C80.6398 41.3247 80.5891 41.1976 80.5556 41.0584C80.5213 40.9193 80.4998 40.7836 80.4911 40.6515C80.4823 40.5194 80.478 40.4168 80.478 40.3437V38.1139H80.0833V37.5133H80.478V36.3406H81.1241V37.5133H81.6041V38.1139H81.1241ZM83.8945 38.1665V37.4773C84.0862 37.5013 84.2597 37.5719 84.4149 37.689C84.5694 37.8061 84.7021 37.9578 84.8129 38.144C84.9229 38.3302 85.0075 38.5429 85.0665 38.7821C85.1248 39.0214 85.154 39.2706 85.154 39.5299C85.154 39.647 85.1489 39.7641 85.1387 39.8812H83.3074V39.2371H84.5406C84.5406 39.1099 84.5253 38.9873 84.4947 38.8692C84.4648 38.7521 84.4204 38.6435 84.3613 38.5434C84.303 38.4433 84.2345 38.3592 84.1558 38.2911C84.0778 38.222 83.9907 38.1805 83.8945 38.1665ZM83.8726 40.9593C83.912 40.9593 83.9612 40.9533 84.0202 40.9413C84.0785 40.9293 84.1405 40.9073 84.2061 40.8752C84.2724 40.8432 84.3384 40.8027 84.404 40.7536C84.4696 40.7046 84.5275 40.646 84.5778 40.5779L84.8129 41.0689C84.6955 41.2691 84.5585 41.4208 84.4018 41.5239C84.2451 41.627 84.0457 41.6785 83.8037 41.6785C83.6077 41.6785 83.4244 41.6235 83.2538 41.5134C83.0833 41.4033 82.9371 41.2526 82.8154 41.0614C82.6944 40.8712 82.5986 40.649 82.5279 40.3947C82.4565 40.1405 82.4207 39.8667 82.4207 39.5734C82.4207 39.2951 82.4535 39.0314 82.5191 38.7821C82.5855 38.5329 82.6755 38.3141 82.7892 38.1259C82.9029 37.9378 83.0355 37.7851 83.1871 37.668C83.338 37.5499 83.5009 37.4838 83.6758 37.4698V38.174C83.5439 38.208 83.4353 38.2811 83.35 38.3932C83.2648 38.5053 83.1981 38.6335 83.15 38.7776C83.1019 38.9218 83.068 39.0699 83.0483 39.2221C83.0286 39.3732 83.0188 39.5028 83.0188 39.6109C83.0188 39.8011 83.0355 39.9783 83.0691 40.1425C83.1033 40.3057 83.1558 40.4473 83.2265 40.5674C83.2979 40.6865 83.3861 40.7816 83.4911 40.8527C83.596 40.9238 83.7232 40.9593 83.8726 40.9593ZM86.0395 37.5133H86.6222L86.6911 37.9383V41.6485H86.0395V37.5133ZM89.1412 37.4698C89.2622 37.4698 89.3762 37.5028 89.4834 37.5689C89.5898 37.6349 89.6831 37.729 89.7633 37.8512C89.8434 37.9733 89.9058 38.1184 89.9502 38.2866C89.9947 38.4558 90.0169 38.638 90.0169 38.8332V41.6485H89.3762V39.3977C89.3762 39.2316 89.3755 39.0739 89.3741 38.9248C89.3719 38.7756 89.3602 38.6425 89.3391 38.5253C89.3179 38.4082 89.2833 38.3166 89.2352 38.2506C89.1871 38.1845 89.1131 38.1515 89.0133 38.1515C88.9885 38.1515 88.9353 38.159 88.8537 38.174C88.7713 38.188 88.6769 38.2295 88.5705 38.2986V37.719C88.6667 37.641 88.7644 37.5799 88.8635 37.5358C88.9633 37.4918 89.0559 37.4698 89.1412 37.4698ZM88.2185 38.0344C88.2607 38.1224 88.2917 38.2165 88.3114 38.3166C88.3311 38.4167 88.3435 38.5203 88.3486 38.6275C88.3544 38.7356 88.3562 38.8467 88.354 38.9608C88.3526 39.0759 88.3518 39.197 88.3518 39.3242V41.6485H87.7057V39.3977C87.7057 39.2316 87.7057 39.0739 87.7057 38.9248C87.7057 38.7756 87.6951 38.6425 87.674 38.5253C87.6521 38.4082 87.6164 38.3166 87.5669 38.2506C87.5173 38.1845 87.4444 38.1515 87.3482 38.1515C87.3052 38.1515 87.2418 38.1625 87.158 38.1845C87.0749 38.2065 86.9921 38.2446 86.9098 38.2986V37.719C86.9958 37.65 87.0876 37.5939 87.1853 37.5509C87.283 37.5068 87.3799 37.4848 87.4761 37.4848C87.6401 37.4848 87.7779 37.5308 87.8894 37.6229C88.0016 37.716 88.1113 37.8532 88.2185 38.0344ZM90.9353 37.5133H91.5169L91.5858 37.9307V43.2762H90.9353V37.5133ZM93.5668 38.7671C93.6098 38.9923 93.6313 39.2441 93.6313 39.5224C93.6313 39.8006 93.6073 40.0709 93.5592 40.3332C93.5111 40.5944 93.4378 40.8252 93.3394 41.0254C93.2417 41.2256 93.1193 41.3857 92.9721 41.5059C92.8241 41.625 92.6503 41.6845 92.4506 41.6845C92.3267 41.6845 92.2086 41.665 92.0963 41.626C91.9841 41.5869 91.8872 41.5359 91.8055 41.4728V40.7101C91.9229 40.9003 92.0668 40.9954 92.2374 40.9954C92.3445 40.9954 92.4415 40.9588 92.5282 40.8857C92.6157 40.8127 92.6904 40.7136 92.7523 40.5884C92.815 40.4643 92.8642 40.3157 92.8999 40.1425C92.9349 39.9683 92.9524 39.7836 92.9524 39.5884C92.9524 39.3972 92.9367 39.2165 92.9054 39.0464C92.8733 38.8752 92.8278 38.7235 92.7687 38.5914C92.7097 38.4593 92.6386 38.3542 92.5555 38.2761C92.4717 38.198 92.3748 38.159 92.2647 38.159C92.1721 38.159 92.0876 38.1845 92.0111 38.2356C91.9345 38.2866 91.866 38.3587 91.8055 38.4518V37.6755C91.8872 37.6114 91.9779 37.5624 92.0778 37.5283C92.1769 37.4943 92.28 37.4773 92.3872 37.4773C92.5045 37.4773 92.6237 37.4993 92.7447 37.5434C92.8657 37.5874 92.9786 37.6605 93.0836 37.7626C93.1885 37.8657 93.2837 38.0003 93.3689 38.1665C93.4549 38.3327 93.5209 38.5329 93.5668 38.7671ZM94.2818 38.6935C94.2818 38.5083 94.3066 38.3412 94.3562 38.192C94.4065 38.0429 94.4761 37.9157 94.565 37.8106C94.6539 37.7055 94.7545 37.6224 94.8667 37.5614C94.979 37.5003 95.0956 37.4623 95.2166 37.4473V38.18C95.124 38.205 95.0519 38.2566 95.0001 38.3347C94.9484 38.4127 94.9225 38.5228 94.9225 38.665C94.9225 38.7821 94.9502 38.8762 95.0056 38.9473C95.0603 39.0173 95.1306 39.0794 95.2166 39.1335V39.9188C95.1561 39.8937 95.0945 39.8657 95.0318 39.8347C94.9699 39.8026 94.9087 39.7671 94.8482 39.7281C94.6594 39.5909 94.5176 39.4468 94.4229 39.2956C94.3288 39.1435 94.2818 38.9428 94.2818 38.6935ZM96.2727 37.7776L96.065 38.3857C95.9688 38.3176 95.8664 38.2666 95.7578 38.2326C95.6492 38.1975 95.5417 38.1755 95.4353 38.1665V37.4397C95.5949 37.4498 95.7425 37.4803 95.878 37.5313C96.0136 37.5834 96.1452 37.6655 96.2727 37.7776ZM94.2928 41.3182L94.565 40.7251C94.6357 40.7931 94.7202 40.8567 94.8186 40.9158C94.9163 40.9738 95.0398 41.0029 95.1893 41.0029H95.2166V41.6845C95.1269 41.6845 95.0449 41.681 94.9706 41.674C94.8955 41.667 94.8216 41.65 94.7487 41.623C94.6758 41.596 94.6022 41.5579 94.5278 41.5089C94.4527 41.4598 94.3744 41.3963 94.2928 41.3182ZM95.4353 40.0284V39.2506C95.5417 39.2996 95.6503 39.3537 95.7611 39.4127C95.8711 39.4708 95.9713 39.5439 96.0617 39.632C96.1528 39.7201 96.2279 39.8292 96.2869 39.9593C96.3452 40.0884 96.3744 40.2506 96.3744 40.4458C96.3744 40.637 96.3496 40.8032 96.3 40.9443C96.2498 41.0864 96.1831 41.2086 96.1 41.3107C96.0162 41.4138 95.9174 41.4949 95.8037 41.5539C95.6893 41.612 95.5664 41.651 95.4353 41.671V40.9743C95.5562 40.9443 95.6495 40.8917 95.7151 40.8167C95.7807 40.7406 95.8135 40.639 95.8135 40.5119C95.8135 40.3847 95.7771 40.2856 95.7042 40.2146C95.6313 40.1445 95.5417 40.0824 95.4353 40.0284ZM97.4797 40.629C97.5861 40.629 97.6769 40.6805 97.7519 40.7836C97.8263 40.8857 97.8634 41.0079 97.8634 41.15C97.8634 41.174 97.8616 41.2316 97.858 41.3227C97.8543 41.4128 97.8376 41.5224 97.8077 41.6515C97.7771 41.7816 97.7282 41.9223 97.6612 42.0734C97.5934 42.2256 97.4936 42.3772 97.3616 42.5284H97.1113C97.182 42.4353 97.2406 42.3377 97.2873 42.2356C97.3332 42.1325 97.3704 42.0394 97.3988 41.9563C97.4309 41.8632 97.4578 41.7706 97.4797 41.6785C97.3726 41.6785 97.2825 41.627 97.2097 41.5239C97.1368 41.4208 97.1003 41.2962 97.1003 41.15C97.1003 41.0029 97.1368 40.8792 97.2097 40.7791C97.2825 40.679 97.3726 40.629 97.4797 40.629ZM100.047 38.6935C100.047 38.5083 100.072 38.3412 100.121 38.192C100.171 38.0429 100.24 37.9157 100.33 37.8106C100.419 37.7055 100.519 37.6224 100.631 37.5614C100.743 37.5003 100.859 37.4623 100.98 37.4473V38.18C100.888 38.205 100.816 38.2566 100.764 38.3347C100.713 38.4127 100.687 38.5228 100.687 38.665C100.687 38.7821 100.715 38.8762 100.769 38.9473C100.825 39.0173 100.895 39.0794 100.98 39.1335V39.9188C100.92 39.8937 100.859 39.8657 100.797 39.8347C100.734 39.8026 100.672 39.7671 100.612 39.7281C100.424 39.5909 100.283 39.4468 100.188 39.2956C100.094 39.1435 100.047 38.9428 100.047 38.6935ZM102.038 37.7776L101.83 38.3857C101.734 38.3176 101.631 38.2666 101.523 38.2326C101.414 38.1975 101.306 38.1755 101.199 38.1665V37.4397C101.359 37.4498 101.507 37.4803 101.643 37.5313C101.778 37.5834 101.909 37.6655 102.038 37.7776ZM100.057 41.3182L100.33 40.7251C100.401 40.7931 100.485 40.8567 100.582 40.9158C100.681 40.9738 100.805 41.0029 100.954 41.0029H100.98V41.6845C100.891 41.6845 100.81 41.681 100.736 41.674C100.66 41.667 100.586 41.65 100.514 41.623C100.441 41.596 100.367 41.5579 100.292 41.5089C100.217 41.4598 100.139 41.3963 100.057 41.3182ZM101.199 40.0284V39.2506C101.306 39.2996 101.415 39.3537 101.525 39.4127C101.636 39.4708 101.736 39.5439 101.827 39.632C101.918 39.7201 101.992 39.8292 102.051 39.9593C102.11 40.0884 102.139 40.2506 102.139 40.4458C102.139 40.637 102.114 40.8032 102.064 40.9443C102.014 41.0864 101.948 41.2086 101.864 41.3107C101.781 41.4138 101.682 41.4949 101.568 41.5539C101.454 41.612 101.331 41.651 101.199 41.671V40.9743C101.32 40.9443 101.414 40.8917 101.48 40.8167C101.546 40.7406 101.578 40.639 101.578 40.5119C101.578 40.3847 101.542 40.2856 101.469 40.2146C101.396 40.1445 101.306 40.0824 101.199 40.0284ZM103.5 40.4022C103.5 40.6225 103.533 40.7861 103.599 40.8932C103.664 41.0004 103.76 41.0639 103.884 41.0839V41.6785C103.87 41.6825 103.847 41.6845 103.815 41.6845C103.694 41.6845 103.578 41.6625 103.465 41.6185C103.353 41.5754 103.254 41.5049 103.169 41.4068C103.084 41.3087 103.017 41.179 102.969 41.0179C102.921 40.8567 102.897 40.659 102.897 40.4248C102.897 40.1995 102.932 40.0048 103.001 39.8407C103.07 39.6775 103.159 39.5434 103.268 39.4383C103.376 39.3332 103.5 39.2551 103.639 39.204C103.778 39.152 103.918 39.126 104.06 39.126H104.295V39.647H104.178C104.107 39.647 104.032 39.657 103.954 39.677C103.875 39.696 103.802 39.7326 103.734 39.7866C103.667 39.8397 103.612 39.9168 103.567 40.0179C103.523 40.118 103.5 40.2461 103.5 40.4022ZM105.16 40.3662V40.4248C105.16 40.4638 105.162 40.5209 105.166 40.5959C105.169 40.672 105.176 40.7491 105.187 40.8272C105.198 40.9053 105.214 40.9763 105.238 41.0404C105.261 41.1035 105.292 41.145 105.331 41.165L105.16 41.656C105.114 41.656 105.065 41.6415 105.014 41.6125C104.962 41.5824 104.912 41.5409 104.864 41.4878C104.816 41.4338 104.775 41.3737 104.741 41.3077C104.708 41.2416 104.682 41.1695 104.664 41.0914C104.628 41.2136 104.558 41.3222 104.453 41.4173C104.348 41.5124 104.231 41.5819 104.103 41.626V41.0689C104.189 41.0449 104.266 40.9974 104.336 40.9263C104.405 40.8552 104.464 40.7711 104.514 40.674V39.126C104.514 38.8867 104.505 38.696 104.488 38.5539C104.47 38.4127 104.44 38.3091 104.397 38.2431C104.354 38.177 104.301 38.1355 104.24 38.1184C104.177 38.1014 104.103 38.0929 104.018 38.0929C103.94 38.0929 103.866 38.1064 103.797 38.1335C103.727 38.1605 103.663 38.192 103.604 38.228C103.545 38.2651 103.494 38.3056 103.449 38.3497C103.405 38.3937 103.372 38.4278 103.351 38.4518L103.11 37.9458C103.146 37.8917 103.199 37.8367 103.271 37.7806C103.342 37.7245 103.423 37.6745 103.516 37.6304C103.608 37.5864 103.709 37.5509 103.817 37.5238C103.926 37.4978 104.039 37.4848 104.156 37.4848C104.264 37.4848 104.368 37.4993 104.469 37.5283C104.57 37.5574 104.663 37.6064 104.747 37.6755C104.831 37.7436 104.903 37.8352 104.965 37.9503C105.027 38.0644 105.071 38.207 105.097 38.3782C105.121 38.5494 105.138 38.722 105.147 38.8962C105.156 39.0694 105.16 39.2416 105.16 39.4127V40.3662ZM107.093 41.6785L106.036 37.5133H106.767L107.402 40.4533V41.6785H107.093ZM107.621 40.4533L108.262 37.5133H108.988L107.93 41.6785H107.621V40.4533ZM111.123 38.18V37.4908C111.318 37.5058 111.496 37.5709 111.656 37.686C111.817 37.8011 111.951 37.9528 112.06 38.141C112.168 38.3292 112.253 38.5479 112.313 38.7971C112.374 39.0464 112.404 39.3126 112.404 39.5959C112.404 39.8792 112.373 40.1445 112.31 40.3917C112.248 40.638 112.162 40.8527 112.051 41.0359C111.941 41.2191 111.806 41.3672 111.645 41.4803C111.486 41.5925 111.312 41.6585 111.123 41.6785V40.9743C111.301 40.9203 111.446 40.7661 111.558 40.5119C111.67 40.2576 111.726 39.9523 111.726 39.5959C111.726 39.4147 111.713 39.2446 111.686 39.0854C111.659 38.9273 111.619 38.7846 111.566 38.6575C111.512 38.5304 111.448 38.4252 111.373 38.3422C111.299 38.2591 111.215 38.205 111.123 38.18ZM109.633 39.5809C109.633 39.2976 109.663 39.0339 109.725 38.7896C109.785 38.5454 109.871 38.3312 109.983 38.147C110.095 37.9638 110.229 37.8161 110.386 37.704C110.543 37.5919 110.715 37.5233 110.904 37.4983V38.18C110.726 38.2341 110.583 38.3882 110.477 38.6425C110.37 38.8967 110.316 39.202 110.316 39.5584C110.316 39.7396 110.329 39.9108 110.356 40.0719C110.383 40.2331 110.422 40.3772 110.471 40.5044C110.521 40.6315 110.582 40.7366 110.656 40.8197C110.729 40.9028 110.812 40.9543 110.904 40.9743V41.6785C110.708 41.6585 110.532 41.591 110.375 41.4758C110.218 41.3617 110.085 41.2116 109.975 41.0254C109.865 40.8392 109.78 40.6215 109.721 40.3722C109.662 40.123 109.633 39.8592 109.633 39.5809ZM113.871 37.5133V39.7641C113.871 39.9353 113.877 40.0954 113.888 40.2446C113.898 40.3937 113.921 40.5244 113.957 40.6365C113.992 40.7486 114.046 40.8392 114.117 40.9083C114.188 40.9763 114.282 41.0104 114.401 41.0104C114.446 41.0104 114.512 41.0009 114.597 40.9818C114.683 40.9618 114.765 40.9298 114.843 40.8857V41.4293C114.751 41.4974 114.65 41.5569 114.542 41.608C114.433 41.659 114.325 41.6845 114.219 41.6845C114.133 41.6845 114.057 41.6735 113.989 41.6515C113.922 41.6295 113.858 41.5955 113.799 41.5494C113.741 41.5034 113.685 41.4508 113.631 41.3918C113.578 41.3337 113.524 41.2676 113.471 41.1936C113.411 41.1105 113.363 41.0139 113.327 40.9038C113.291 40.7946 113.265 40.68 113.249 40.5599C113.233 40.4398 113.225 40.3187 113.223 40.1965C113.221 40.0744 113.22 39.9548 113.22 39.8377V37.5133H113.871ZM115.062 37.5133H115.714V41.6485H115.132L115.062 41.2236V37.5133ZM116.621 37.5133H117.197L117.266 37.9383V40.1815V40.1965V41.6485H116.621V37.5133ZM117.486 38.4443V37.6965C117.575 37.6284 117.681 37.5759 117.806 37.5389C117.93 37.5028 118.099 37.4848 118.312 37.4848V38.4082C118.213 38.3692 118.092 38.3472 117.949 38.3422C117.871 38.3422 117.792 38.3507 117.712 38.3677C117.632 38.3847 117.556 38.4102 117.486 38.4443ZM120.399 38.1665V37.4773C120.592 37.5013 120.765 37.5719 120.92 37.689C121.075 37.8061 121.208 37.9578 121.318 38.144C121.429 38.3302 121.513 38.5429 121.571 38.7821C121.63 39.0214 121.66 39.2706 121.66 39.5299C121.66 39.647 121.655 39.7641 121.644 39.8812H119.812V39.2371H121.046C121.046 39.1099 121.031 38.9873 121.001 38.8692C120.97 38.7521 120.926 38.6435 120.867 38.5434C120.808 38.4433 120.74 38.3592 120.662 38.2911C120.583 38.222 120.496 38.1805 120.399 38.1665ZM120.379 40.9593C120.418 40.9593 120.467 40.9533 120.525 40.9413C120.584 40.9293 120.646 40.9073 120.712 40.8752C120.778 40.8432 120.844 40.8027 120.91 40.7536C120.976 40.7046 121.033 40.646 121.083 40.5779L121.318 41.0689C121.2 41.2691 121.063 41.4208 120.907 41.5239C120.75 41.627 120.551 41.6785 120.309 41.6785C120.113 41.6785 119.93 41.6235 119.759 41.5134C119.588 41.4033 119.442 41.2526 119.321 41.0614C119.2 40.8712 119.104 40.649 119.033 40.3947C118.962 40.1405 118.927 39.8667 118.927 39.5734C118.927 39.2951 118.96 39.0314 119.025 38.7821C119.091 38.5329 119.181 38.3141 119.295 38.1259C119.409 37.9378 119.541 37.7851 119.692 37.668C119.844 37.5499 120.007 37.4838 120.181 37.4698V38.174C120.05 38.208 119.941 38.2811 119.855 38.3932C119.77 38.5053 119.703 38.6335 119.655 38.7776C119.607 38.9218 119.573 39.0699 119.553 39.2221C119.534 39.3732 119.525 39.5028 119.525 39.6109C119.525 39.8011 119.542 39.9783 119.575 40.1425C119.609 40.3057 119.661 40.4473 119.733 40.5674C119.804 40.6865 119.892 40.7816 119.997 40.8527C120.102 40.9238 120.229 40.9593 120.379 40.9593ZM122.546 38.225V37.5133H124.836V38.225L123.288 40.8197L123.181 40.9368H124.836V41.6485H122.546V40.9368L124.094 38.3422L124.201 38.225H122.546ZM127.857 35.9517V40.3872C127.857 40.5534 127.873 40.684 127.905 40.7791C127.937 40.8752 127.981 40.9463 128.038 40.9923C128.095 41.0384 128.16 41.0689 128.233 41.0839C128.306 41.099 128.385 41.1065 128.47 41.1065V41.6485C128.424 41.6585 128.376 41.666 128.327 41.671C128.287 41.676 128.241 41.6795 128.188 41.6815C128.134 41.6835 128.08 41.6845 128.027 41.6845C127.974 41.6845 127.921 41.6825 127.868 41.6785C127.814 41.6735 127.766 41.666 127.723 41.656C127.602 41.622 127.508 41.5484 127.44 41.4353C127.372 41.3232 127.321 41.1976 127.285 41.0584C127.25 40.9193 127.228 40.7836 127.218 40.6515C127.21 40.5194 127.205 40.4168 127.205 40.3437V40.2551V35.9517H127.857ZM129.634 36.2445L129.549 37.5133H129.181L129.094 36.2445H129.634ZM131.133 37.5133V41.6485H130.483V37.5133H131.133ZM131.192 36.1935C131.192 36.3406 131.155 36.4643 131.081 36.5644C131.006 36.6645 130.915 36.7145 130.809 36.7145C130.701 36.7145 130.611 36.663 130.539 36.5599C130.466 36.4578 130.429 36.3356 130.429 36.1935C130.429 36.0473 130.466 35.9227 130.541 35.8196C130.616 35.7175 130.705 35.6665 130.809 35.6665C130.915 35.6665 131.006 35.7175 131.081 35.8196C131.155 35.9227 131.192 36.0473 131.192 36.1935ZM132.041 37.5133H132.618L132.687 37.9307V41.6485H132.041V37.5133ZM134.283 37.9683C134.344 38.0514 134.391 38.148 134.424 38.2581C134.458 38.3682 134.484 38.4828 134.5 38.6019C134.516 38.722 134.525 38.8432 134.529 38.9653C134.533 39.0874 134.535 39.207 134.535 39.3242V41.5014V41.6485H133.883V39.3977C133.883 39.2316 133.877 39.0729 133.867 38.9218C133.856 38.7696 133.832 38.635 133.792 38.5178C133.753 38.4007 133.699 38.3091 133.631 38.2431C133.564 38.177 133.47 38.144 133.349 38.144C133.299 38.144 133.232 38.155 133.148 38.177C133.065 38.199 132.984 38.2346 132.906 38.2836V37.719C133.002 37.65 133.106 37.5914 133.218 37.5434C133.33 37.4943 133.44 37.4698 133.546 37.4698C133.707 37.4698 133.842 37.5148 133.952 37.6049C134.063 37.695 134.173 37.8161 134.283 37.9683ZM135.356 38.6935C135.356 38.5083 135.381 38.3412 135.431 38.192C135.481 38.0429 135.55 37.9157 135.639 37.8106C135.728 37.7055 135.828 37.6224 135.941 37.5614C136.053 37.5003 136.169 37.4623 136.29 37.4473V38.18C136.198 38.205 136.126 38.2566 136.074 38.3347C136.022 38.4127 135.996 38.5228 135.996 38.665C135.996 38.7821 136.024 38.8762 136.079 38.9473C136.135 39.0173 136.205 39.0794 136.29 39.1335V39.9188C136.23 39.8937 136.168 39.8657 136.106 39.8347C136.044 39.8026 135.982 39.7671 135.922 39.7281C135.733 39.5909 135.592 39.4468 135.498 39.2956C135.403 39.1435 135.356 38.9428 135.356 38.6935ZM137.348 37.7776L137.139 38.3857C137.043 38.3176 136.94 38.2666 136.832 38.2326C136.723 38.1975 136.615 38.1755 136.509 38.1665V37.4397C136.669 37.4498 136.817 37.4803 136.952 37.5313C137.087 37.5834 137.219 37.6655 137.348 37.7776ZM135.367 41.3182L135.639 40.7251C135.71 40.7931 135.795 40.8567 135.892 40.9158C135.99 40.9738 136.114 41.0029 136.263 41.0029H136.29V41.6845C136.201 41.6845 136.119 41.681 136.044 41.674C135.97 41.667 135.896 41.65 135.824 41.623C135.75 41.596 135.676 41.5579 135.602 41.5089C135.527 41.4598 135.448 41.3963 135.367 41.3182ZM136.509 40.0284V39.2506C136.615 39.2996 136.724 39.3537 136.835 39.4127C136.945 39.4708 137.045 39.5439 137.137 39.632C137.227 39.7201 137.302 39.8292 137.361 39.9593C137.419 40.0884 137.448 40.2506 137.448 40.4458C137.448 40.637 137.423 40.8032 137.374 40.9443C137.324 41.0864 137.258 41.2086 137.174 41.3107C137.09 41.4138 136.991 41.4949 136.877 41.5539C136.764 41.612 136.641 41.651 136.509 41.671V40.9743C136.63 40.9443 136.723 40.8917 136.789 40.8167C136.855 40.7406 136.888 40.639 136.888 40.5119C136.888 40.3847 136.852 40.2856 136.779 40.2146C136.705 40.1445 136.615 40.0824 136.509 40.0284ZM139.146 38.1139V40.3947C139.146 40.5609 139.162 40.6905 139.194 40.7836C139.226 40.8767 139.271 40.9473 139.33 40.9954C139.389 41.0444 139.455 41.0749 139.528 41.0869C139.6 41.1 139.678 41.1065 139.759 41.1065V41.6485C139.713 41.6585 139.667 41.666 139.621 41.671C139.582 41.676 139.535 41.6795 139.479 41.6815C139.424 41.6835 139.37 41.6845 139.317 41.6845C139.263 41.6845 139.209 41.6825 139.154 41.6785C139.098 41.6735 139.051 41.666 139.013 41.656C138.892 41.627 138.797 41.5549 138.729 41.4398C138.662 41.3247 138.611 41.1976 138.578 41.0584C138.543 40.9193 138.522 40.7836 138.513 40.6515C138.504 40.5194 138.5 40.4168 138.5 40.3437V38.1139H138.105V37.5133H138.5V36.3406H139.146V37.5133H139.626V38.1139H139.146ZM141.041 40.4022C141.041 40.6225 141.074 40.7861 141.139 40.8932C141.205 41.0004 141.301 41.0639 141.426 41.0839V41.6785C141.411 41.6825 141.388 41.6845 141.356 41.6845C141.235 41.6845 141.118 41.6625 141.006 41.6185C140.893 41.5754 140.795 41.5049 140.709 41.4068C140.624 41.3087 140.557 41.179 140.509 41.0179C140.461 40.8567 140.437 40.659 140.437 40.4248C140.437 40.1995 140.472 40.0048 140.541 39.8407C140.611 39.6775 140.7 39.5434 140.809 39.4383C140.917 39.3332 141.04 39.2551 141.18 39.204C141.318 39.152 141.459 39.126 141.602 39.126H141.836V39.647H141.719C141.647 39.647 141.572 39.657 141.494 39.677C141.416 39.696 141.344 39.7326 141.276 39.7866C141.208 39.8397 141.152 39.9168 141.107 40.0179C141.063 40.118 141.041 40.2461 141.041 40.4022ZM142.701 40.3662V40.4248C142.701 40.4638 142.703 40.5209 142.706 40.5959C142.709 40.672 142.717 40.7491 142.728 40.8272C142.739 40.9053 142.755 40.9763 142.778 41.0404C142.801 41.1035 142.833 41.145 142.872 41.165L142.701 41.656C142.655 41.656 142.606 41.6415 142.554 41.6125C142.502 41.5824 142.453 41.5409 142.405 41.4878C142.357 41.4338 142.316 41.3737 142.282 41.3077C142.248 41.2416 142.222 41.1695 142.204 41.0914C142.169 41.2136 142.099 41.3222 141.994 41.4173C141.888 41.5124 141.772 41.5819 141.644 41.626V41.0689C141.729 41.0449 141.807 40.9974 141.876 40.9263C141.945 40.8552 142.005 40.7711 142.055 40.674V39.126C142.055 38.8867 142.046 38.696 142.028 38.5539C142.01 38.4127 141.98 38.3091 141.937 38.2431C141.895 38.177 141.842 38.1355 141.78 38.1184C141.718 38.1014 141.644 38.0929 141.559 38.0929C141.48 38.0929 141.406 38.1064 141.337 38.1335C141.268 38.1605 141.204 38.192 141.145 38.228C141.086 38.2651 141.035 38.3056 140.99 38.3497C140.946 38.3937 140.913 38.4278 140.891 38.4518L140.651 37.9458C140.686 37.8917 140.74 37.8367 140.811 37.7806C140.883 37.7245 140.965 37.6745 141.057 37.6304C141.15 37.5864 141.25 37.5509 141.358 37.5238C141.466 37.4978 141.58 37.4848 141.698 37.4848C141.804 37.4848 141.908 37.4993 142.009 37.5283C142.111 37.5574 142.203 37.6064 142.287 37.6755C142.371 37.7436 142.444 37.8352 142.506 37.9503C142.568 38.0644 142.612 38.207 142.637 38.3782C142.662 38.5494 142.678 38.722 142.687 38.8962C142.697 39.0694 142.701 39.2416 142.701 39.4127V40.3662ZM143.72 37.5133H144.297L144.366 37.9307V41.6485H143.72V37.5133ZM145.963 37.9683C146.023 38.0514 146.07 38.148 146.104 38.2581C146.137 38.3682 146.162 38.4828 146.178 38.6019C146.194 38.722 146.204 38.8432 146.208 38.9653C146.211 39.0874 146.213 39.207 146.213 39.3242V41.5014V41.6485H145.561V39.3977C145.561 39.2316 145.556 39.0729 145.546 38.9218C145.535 38.7696 145.51 38.635 145.471 38.5178C145.432 38.4007 145.379 38.3091 145.311 38.2431C145.243 38.177 145.149 38.144 145.028 38.144C144.978 38.144 144.912 38.155 144.828 38.177C144.744 38.199 144.663 38.2346 144.585 38.2836V37.719C144.681 37.65 144.786 37.5914 144.898 37.5434C145.009 37.4943 145.119 37.4698 145.226 37.4698C145.386 37.4698 145.521 37.5148 145.631 37.6049C145.741 37.695 145.852 37.8161 145.963 37.9683ZM147.963 38.1139V40.3947C147.963 40.5609 147.979 40.6905 148.012 40.7836C148.044 40.8767 148.089 40.9473 148.148 40.9954C148.206 41.0444 148.272 41.0749 148.346 41.0869C148.419 41.1 148.496 41.1065 148.578 41.1065V41.6485C148.532 41.6585 148.486 41.666 148.439 41.671C148.4 41.676 148.353 41.6795 148.298 41.6815C148.243 41.6835 148.188 41.6845 148.135 41.6845C148.081 41.6845 148.027 41.6825 147.972 41.6785C147.917 41.6735 147.869 41.666 147.83 41.656C147.709 41.627 147.615 41.5549 147.548 41.4398C147.48 41.3247 147.429 41.1976 147.395 41.0584C147.361 40.9193 147.34 40.7836 147.331 40.6515C147.323 40.5194 147.318 40.4168 147.318 40.3437V38.1139H146.923V37.5133H147.318V36.3406H147.963V37.5133H148.444V38.1139H147.963Z" fill="#E4C590"/>
</g>
</g>
</g>
</g>
<g clip-path="url(#clip9_2_123)">
<g clip-path="url(#clip10_2_123)">
<path d="M16.6937 45.9996C16.6937 45.9996 13.9296 46.1278 13.6802 41.8729L11.6624 28.8307C11.6624 28.8307 3.37006 27.352 2.94711 19.8888C2.94711 19.8888 2.25001 12.8315 9.29782 10.1065C9.29782 10.1065 10.3692 9.24081 14.0302 9.29106C14.0302 9.29106 17.3927 3.61006 24.0409 4.04363C24.0409 4.04363 29.1724 3.17744 33.9034 9.16376C33.9034 9.16376 40.5521 8.67994 43.8898 14.717C43.8898 14.717 47.7501 21.1622 41.2993 26.5623C41.2993 26.5623 39.6805 28.0397 36.6923 28.7532L35.0244 42.7894C35.0244 42.7894 35.1226 45.1583 33.2563 45.6172L33.3555 24.6266C33.3555 24.6266 33.057 22.8942 31.4135 22.919C31.4135 22.919 29.8438 22.8434 29.521 24.6266V37.0586H30.8155V45.9996H26.7068V32.2682C26.7068 32.2682 28.0514 32.0471 28.2255 30.744V23.4038C28.2255 23.4038 28.3368 22.8554 27.8367 22.8855C27.3351 22.9157 27.4034 23.0865 27.4034 23.378C27.4034 23.669 27.4034 28.6718 27.4034 28.6718H26.6179V23.3383C26.6179 23.3383 26.5983 22.8559 26.2455 22.9569C26.2455 22.9569 25.8431 22.8659 25.8235 23.3483C25.8038 23.8298 25.8235 28.6316 25.8235 28.6316H25.038V23.3876C25.038 23.3876 25.0964 22.876 24.6941 22.886C24.2913 22.8961 24.2613 23.2076 24.2613 23.4287C24.2613 23.6493 24.2613 28.6422 24.2613 28.6422H23.5057V23.187C23.5057 23.187 23.5446 22.8257 23.1123 22.876C22.6814 22.9267 22.6902 23.177 22.6902 23.2875C22.6902 23.3986 22.6902 30.6521 22.6902 30.6521C22.6902 30.6521 22.5625 32.0175 24.2618 32.1577V45.9996H19.0358V33.2029C19.0358 33.2029 22.0614 31.514 21.747 28.1397C21.747 28.1397 21.9828 24.0006 18.3677 22.9564C18.3677 22.9564 14.5968 22.7147 14.047 27.5367C14.047 27.5367 13.6536 31.7145 16.6399 33.1225L16.6937 45.9996Z" fill="#E4C590"/>
</g>
</g>
</g>
</g>
</g>
<defs>
<clipPath id="clip0_2_123">
<rect width="160" height="50" fill="white"/>
</clipPath>
<clipPath id="clip1_2_123">
<rect width="153.444" height="42" fill="white" transform="translate(2.9281 4)"/>
</clipPath>
<clipPath id="clip2_2_123">
<rect width="153.444" height="42" fill="white" transform="translate(2.9281 4)"/>
</clipPath>
<clipPath id="clip3_2_123">
<rect width="101" height="25" fill="white" transform="translate(48 18)"/>
</clipPath>
<clipPath id="clip4_2_123">
<rect width="101" height="25" fill="white" transform="translate(48 18)"/>
</clipPath>
<clipPath id="clip5_2_123">
<rect width="101" height="16.6619" fill="white" transform="translate(48 18)"/>
</clipPath>
<clipPath id="clip6_2_123">
<rect width="101" height="16.6619" fill="white" transform="translate(48 18)"/>
</clipPath>
<clipPath id="clip7_2_123">
<rect width="105.599" height="7.84401" fill="white" transform="translate(51.0436 35.5673)"/>
</clipPath>
<clipPath id="clip8_2_123">
<rect width="97.5323" height="7.64615" fill="white" transform="translate(51.0436 35.6663)"/>
</clipPath>
<clipPath id="clip9_2_123">
<rect width="42.1075" height="42" fill="white" transform="translate(2.9281 4)"/>
</clipPath>
<clipPath id="clip10_2_123">
<rect width="42.1075" height="42" fill="white" transform="translate(2.9281 4)"/>
</clipPath>
</defs>
</svg>
